G75*
%MOIN*%
%OFA0B0*%
%FSLAX25Y25*%
%IPPOS*%
%LPD*%
%AMOC8*
5,1,8,0,0,1.08239X$1,22.5*
%
%ADD10C,0.05200*%
%ADD11C,0.07400*%
%ADD12C,0.07874*%
%ADD13C,0.00600*%
%ADD14C,0.04000*%
D10*
X0362324Y0048255D02*
X0367524Y0048255D01*
X0367524Y0058255D02*
X0362324Y0058255D01*
X0362324Y0068255D02*
X0367524Y0068255D01*
X0367524Y0080755D02*
X0362324Y0080755D01*
X0362324Y0090755D02*
X0367524Y0090755D01*
X0367524Y0100755D02*
X0362324Y0100755D01*
X0362324Y0115755D02*
X0367524Y0115755D01*
X0367524Y0125755D02*
X0362324Y0125755D01*
X0362324Y0135755D02*
X0367524Y0135755D01*
X0367524Y0148255D02*
X0362324Y0148255D01*
X0362324Y0158255D02*
X0367524Y0158255D01*
X0367524Y0168255D02*
X0362324Y0168255D01*
X0397524Y0168255D02*
X0402724Y0168255D01*
X0402724Y0158255D02*
X0397524Y0158255D01*
X0397524Y0148255D02*
X0402724Y0148255D01*
X0402724Y0135755D02*
X0397524Y0135755D01*
X0397524Y0125755D02*
X0402724Y0125755D01*
X0402724Y0115755D02*
X0397524Y0115755D01*
X0397524Y0100755D02*
X0402724Y0100755D01*
X0402724Y0090755D02*
X0397524Y0090755D01*
X0397524Y0080755D02*
X0402724Y0080755D01*
X0402724Y0068255D02*
X0397524Y0068255D01*
X0397524Y0058255D02*
X0402724Y0058255D01*
X0402724Y0048255D02*
X0397524Y0048255D01*
D11*
X0422524Y0058255D03*
X0422524Y0088255D03*
X0412524Y0090755D03*
X0412524Y0120755D03*
X0422524Y0125755D03*
X0412524Y0138255D03*
X0422524Y0155755D03*
X0412524Y0168255D03*
X0282524Y0168255D03*
X0274524Y0168255D03*
X0265024Y0168255D03*
X0257024Y0168255D03*
X0247524Y0168255D03*
X0239524Y0168255D03*
X0230024Y0168255D03*
X0222024Y0168255D03*
X0212524Y0168255D03*
X0204524Y0168255D03*
X0195024Y0168255D03*
X0187024Y0168255D03*
X0177524Y0168255D03*
X0169524Y0168255D03*
X0160024Y0168255D03*
X0152024Y0168255D03*
X0142524Y0168255D03*
X0134524Y0168255D03*
X0125024Y0168255D03*
X0117024Y0168255D03*
X0107524Y0168255D03*
X0099524Y0168255D03*
X0090024Y0168255D03*
X0082024Y0168255D03*
X0082024Y0198255D03*
X0090024Y0198255D03*
X0099524Y0198255D03*
X0107524Y0198255D03*
X0117024Y0198255D03*
X0125024Y0198255D03*
X0134524Y0198255D03*
X0142524Y0198255D03*
X0152024Y0198255D03*
X0160024Y0198255D03*
X0169524Y0198255D03*
X0177524Y0198255D03*
X0187024Y0198255D03*
X0195024Y0198255D03*
X0204524Y0198255D03*
X0212524Y0198255D03*
X0222024Y0198255D03*
X0230024Y0198255D03*
X0239524Y0198255D03*
X0247524Y0198255D03*
X0257024Y0198255D03*
X0265024Y0198255D03*
X0274524Y0198255D03*
X0282524Y0198255D03*
X0277524Y0228255D03*
X0267524Y0228255D03*
X0257524Y0228255D03*
X0247524Y0228255D03*
X0237524Y0228255D03*
X0227524Y0228255D03*
X0217524Y0228255D03*
X0207524Y0228255D03*
X0192524Y0228255D03*
X0182524Y0228255D03*
X0172524Y0228255D03*
X0162524Y0228255D03*
X0152524Y0228255D03*
X0142524Y0228255D03*
X0132524Y0228255D03*
X0122524Y0228255D03*
X0112524Y0228255D03*
X0102524Y0228255D03*
X0307524Y0091755D03*
X0307524Y0083255D03*
X0307524Y0074255D03*
X0307524Y0064755D03*
X0337524Y0064755D03*
X0337524Y0074255D03*
X0337524Y0083255D03*
X0337524Y0091755D03*
X0237524Y0081755D03*
X0229524Y0081755D03*
X0220024Y0081755D03*
X0212024Y0081755D03*
X0212024Y0051755D03*
X0220024Y0051755D03*
X0229524Y0051755D03*
X0237524Y0051755D03*
X0237524Y0038255D03*
X0247524Y0038255D03*
X0257524Y0038255D03*
X0267524Y0038255D03*
X0277524Y0038255D03*
X0227524Y0038255D03*
X0207524Y0038255D03*
X0197524Y0038255D03*
X0187524Y0038255D03*
X0177524Y0038255D03*
X0167524Y0038255D03*
X0157524Y0038255D03*
X0147524Y0038255D03*
X0137524Y0038255D03*
D12*
X0110107Y0045657D03*
X0090107Y0045657D03*
X0084607Y0127657D03*
X0064607Y0127657D03*
X0044607Y0127657D03*
X0104607Y0127657D03*
X0124607Y0127657D03*
X0144607Y0127657D03*
X0164607Y0127657D03*
X0184607Y0127657D03*
X0204607Y0127657D03*
X0224607Y0127657D03*
X0244607Y0127657D03*
X0264607Y0127657D03*
X0284607Y0127657D03*
X0304607Y0127657D03*
X0447622Y0118338D03*
X0447622Y0098338D03*
X0447622Y0078338D03*
X0447622Y0138338D03*
X0440107Y0210657D03*
X0420107Y0210657D03*
D13*
X0278069Y0033043D02*
X0043817Y0033043D01*
X0044305Y0032555D02*
X0026824Y0050036D01*
X0026824Y0221474D01*
X0039305Y0233955D01*
X0450742Y0233955D01*
X0468224Y0216474D01*
X0468224Y0050036D01*
X0450742Y0032555D01*
X0300990Y0032555D01*
X0309393Y0040958D01*
X0310321Y0041886D01*
X0310824Y0043099D01*
X0310824Y0060984D01*
X0311762Y0061923D01*
X0312524Y0063761D01*
X0312524Y0065750D01*
X0311762Y0067587D01*
X0310356Y0068994D01*
X0309122Y0069505D01*
X0310356Y0070016D01*
X0311762Y0071423D01*
X0312524Y0073261D01*
X0312524Y0075250D01*
X0311762Y0077087D01*
X0310356Y0078494D01*
X0309725Y0078755D01*
X0310356Y0079016D01*
X0311762Y0080423D01*
X0312524Y0082261D01*
X0312524Y0084250D01*
X0311762Y0086087D01*
X0310356Y0087494D01*
X0310329Y0087505D01*
X0310356Y0087516D01*
X0311762Y0088923D01*
X0312524Y0090761D01*
X0312524Y0092750D01*
X0311762Y0094587D01*
X0310356Y0095994D01*
X0308518Y0096755D01*
X0306529Y0096755D01*
X0304691Y0095994D01*
X0303753Y0095055D01*
X0289367Y0095055D01*
X0288154Y0094553D01*
X0245654Y0052053D01*
X0244726Y0051124D01*
X0244224Y0049912D01*
X0244224Y0042026D01*
X0243285Y0041087D01*
X0242524Y0039250D01*
X0242524Y0037261D01*
X0242524Y0039250D01*
X0241762Y0041087D01*
X0240824Y0042026D01*
X0240824Y0047984D01*
X0241762Y0048923D01*
X0242524Y0050761D01*
X0242524Y0052750D01*
X0241762Y0054587D01*
X0240356Y0055994D01*
X0238518Y0056755D01*
X0236529Y0056755D01*
X0234691Y0055994D01*
X0233753Y0055055D01*
X0233295Y0055055D01*
X0232356Y0055994D01*
X0230518Y0056755D01*
X0228529Y0056755D01*
X0226691Y0055994D01*
X0225285Y0054587D01*
X0224774Y0053353D01*
X0224262Y0054587D01*
X0222856Y0055994D01*
X0221018Y0056755D01*
X0219029Y0056755D01*
X0217191Y0055994D01*
X0216253Y0055055D01*
X0215795Y0055055D01*
X0214856Y0055994D01*
X0213018Y0056755D01*
X0211029Y0056755D01*
X0209191Y0055994D01*
X0207785Y0054587D01*
X0207024Y0052750D01*
X0207024Y0050761D01*
X0207785Y0048923D01*
X0209191Y0047516D01*
X0211029Y0046755D01*
X0213018Y0046755D01*
X0214856Y0047516D01*
X0215795Y0048455D01*
X0216253Y0048455D01*
X0216724Y0047984D01*
X0216724Y0045099D01*
X0217226Y0043886D01*
X0218154Y0042958D01*
X0222524Y0038588D01*
X0222524Y0037261D01*
X0223285Y0035423D01*
X0224691Y0034016D01*
X0226529Y0033255D01*
X0228518Y0033255D01*
X0230356Y0034016D01*
X0231762Y0035423D01*
X0232524Y0037261D01*
X0233285Y0035423D01*
X0234691Y0034016D01*
X0236529Y0033255D01*
X0238518Y0033255D01*
X0240356Y0034016D01*
X0241762Y0035423D01*
X0242524Y0037261D01*
X0243285Y0035423D01*
X0244691Y0034016D01*
X0246529Y0033255D01*
X0248518Y0033255D01*
X0250356Y0034016D01*
X0251762Y0035423D01*
X0252524Y0037261D01*
X0253285Y0035423D01*
X0254691Y0034016D01*
X0256529Y0033255D01*
X0258518Y0033255D01*
X0260356Y0034016D01*
X0261762Y0035423D01*
X0262524Y0037261D01*
X0263285Y0035423D01*
X0264691Y0034016D01*
X0266529Y0033255D01*
X0268518Y0033255D01*
X0270356Y0034016D01*
X0271762Y0035423D01*
X0272524Y0037261D01*
X0273285Y0035423D01*
X0274691Y0034016D01*
X0276529Y0033255D01*
X0277857Y0033255D01*
X0278557Y0032555D01*
X0044305Y0032555D01*
X0043218Y0033642D02*
X0135596Y0033642D01*
X0134691Y0034016D02*
X0136529Y0033255D01*
X0138518Y0033255D01*
X0140356Y0034016D01*
X0141762Y0035423D01*
X0142524Y0037261D01*
X0143285Y0035423D01*
X0144691Y0034016D01*
X0146529Y0033255D01*
X0148518Y0033255D01*
X0150356Y0034016D01*
X0151762Y0035423D01*
X0152524Y0037261D01*
X0153285Y0035423D01*
X0154691Y0034016D01*
X0156529Y0033255D01*
X0158518Y0033255D01*
X0160356Y0034016D01*
X0161762Y0035423D01*
X0162524Y0037261D01*
X0162524Y0039250D01*
X0162524Y0037261D01*
X0163285Y0035423D01*
X0164691Y0034016D01*
X0166529Y0033255D01*
X0168518Y0033255D01*
X0170356Y0034016D01*
X0171762Y0035423D01*
X0172524Y0037261D01*
X0173285Y0035423D01*
X0174691Y0034016D01*
X0176529Y0033255D01*
X0178518Y0033255D01*
X0180356Y0034016D01*
X0181762Y0035423D01*
X0182524Y0037261D01*
X0182524Y0039250D01*
X0181762Y0041087D01*
X0180824Y0042026D01*
X0180824Y0048912D01*
X0180321Y0050124D01*
X0179393Y0051053D01*
X0175321Y0055124D01*
X0175321Y0055124D01*
X0174393Y0056053D01*
X0173180Y0056555D01*
X0117049Y0056555D01*
X0115836Y0056053D01*
X0110677Y0050894D01*
X0109065Y0050894D01*
X0107140Y0050096D01*
X0105667Y0048623D01*
X0104870Y0046698D01*
X0104870Y0044615D01*
X0105667Y0042690D01*
X0107140Y0041217D01*
X0109065Y0040420D01*
X0111148Y0040420D01*
X0113073Y0041217D01*
X0114546Y0042690D01*
X0115344Y0044615D01*
X0115344Y0046227D01*
X0119072Y0049955D01*
X0171157Y0049955D01*
X0174224Y0046888D01*
X0174224Y0042026D01*
X0173285Y0041087D01*
X0172524Y0039250D01*
X0172524Y0037261D01*
X0172524Y0039250D01*
X0171762Y0041087D01*
X0170356Y0042494D01*
X0168518Y0043255D01*
X0166529Y0043255D01*
X0164691Y0042494D01*
X0163285Y0041087D01*
X0162524Y0039250D01*
X0161762Y0041087D01*
X0160356Y0042494D01*
X0158518Y0043255D01*
X0156529Y0043255D01*
X0154691Y0042494D01*
X0153285Y0041087D01*
X0152524Y0039250D01*
X0152524Y0037261D01*
X0152524Y0039250D01*
X0151762Y0041087D01*
X0150356Y0042494D01*
X0148518Y0043255D01*
X0146529Y0043255D01*
X0144691Y0042494D01*
X0143285Y0041087D01*
X0142524Y0039250D01*
X0142524Y0037261D01*
X0142524Y0039250D01*
X0141762Y0041087D01*
X0140356Y0042494D01*
X0138518Y0043255D01*
X0136529Y0043255D01*
X0134691Y0042494D01*
X0133285Y0041087D01*
X0132524Y0039250D01*
X0132524Y0037261D01*
X0133285Y0035423D01*
X0134691Y0034016D01*
X0134467Y0034240D02*
X0042620Y0034240D01*
X0042021Y0034839D02*
X0133869Y0034839D01*
X0133279Y0035437D02*
X0041423Y0035437D01*
X0040824Y0036036D02*
X0133031Y0036036D01*
X0132783Y0036634D02*
X0040226Y0036634D01*
X0039627Y0037233D02*
X0132535Y0037233D01*
X0132524Y0037831D02*
X0039029Y0037831D01*
X0038430Y0038430D02*
X0132524Y0038430D01*
X0132524Y0039028D02*
X0037832Y0039028D01*
X0037233Y0039627D02*
X0132680Y0039627D01*
X0132928Y0040225D02*
X0036634Y0040225D01*
X0036036Y0040824D02*
X0108089Y0040824D01*
X0106935Y0041422D02*
X0035437Y0041422D01*
X0034839Y0042021D02*
X0106336Y0042021D01*
X0105738Y0042619D02*
X0034240Y0042619D01*
X0033642Y0043218D02*
X0105448Y0043218D01*
X0105200Y0043816D02*
X0033043Y0043816D01*
X0032445Y0044415D02*
X0104953Y0044415D01*
X0104870Y0045013D02*
X0031846Y0045013D01*
X0031248Y0045612D02*
X0104870Y0045612D01*
X0104870Y0046210D02*
X0030649Y0046210D01*
X0030051Y0046809D02*
X0104915Y0046809D01*
X0105163Y0047407D02*
X0029452Y0047407D01*
X0028854Y0048006D02*
X0105411Y0048006D01*
X0105659Y0048605D02*
X0028255Y0048605D01*
X0027657Y0049203D02*
X0106247Y0049203D01*
X0106845Y0049802D02*
X0027058Y0049802D01*
X0026824Y0050400D02*
X0107873Y0050400D01*
X0110782Y0050999D02*
X0026824Y0050999D01*
X0026824Y0051597D02*
X0111380Y0051597D01*
X0111979Y0052196D02*
X0026824Y0052196D01*
X0026824Y0052794D02*
X0112577Y0052794D01*
X0113176Y0053393D02*
X0026824Y0053393D01*
X0026824Y0053991D02*
X0113774Y0053991D01*
X0114373Y0054590D02*
X0026824Y0054590D01*
X0026824Y0055188D02*
X0114971Y0055188D01*
X0115570Y0055787D02*
X0026824Y0055787D01*
X0026824Y0056385D02*
X0116638Y0056385D01*
X0118918Y0049802D02*
X0171310Y0049802D01*
X0171909Y0049203D02*
X0118320Y0049203D01*
X0117721Y0048605D02*
X0172507Y0048605D01*
X0173106Y0048006D02*
X0117123Y0048006D01*
X0116524Y0047407D02*
X0173704Y0047407D01*
X0174224Y0046809D02*
X0115926Y0046809D01*
X0115344Y0046210D02*
X0174224Y0046210D01*
X0174224Y0045612D02*
X0115344Y0045612D01*
X0115344Y0045013D02*
X0174224Y0045013D01*
X0174224Y0044415D02*
X0115261Y0044415D01*
X0115013Y0043816D02*
X0174224Y0043816D01*
X0174224Y0043218D02*
X0168608Y0043218D01*
X0170053Y0042619D02*
X0174224Y0042619D01*
X0174218Y0042021D02*
X0170829Y0042021D01*
X0171427Y0041422D02*
X0173620Y0041422D01*
X0173176Y0040824D02*
X0171872Y0040824D01*
X0172119Y0040225D02*
X0172928Y0040225D01*
X0172680Y0039627D02*
X0172367Y0039627D01*
X0172524Y0039028D02*
X0172524Y0039028D01*
X0172524Y0038430D02*
X0172524Y0038430D01*
X0172524Y0037831D02*
X0172524Y0037831D01*
X0172512Y0037233D02*
X0172535Y0037233D01*
X0172783Y0036634D02*
X0172264Y0036634D01*
X0172016Y0036036D02*
X0173031Y0036036D01*
X0173279Y0035437D02*
X0171768Y0035437D01*
X0171178Y0034839D02*
X0173869Y0034839D01*
X0174467Y0034240D02*
X0170580Y0034240D01*
X0169452Y0033642D02*
X0175596Y0033642D01*
X0179452Y0033642D02*
X0205596Y0033642D01*
X0204691Y0034016D02*
X0206529Y0033255D01*
X0208518Y0033255D01*
X0210356Y0034016D01*
X0211762Y0035423D01*
X0212524Y0037261D01*
X0212524Y0039250D01*
X0211762Y0041087D01*
X0210356Y0042494D01*
X0208518Y0043255D01*
X0206529Y0043255D01*
X0204691Y0042494D01*
X0203285Y0041087D01*
X0202524Y0039250D01*
X0202524Y0037261D01*
X0203285Y0035423D01*
X0204691Y0034016D01*
X0204467Y0034240D02*
X0180580Y0034240D01*
X0181178Y0034839D02*
X0203869Y0034839D01*
X0203279Y0035437D02*
X0181768Y0035437D01*
X0182016Y0036036D02*
X0203031Y0036036D01*
X0202783Y0036634D02*
X0182264Y0036634D01*
X0182512Y0037233D02*
X0202535Y0037233D01*
X0202524Y0037831D02*
X0182524Y0037831D01*
X0182524Y0038430D02*
X0202524Y0038430D01*
X0202524Y0039028D02*
X0182524Y0039028D01*
X0182367Y0039627D02*
X0202680Y0039627D01*
X0202928Y0040225D02*
X0182119Y0040225D01*
X0181872Y0040824D02*
X0203176Y0040824D01*
X0203620Y0041422D02*
X0181427Y0041422D01*
X0180829Y0042021D02*
X0204218Y0042021D01*
X0204994Y0042619D02*
X0180824Y0042619D01*
X0180824Y0043218D02*
X0206439Y0043218D01*
X0208608Y0043218D02*
X0217894Y0043218D01*
X0217295Y0043816D02*
X0180824Y0043816D01*
X0180824Y0044415D02*
X0217007Y0044415D01*
X0216759Y0045013D02*
X0180824Y0045013D01*
X0180824Y0045612D02*
X0216724Y0045612D01*
X0216724Y0046210D02*
X0180824Y0046210D01*
X0180824Y0046809D02*
X0210899Y0046809D01*
X0209454Y0047407D02*
X0180824Y0047407D01*
X0180824Y0048006D02*
X0208702Y0048006D01*
X0208103Y0048605D02*
X0180824Y0048605D01*
X0180703Y0049203D02*
X0207669Y0049203D01*
X0207421Y0049802D02*
X0180455Y0049802D01*
X0180046Y0050400D02*
X0207173Y0050400D01*
X0207024Y0050999D02*
X0179447Y0050999D01*
X0179393Y0051053D02*
X0179393Y0051053D01*
X0178849Y0051597D02*
X0207024Y0051597D01*
X0207024Y0052196D02*
X0178250Y0052196D01*
X0177652Y0052794D02*
X0207042Y0052794D01*
X0207290Y0053393D02*
X0177053Y0053393D01*
X0176455Y0053991D02*
X0207538Y0053991D01*
X0207787Y0054590D02*
X0175856Y0054590D01*
X0175257Y0055188D02*
X0208386Y0055188D01*
X0208984Y0055787D02*
X0174659Y0055787D01*
X0173590Y0056385D02*
X0210136Y0056385D01*
X0213911Y0056385D02*
X0218136Y0056385D01*
X0216984Y0055787D02*
X0215063Y0055787D01*
X0215662Y0055188D02*
X0216386Y0055188D01*
X0221911Y0056385D02*
X0227636Y0056385D01*
X0226484Y0055787D02*
X0223063Y0055787D01*
X0223662Y0055188D02*
X0225886Y0055188D01*
X0225287Y0054590D02*
X0224260Y0054590D01*
X0224509Y0053991D02*
X0225038Y0053991D01*
X0224790Y0053393D02*
X0224757Y0053393D01*
X0231411Y0056385D02*
X0235636Y0056385D01*
X0234484Y0055787D02*
X0232563Y0055787D01*
X0233162Y0055188D02*
X0233886Y0055188D01*
X0239411Y0056385D02*
X0249987Y0056385D01*
X0250585Y0056984D02*
X0026824Y0056984D01*
X0026824Y0057582D02*
X0251184Y0057582D01*
X0251782Y0058181D02*
X0026824Y0058181D01*
X0026824Y0058779D02*
X0252381Y0058779D01*
X0252979Y0059378D02*
X0026824Y0059378D01*
X0026824Y0059976D02*
X0253578Y0059976D01*
X0254176Y0060575D02*
X0026824Y0060575D01*
X0026824Y0061173D02*
X0254775Y0061173D01*
X0255373Y0061772D02*
X0026824Y0061772D01*
X0026824Y0062370D02*
X0255972Y0062370D01*
X0256570Y0062969D02*
X0026824Y0062969D01*
X0026824Y0063567D02*
X0257169Y0063567D01*
X0257767Y0064166D02*
X0026824Y0064166D01*
X0026824Y0064764D02*
X0086404Y0064764D01*
X0086667Y0064655D02*
X0085454Y0065158D01*
X0045154Y0105458D01*
X0041809Y0108803D01*
X0041307Y0110016D01*
X0041307Y0123550D01*
X0040167Y0124690D01*
X0039370Y0126615D01*
X0039370Y0128698D01*
X0040167Y0130623D01*
X0041640Y0132096D01*
X0043565Y0132894D01*
X0045648Y0132894D01*
X0047573Y0132096D01*
X0049046Y0130623D01*
X0049844Y0128698D01*
X0049844Y0126615D01*
X0049046Y0124690D01*
X0047907Y0123550D01*
X0047907Y0112039D01*
X0049821Y0110124D01*
X0088691Y0071255D01*
X0221766Y0071255D01*
X0226224Y0075712D01*
X0226224Y0077984D01*
X0225285Y0078923D01*
X0224524Y0080761D01*
X0224524Y0082750D01*
X0225285Y0084587D01*
X0226691Y0085994D01*
X0228529Y0086755D01*
X0230518Y0086755D01*
X0232356Y0085994D01*
X0233762Y0084587D01*
X0234524Y0082750D01*
X0234524Y0080761D01*
X0233762Y0078923D01*
X0232824Y0077984D01*
X0232824Y0073689D01*
X0232321Y0072476D01*
X0231393Y0071548D01*
X0231393Y0071548D01*
X0225931Y0066086D01*
X0225002Y0065158D01*
X0223790Y0064655D01*
X0086667Y0064655D01*
X0085249Y0065363D02*
X0026824Y0065363D01*
X0026824Y0065961D02*
X0084651Y0065961D01*
X0084052Y0066560D02*
X0026824Y0066560D01*
X0026824Y0067158D02*
X0083453Y0067158D01*
X0082855Y0067757D02*
X0026824Y0067757D01*
X0026824Y0068355D02*
X0082256Y0068355D01*
X0081658Y0068954D02*
X0026824Y0068954D01*
X0026824Y0069552D02*
X0081059Y0069552D01*
X0080461Y0070151D02*
X0026824Y0070151D01*
X0026824Y0070749D02*
X0079862Y0070749D01*
X0079264Y0071348D02*
X0026824Y0071348D01*
X0026824Y0071946D02*
X0078665Y0071946D01*
X0078067Y0072545D02*
X0026824Y0072545D01*
X0026824Y0073143D02*
X0077468Y0073143D01*
X0076870Y0073742D02*
X0026824Y0073742D01*
X0026824Y0074340D02*
X0076271Y0074340D01*
X0075673Y0074939D02*
X0026824Y0074939D01*
X0026824Y0075538D02*
X0075074Y0075538D01*
X0074476Y0076136D02*
X0026824Y0076136D01*
X0026824Y0076735D02*
X0073877Y0076735D01*
X0073279Y0077333D02*
X0026824Y0077333D01*
X0026824Y0077932D02*
X0072680Y0077932D01*
X0072082Y0078530D02*
X0026824Y0078530D01*
X0026824Y0079129D02*
X0071483Y0079129D01*
X0070885Y0079727D02*
X0026824Y0079727D01*
X0026824Y0080326D02*
X0070286Y0080326D01*
X0069688Y0080924D02*
X0026824Y0080924D01*
X0026824Y0081523D02*
X0069089Y0081523D01*
X0068491Y0082121D02*
X0026824Y0082121D01*
X0026824Y0082720D02*
X0067892Y0082720D01*
X0067294Y0083318D02*
X0026824Y0083318D01*
X0026824Y0083917D02*
X0066695Y0083917D01*
X0066097Y0084515D02*
X0026824Y0084515D01*
X0026824Y0085114D02*
X0065498Y0085114D01*
X0064900Y0085712D02*
X0026824Y0085712D01*
X0026824Y0086311D02*
X0064301Y0086311D01*
X0063703Y0086909D02*
X0026824Y0086909D01*
X0026824Y0087508D02*
X0063104Y0087508D01*
X0062506Y0088106D02*
X0026824Y0088106D01*
X0026824Y0088705D02*
X0061907Y0088705D01*
X0061309Y0089303D02*
X0026824Y0089303D01*
X0026824Y0089902D02*
X0060710Y0089902D01*
X0060112Y0090500D02*
X0026824Y0090500D01*
X0026824Y0091099D02*
X0059513Y0091099D01*
X0058915Y0091697D02*
X0026824Y0091697D01*
X0026824Y0092296D02*
X0058316Y0092296D01*
X0057717Y0092894D02*
X0026824Y0092894D01*
X0026824Y0093493D02*
X0057119Y0093493D01*
X0056520Y0094091D02*
X0026824Y0094091D01*
X0026824Y0094690D02*
X0055922Y0094690D01*
X0055323Y0095288D02*
X0026824Y0095288D01*
X0026824Y0095887D02*
X0054725Y0095887D01*
X0054126Y0096485D02*
X0026824Y0096485D01*
X0026824Y0097084D02*
X0053528Y0097084D01*
X0052929Y0097682D02*
X0026824Y0097682D01*
X0026824Y0098281D02*
X0052331Y0098281D01*
X0051732Y0098879D02*
X0026824Y0098879D01*
X0026824Y0099478D02*
X0051134Y0099478D01*
X0050535Y0100076D02*
X0026824Y0100076D01*
X0026824Y0100675D02*
X0049937Y0100675D01*
X0049338Y0101273D02*
X0026824Y0101273D01*
X0026824Y0101872D02*
X0048740Y0101872D01*
X0048141Y0102471D02*
X0026824Y0102471D01*
X0026824Y0103069D02*
X0047543Y0103069D01*
X0046944Y0103668D02*
X0026824Y0103668D01*
X0026824Y0104266D02*
X0046346Y0104266D01*
X0045747Y0104865D02*
X0026824Y0104865D01*
X0026824Y0105463D02*
X0045149Y0105463D01*
X0044550Y0106062D02*
X0026824Y0106062D01*
X0026824Y0106660D02*
X0043952Y0106660D01*
X0043353Y0107259D02*
X0026824Y0107259D01*
X0026824Y0107857D02*
X0042755Y0107857D01*
X0042156Y0108456D02*
X0026824Y0108456D01*
X0026824Y0109054D02*
X0041705Y0109054D01*
X0041457Y0109653D02*
X0026824Y0109653D01*
X0026824Y0110251D02*
X0041307Y0110251D01*
X0041307Y0110850D02*
X0026824Y0110850D01*
X0026824Y0111448D02*
X0041307Y0111448D01*
X0041307Y0112047D02*
X0026824Y0112047D01*
X0026824Y0112645D02*
X0041307Y0112645D01*
X0041307Y0113244D02*
X0026824Y0113244D01*
X0026824Y0113842D02*
X0041307Y0113842D01*
X0041307Y0114441D02*
X0026824Y0114441D01*
X0026824Y0115039D02*
X0041307Y0115039D01*
X0041307Y0115638D02*
X0026824Y0115638D01*
X0026824Y0116236D02*
X0041307Y0116236D01*
X0041307Y0116835D02*
X0026824Y0116835D01*
X0026824Y0117433D02*
X0041307Y0117433D01*
X0041307Y0118032D02*
X0026824Y0118032D01*
X0026824Y0118630D02*
X0041307Y0118630D01*
X0041307Y0119229D02*
X0026824Y0119229D01*
X0026824Y0119827D02*
X0041307Y0119827D01*
X0041307Y0120426D02*
X0026824Y0120426D01*
X0026824Y0121024D02*
X0041307Y0121024D01*
X0041307Y0121623D02*
X0026824Y0121623D01*
X0026824Y0122221D02*
X0041307Y0122221D01*
X0041307Y0122820D02*
X0026824Y0122820D01*
X0026824Y0123418D02*
X0041307Y0123418D01*
X0040840Y0124017D02*
X0026824Y0124017D01*
X0026824Y0124615D02*
X0040242Y0124615D01*
X0039950Y0125214D02*
X0026824Y0125214D01*
X0026824Y0125812D02*
X0039702Y0125812D01*
X0039454Y0126411D02*
X0026824Y0126411D01*
X0026824Y0127009D02*
X0039370Y0127009D01*
X0039370Y0127608D02*
X0026824Y0127608D01*
X0026824Y0128207D02*
X0039370Y0128207D01*
X0039414Y0128805D02*
X0026824Y0128805D01*
X0026824Y0129404D02*
X0039662Y0129404D01*
X0039910Y0130002D02*
X0026824Y0130002D01*
X0026824Y0130601D02*
X0040158Y0130601D01*
X0040743Y0131199D02*
X0026824Y0131199D01*
X0026824Y0131798D02*
X0041341Y0131798D01*
X0042364Y0132396D02*
X0026824Y0132396D01*
X0026824Y0132995D02*
X0085278Y0132995D01*
X0085177Y0132894D02*
X0083565Y0132894D01*
X0081640Y0132096D01*
X0080167Y0130623D01*
X0079370Y0128698D01*
X0079370Y0126615D01*
X0080167Y0124690D01*
X0081640Y0123217D01*
X0083565Y0122420D01*
X0085648Y0122420D01*
X0087573Y0123217D01*
X0089046Y0124690D01*
X0089844Y0126615D01*
X0089844Y0128227D01*
X0092821Y0131204D01*
X0093324Y0132417D01*
X0093324Y0164484D01*
X0094262Y0165423D01*
X0095024Y0167261D01*
X0095024Y0169250D01*
X0094262Y0171087D01*
X0092856Y0172494D01*
X0091018Y0173255D01*
X0089029Y0173255D01*
X0087191Y0172494D01*
X0085785Y0171087D01*
X0085024Y0169250D01*
X0085024Y0167261D01*
X0085785Y0165423D01*
X0086724Y0164484D01*
X0086724Y0134441D01*
X0085177Y0132894D01*
X0085876Y0133593D02*
X0026824Y0133593D01*
X0026824Y0134192D02*
X0086475Y0134192D01*
X0086724Y0134790D02*
X0026824Y0134790D01*
X0026824Y0135389D02*
X0086724Y0135389D01*
X0086724Y0135987D02*
X0026824Y0135987D01*
X0026824Y0136586D02*
X0086724Y0136586D01*
X0086724Y0137184D02*
X0026824Y0137184D01*
X0026824Y0137783D02*
X0086724Y0137783D01*
X0086724Y0138381D02*
X0026824Y0138381D01*
X0026824Y0138980D02*
X0086724Y0138980D01*
X0086724Y0139578D02*
X0026824Y0139578D01*
X0026824Y0140177D02*
X0086724Y0140177D01*
X0086724Y0140775D02*
X0026824Y0140775D01*
X0026824Y0141374D02*
X0086724Y0141374D01*
X0086724Y0141972D02*
X0026824Y0141972D01*
X0026824Y0142571D02*
X0086724Y0142571D01*
X0086724Y0143169D02*
X0026824Y0143169D01*
X0026824Y0143768D02*
X0086724Y0143768D01*
X0086724Y0144366D02*
X0026824Y0144366D01*
X0026824Y0144965D02*
X0086724Y0144965D01*
X0086724Y0145563D02*
X0026824Y0145563D01*
X0026824Y0146162D02*
X0086724Y0146162D01*
X0086724Y0146760D02*
X0026824Y0146760D01*
X0026824Y0147359D02*
X0086724Y0147359D01*
X0086724Y0147957D02*
X0026824Y0147957D01*
X0026824Y0148556D02*
X0086724Y0148556D01*
X0086724Y0149154D02*
X0026824Y0149154D01*
X0026824Y0149753D02*
X0086724Y0149753D01*
X0086724Y0150351D02*
X0026824Y0150351D01*
X0026824Y0150950D02*
X0086724Y0150950D01*
X0086724Y0151548D02*
X0026824Y0151548D01*
X0026824Y0152147D02*
X0086724Y0152147D01*
X0086724Y0152745D02*
X0026824Y0152745D01*
X0026824Y0153344D02*
X0086724Y0153344D01*
X0086724Y0153942D02*
X0026824Y0153942D01*
X0026824Y0154541D02*
X0086724Y0154541D01*
X0086724Y0155140D02*
X0026824Y0155140D01*
X0026824Y0155738D02*
X0086724Y0155738D01*
X0086724Y0156337D02*
X0026824Y0156337D01*
X0026824Y0156935D02*
X0086724Y0156935D01*
X0086724Y0157534D02*
X0026824Y0157534D01*
X0026824Y0158132D02*
X0086724Y0158132D01*
X0086724Y0158731D02*
X0026824Y0158731D01*
X0026824Y0159329D02*
X0086724Y0159329D01*
X0086724Y0159928D02*
X0026824Y0159928D01*
X0026824Y0160526D02*
X0086724Y0160526D01*
X0086724Y0161125D02*
X0026824Y0161125D01*
X0026824Y0161723D02*
X0086724Y0161723D01*
X0086724Y0162322D02*
X0026824Y0162322D01*
X0026824Y0162920D02*
X0086724Y0162920D01*
X0086724Y0163519D02*
X0026824Y0163519D01*
X0026824Y0164117D02*
X0086724Y0164117D01*
X0086492Y0164716D02*
X0026824Y0164716D01*
X0026824Y0165314D02*
X0085893Y0165314D01*
X0085582Y0165913D02*
X0026824Y0165913D01*
X0026824Y0166511D02*
X0085334Y0166511D01*
X0085086Y0167110D02*
X0026824Y0167110D01*
X0026824Y0167708D02*
X0085024Y0167708D01*
X0085024Y0168307D02*
X0026824Y0168307D01*
X0026824Y0168905D02*
X0085024Y0168905D01*
X0085129Y0169504D02*
X0026824Y0169504D01*
X0026824Y0170102D02*
X0085377Y0170102D01*
X0085625Y0170701D02*
X0026824Y0170701D01*
X0026824Y0171299D02*
X0085997Y0171299D01*
X0086595Y0171898D02*
X0026824Y0171898D01*
X0026824Y0172496D02*
X0087197Y0172496D01*
X0088642Y0173095D02*
X0026824Y0173095D01*
X0026824Y0173693D02*
X0416807Y0173693D01*
X0416807Y0173095D02*
X0413905Y0173095D01*
X0413518Y0173255D02*
X0411529Y0173255D01*
X0409691Y0172494D01*
X0408285Y0171087D01*
X0407524Y0169250D01*
X0407524Y0167261D01*
X0408285Y0165423D01*
X0409691Y0164016D01*
X0411529Y0163255D01*
X0413518Y0163255D01*
X0415356Y0164016D01*
X0416295Y0164955D01*
X0416807Y0164955D01*
X0416807Y0157516D01*
X0417309Y0156303D01*
X0417524Y0156088D01*
X0417524Y0154761D01*
X0418285Y0152923D01*
X0419691Y0151516D01*
X0421529Y0150755D01*
X0423518Y0150755D01*
X0425356Y0151516D01*
X0426295Y0152455D01*
X0449657Y0152455D01*
X0457224Y0144888D01*
X0457224Y0111555D01*
X0426391Y0111555D01*
X0417524Y0120422D01*
X0417524Y0121750D01*
X0416762Y0123587D01*
X0415356Y0124994D01*
X0413518Y0125755D01*
X0411529Y0125755D01*
X0409691Y0124994D01*
X0408285Y0123587D01*
X0407524Y0121750D01*
X0407524Y0119761D01*
X0408285Y0117923D01*
X0409691Y0116516D01*
X0411529Y0115755D01*
X0412857Y0115755D01*
X0422226Y0106386D01*
X0423154Y0105458D01*
X0424367Y0104955D01*
X0457224Y0104955D01*
X0457224Y0095622D01*
X0453157Y0091555D01*
X0426295Y0091555D01*
X0425356Y0092494D01*
X0423518Y0093255D01*
X0421529Y0093255D01*
X0419691Y0092494D01*
X0418285Y0091087D01*
X0417524Y0089250D01*
X0417524Y0087261D01*
X0418285Y0085423D01*
X0419691Y0084016D01*
X0421529Y0083255D01*
X0423518Y0083255D01*
X0425356Y0084016D01*
X0426295Y0084955D01*
X0455180Y0084955D01*
X0456393Y0085458D01*
X0457321Y0086386D01*
X0463321Y0092386D01*
X0463824Y0093599D01*
X0463824Y0146912D01*
X0463321Y0148124D01*
X0462393Y0149053D01*
X0452893Y0158553D01*
X0451680Y0159055D01*
X0426295Y0159055D01*
X0425356Y0159994D01*
X0423518Y0160755D01*
X0423407Y0160755D01*
X0423407Y0206550D01*
X0424546Y0207690D01*
X0425344Y0209615D01*
X0425344Y0211698D01*
X0424546Y0213623D01*
X0423073Y0215096D01*
X0421148Y0215894D01*
X0419065Y0215894D01*
X0417140Y0215096D01*
X0415667Y0213623D01*
X0414870Y0211698D01*
X0414870Y0209615D01*
X0415667Y0207690D01*
X0416807Y0206550D01*
X0416807Y0171555D01*
X0416295Y0171555D01*
X0415356Y0172494D01*
X0413518Y0173255D01*
X0415350Y0172496D02*
X0416807Y0172496D01*
X0416807Y0171898D02*
X0415952Y0171898D01*
X0416807Y0174292D02*
X0026824Y0174292D01*
X0026824Y0174890D02*
X0416807Y0174890D01*
X0416807Y0175489D02*
X0026824Y0175489D01*
X0026824Y0176087D02*
X0416807Y0176087D01*
X0416807Y0176686D02*
X0026824Y0176686D01*
X0026824Y0177284D02*
X0416807Y0177284D01*
X0416807Y0177883D02*
X0026824Y0177883D01*
X0026824Y0178481D02*
X0416807Y0178481D01*
X0416807Y0179080D02*
X0026824Y0179080D01*
X0026824Y0179678D02*
X0416807Y0179678D01*
X0416807Y0180277D02*
X0026824Y0180277D01*
X0026824Y0180876D02*
X0416807Y0180876D01*
X0416807Y0181474D02*
X0026824Y0181474D01*
X0026824Y0182073D02*
X0416807Y0182073D01*
X0416807Y0182671D02*
X0026824Y0182671D01*
X0026824Y0183270D02*
X0416807Y0183270D01*
X0416807Y0183868D02*
X0026824Y0183868D01*
X0026824Y0184467D02*
X0416807Y0184467D01*
X0416807Y0185065D02*
X0026824Y0185065D01*
X0026824Y0185664D02*
X0416807Y0185664D01*
X0416807Y0186262D02*
X0026824Y0186262D01*
X0026824Y0186861D02*
X0416807Y0186861D01*
X0416807Y0187459D02*
X0026824Y0187459D01*
X0026824Y0188058D02*
X0416807Y0188058D01*
X0416807Y0188656D02*
X0026824Y0188656D01*
X0026824Y0189255D02*
X0416807Y0189255D01*
X0416807Y0189853D02*
X0026824Y0189853D01*
X0026824Y0190452D02*
X0416807Y0190452D01*
X0416807Y0191050D02*
X0026824Y0191050D01*
X0026824Y0191649D02*
X0416807Y0191649D01*
X0416807Y0192247D02*
X0026824Y0192247D01*
X0026824Y0192846D02*
X0416807Y0192846D01*
X0416807Y0193444D02*
X0283975Y0193444D01*
X0283518Y0193255D02*
X0285356Y0194016D01*
X0286762Y0195423D01*
X0287524Y0197261D01*
X0287524Y0199250D01*
X0286762Y0201087D01*
X0285356Y0202494D01*
X0283518Y0203255D01*
X0281529Y0203255D01*
X0279691Y0202494D01*
X0278753Y0201555D01*
X0278295Y0201555D01*
X0277824Y0202026D01*
X0277824Y0211912D01*
X0277321Y0213124D01*
X0276393Y0214053D01*
X0267190Y0223255D01*
X0268518Y0223255D01*
X0270356Y0224016D01*
X0271762Y0225423D01*
X0272524Y0227261D01*
X0273285Y0225423D01*
X0274691Y0224016D01*
X0276529Y0223255D01*
X0278518Y0223255D01*
X0280356Y0224016D01*
X0281762Y0225423D01*
X0282524Y0227261D01*
X0282524Y0229250D01*
X0281762Y0231087D01*
X0280356Y0232494D01*
X0278518Y0233255D01*
X0276529Y0233255D01*
X0274691Y0232494D01*
X0273285Y0231087D01*
X0272524Y0229250D01*
X0272524Y0227261D01*
X0272524Y0229250D01*
X0271762Y0231087D01*
X0270356Y0232494D01*
X0268518Y0233255D01*
X0266529Y0233255D01*
X0264691Y0232494D01*
X0263285Y0231087D01*
X0262524Y0229250D01*
X0262524Y0227922D01*
X0262524Y0227922D01*
X0262524Y0229250D01*
X0261762Y0231087D01*
X0260356Y0232494D01*
X0258518Y0233255D01*
X0256529Y0233255D01*
X0254691Y0232494D01*
X0253285Y0231087D01*
X0252524Y0229250D01*
X0252524Y0227922D01*
X0252524Y0227922D01*
X0252524Y0229250D01*
X0251762Y0231087D01*
X0250356Y0232494D01*
X0248518Y0233255D01*
X0246529Y0233255D01*
X0244691Y0232494D01*
X0243285Y0231087D01*
X0242524Y0229250D01*
X0242524Y0227636D01*
X0242524Y0229250D01*
X0241762Y0231087D01*
X0240356Y0232494D01*
X0238518Y0233255D01*
X0236529Y0233255D01*
X0234691Y0232494D01*
X0233285Y0231087D01*
X0232524Y0229250D01*
X0232524Y0227922D01*
X0232524Y0227922D01*
X0232524Y0229250D01*
X0231762Y0231087D01*
X0230356Y0232494D01*
X0228518Y0233255D01*
X0226529Y0233255D01*
X0224691Y0232494D01*
X0223285Y0231087D01*
X0222524Y0229250D01*
X0222524Y0227261D01*
X0222524Y0229250D01*
X0221762Y0231087D01*
X0220356Y0232494D01*
X0218518Y0233255D01*
X0216529Y0233255D01*
X0214691Y0232494D01*
X0213285Y0231087D01*
X0212524Y0229250D01*
X0212524Y0227261D01*
X0212524Y0229250D01*
X0211762Y0231087D01*
X0210356Y0232494D01*
X0208518Y0233255D01*
X0206529Y0233255D01*
X0204691Y0232494D01*
X0203285Y0231087D01*
X0202524Y0229250D01*
X0202524Y0227636D01*
X0202224Y0226912D01*
X0202224Y0215122D01*
X0193154Y0206053D01*
X0192226Y0205124D01*
X0191724Y0203912D01*
X0191724Y0202026D01*
X0191253Y0201555D01*
X0190795Y0201555D01*
X0189856Y0202494D01*
X0188018Y0203255D01*
X0187190Y0203255D01*
X0195321Y0211386D01*
X0195824Y0212599D01*
X0195824Y0224484D01*
X0196762Y0225423D01*
X0197524Y0227261D01*
X0197524Y0229250D01*
X0196762Y0231087D01*
X0195356Y0232494D01*
X0193518Y0233255D01*
X0191529Y0233255D01*
X0189691Y0232494D01*
X0188285Y0231087D01*
X0187524Y0229250D01*
X0187524Y0227261D01*
X0187524Y0229250D01*
X0186762Y0231087D01*
X0185356Y0232494D01*
X0183518Y0233255D01*
X0181529Y0233255D01*
X0179691Y0232494D01*
X0178285Y0231087D01*
X0177524Y0229250D01*
X0177524Y0227261D01*
X0177524Y0229250D01*
X0176762Y0231087D01*
X0175356Y0232494D01*
X0173518Y0233255D01*
X0171529Y0233255D01*
X0169691Y0232494D01*
X0168285Y0231087D01*
X0167524Y0229250D01*
X0167524Y0227922D01*
X0167524Y0227922D01*
X0167524Y0229250D01*
X0166762Y0231087D01*
X0165356Y0232494D01*
X0163518Y0233255D01*
X0161529Y0233255D01*
X0159691Y0232494D01*
X0158285Y0231087D01*
X0157524Y0229250D01*
X0157524Y0227922D01*
X0157524Y0227922D01*
X0157524Y0229250D01*
X0156762Y0231087D01*
X0155356Y0232494D01*
X0153518Y0233255D01*
X0151529Y0233255D01*
X0149691Y0232494D01*
X0148285Y0231087D01*
X0147524Y0229250D01*
X0147524Y0227922D01*
X0147524Y0227922D01*
X0147524Y0229250D01*
X0146762Y0231087D01*
X0145356Y0232494D01*
X0143518Y0233255D01*
X0141529Y0233255D01*
X0139691Y0232494D01*
X0138285Y0231087D01*
X0137524Y0229250D01*
X0137524Y0227922D01*
X0130657Y0221055D01*
X0109458Y0221055D01*
X0108245Y0220553D01*
X0107316Y0219624D01*
X0090947Y0203255D01*
X0089029Y0203255D01*
X0087191Y0202494D01*
X0086253Y0201555D01*
X0085795Y0201555D01*
X0084856Y0202494D01*
X0083018Y0203255D01*
X0081029Y0203255D01*
X0079191Y0202494D01*
X0077785Y0201087D01*
X0077024Y0199250D01*
X0077024Y0197261D01*
X0077785Y0195423D01*
X0079191Y0194016D01*
X0081029Y0193255D01*
X0083018Y0193255D01*
X0084856Y0194016D01*
X0085795Y0194955D01*
X0086253Y0194955D01*
X0087191Y0194016D01*
X0089029Y0193255D01*
X0091018Y0193255D01*
X0092856Y0194016D01*
X0094262Y0195423D01*
X0094774Y0196657D01*
X0095285Y0195423D01*
X0096691Y0194016D01*
X0098529Y0193255D01*
X0100518Y0193255D01*
X0102356Y0194016D01*
X0103295Y0194955D01*
X0103753Y0194955D01*
X0104691Y0194016D01*
X0106529Y0193255D01*
X0108518Y0193255D01*
X0110356Y0194016D01*
X0111762Y0195423D01*
X0112274Y0196657D01*
X0112785Y0195423D01*
X0114191Y0194016D01*
X0116029Y0193255D01*
X0118018Y0193255D01*
X0119856Y0194016D01*
X0120795Y0194955D01*
X0121253Y0194955D01*
X0122191Y0194016D01*
X0124029Y0193255D01*
X0126018Y0193255D01*
X0127856Y0194016D01*
X0129262Y0195423D01*
X0129774Y0196657D01*
X0130285Y0195423D01*
X0131691Y0194016D01*
X0133529Y0193255D01*
X0135518Y0193255D01*
X0137356Y0194016D01*
X0138295Y0194955D01*
X0138753Y0194955D01*
X0139691Y0194016D01*
X0141529Y0193255D01*
X0143518Y0193255D01*
X0145356Y0194016D01*
X0146762Y0195423D01*
X0147274Y0196657D01*
X0147785Y0195423D01*
X0149191Y0194016D01*
X0151029Y0193255D01*
X0153018Y0193255D01*
X0154856Y0194016D01*
X0155795Y0194955D01*
X0156253Y0194955D01*
X0157191Y0194016D01*
X0159029Y0193255D01*
X0161018Y0193255D01*
X0162856Y0194016D01*
X0164262Y0195423D01*
X0164774Y0196657D01*
X0165285Y0195423D01*
X0166691Y0194016D01*
X0168529Y0193255D01*
X0170518Y0193255D01*
X0172356Y0194016D01*
X0173295Y0194955D01*
X0173753Y0194955D01*
X0174691Y0194016D01*
X0176529Y0193255D01*
X0178518Y0193255D01*
X0180356Y0194016D01*
X0181762Y0195423D01*
X0182274Y0196657D01*
X0182785Y0195423D01*
X0184191Y0194016D01*
X0186029Y0193255D01*
X0188018Y0193255D01*
X0189856Y0194016D01*
X0190795Y0194955D01*
X0191253Y0194955D01*
X0192191Y0194016D01*
X0194029Y0193255D01*
X0196018Y0193255D01*
X0197856Y0194016D01*
X0199262Y0195423D01*
X0199774Y0196657D01*
X0200285Y0195423D01*
X0201691Y0194016D01*
X0203529Y0193255D01*
X0205518Y0193255D01*
X0207356Y0194016D01*
X0208295Y0194955D01*
X0208753Y0194955D01*
X0209691Y0194016D01*
X0211529Y0193255D01*
X0213518Y0193255D01*
X0215356Y0194016D01*
X0216762Y0195423D01*
X0217274Y0196657D01*
X0217785Y0195423D01*
X0219191Y0194016D01*
X0221029Y0193255D01*
X0223018Y0193255D01*
X0224856Y0194016D01*
X0225795Y0194955D01*
X0226253Y0194955D01*
X0227191Y0194016D01*
X0229029Y0193255D01*
X0231018Y0193255D01*
X0232856Y0194016D01*
X0234262Y0195423D01*
X0234774Y0196657D01*
X0235285Y0195423D01*
X0236691Y0194016D01*
X0238529Y0193255D01*
X0240518Y0193255D01*
X0242356Y0194016D01*
X0243295Y0194955D01*
X0243753Y0194955D01*
X0244691Y0194016D01*
X0246529Y0193255D01*
X0248518Y0193255D01*
X0250356Y0194016D01*
X0251762Y0195423D01*
X0252274Y0196657D01*
X0252785Y0195423D01*
X0254191Y0194016D01*
X0256029Y0193255D01*
X0258018Y0193255D01*
X0259856Y0194016D01*
X0260795Y0194955D01*
X0261253Y0194955D01*
X0262191Y0194016D01*
X0264029Y0193255D01*
X0266018Y0193255D01*
X0267856Y0194016D01*
X0269262Y0195423D01*
X0269774Y0196657D01*
X0270285Y0195423D01*
X0271691Y0194016D01*
X0273529Y0193255D01*
X0275518Y0193255D01*
X0277356Y0194016D01*
X0278295Y0194955D01*
X0278753Y0194955D01*
X0279691Y0194016D01*
X0281529Y0193255D01*
X0283518Y0193255D01*
X0285382Y0194043D02*
X0416807Y0194043D01*
X0416807Y0194641D02*
X0285981Y0194641D01*
X0286579Y0195240D02*
X0416807Y0195240D01*
X0416807Y0195838D02*
X0286934Y0195838D01*
X0287182Y0196437D02*
X0416807Y0196437D01*
X0416807Y0197035D02*
X0287430Y0197035D01*
X0287524Y0197634D02*
X0416807Y0197634D01*
X0416807Y0198232D02*
X0287524Y0198232D01*
X0287524Y0198831D02*
X0416807Y0198831D01*
X0416807Y0199429D02*
X0287449Y0199429D01*
X0287201Y0200028D02*
X0416807Y0200028D01*
X0416807Y0200626D02*
X0286953Y0200626D01*
X0286625Y0201225D02*
X0416807Y0201225D01*
X0416807Y0201823D02*
X0286026Y0201823D01*
X0285428Y0202422D02*
X0416807Y0202422D01*
X0416807Y0203020D02*
X0284085Y0203020D01*
X0280962Y0203020D02*
X0277824Y0203020D01*
X0277824Y0202422D02*
X0279619Y0202422D01*
X0279021Y0201823D02*
X0278026Y0201823D01*
X0277824Y0203619D02*
X0416807Y0203619D01*
X0416807Y0204217D02*
X0277824Y0204217D01*
X0277824Y0204816D02*
X0416807Y0204816D01*
X0416807Y0205414D02*
X0277824Y0205414D01*
X0277824Y0206013D02*
X0416807Y0206013D01*
X0416746Y0206611D02*
X0277824Y0206611D01*
X0277824Y0207210D02*
X0416147Y0207210D01*
X0415618Y0207809D02*
X0277824Y0207809D01*
X0277824Y0208407D02*
X0415370Y0208407D01*
X0415122Y0209006D02*
X0277824Y0209006D01*
X0277824Y0209604D02*
X0414874Y0209604D01*
X0414870Y0210203D02*
X0277824Y0210203D01*
X0277824Y0210801D02*
X0414870Y0210801D01*
X0414870Y0211400D02*
X0277824Y0211400D01*
X0277788Y0211998D02*
X0414994Y0211998D01*
X0415242Y0212597D02*
X0277540Y0212597D01*
X0277251Y0213195D02*
X0415490Y0213195D01*
X0415837Y0213794D02*
X0276652Y0213794D01*
X0276053Y0214392D02*
X0416436Y0214392D01*
X0417034Y0214991D02*
X0275455Y0214991D01*
X0274856Y0215589D02*
X0418330Y0215589D01*
X0421884Y0215589D02*
X0468224Y0215589D01*
X0468224Y0214991D02*
X0423179Y0214991D01*
X0423777Y0214392D02*
X0468224Y0214392D01*
X0468224Y0213794D02*
X0424376Y0213794D01*
X0424724Y0213195D02*
X0468224Y0213195D01*
X0468224Y0212597D02*
X0424972Y0212597D01*
X0425220Y0211998D02*
X0468224Y0211998D01*
X0468224Y0211400D02*
X0425344Y0211400D01*
X0425344Y0210801D02*
X0468224Y0210801D01*
X0468224Y0210203D02*
X0425344Y0210203D01*
X0425339Y0209604D02*
X0468224Y0209604D01*
X0468224Y0209006D02*
X0425091Y0209006D01*
X0424843Y0208407D02*
X0468224Y0208407D01*
X0468224Y0207809D02*
X0424595Y0207809D01*
X0424066Y0207210D02*
X0468224Y0207210D01*
X0468224Y0206611D02*
X0423468Y0206611D01*
X0423407Y0206013D02*
X0468224Y0206013D01*
X0468224Y0205414D02*
X0423407Y0205414D01*
X0423407Y0204816D02*
X0468224Y0204816D01*
X0468224Y0204217D02*
X0423407Y0204217D01*
X0423407Y0203619D02*
X0468224Y0203619D01*
X0468224Y0203020D02*
X0423407Y0203020D01*
X0423407Y0202422D02*
X0468224Y0202422D01*
X0468224Y0201823D02*
X0423407Y0201823D01*
X0423407Y0201225D02*
X0468224Y0201225D01*
X0468224Y0200626D02*
X0423407Y0200626D01*
X0423407Y0200028D02*
X0468224Y0200028D01*
X0468224Y0199429D02*
X0423407Y0199429D01*
X0423407Y0198831D02*
X0468224Y0198831D01*
X0468224Y0198232D02*
X0423407Y0198232D01*
X0423407Y0197634D02*
X0468224Y0197634D01*
X0468224Y0197035D02*
X0423407Y0197035D01*
X0423407Y0196437D02*
X0468224Y0196437D01*
X0468224Y0195838D02*
X0423407Y0195838D01*
X0423407Y0195240D02*
X0468224Y0195240D01*
X0468224Y0194641D02*
X0423407Y0194641D01*
X0423407Y0194043D02*
X0468224Y0194043D01*
X0468224Y0193444D02*
X0423407Y0193444D01*
X0423407Y0192846D02*
X0468224Y0192846D01*
X0468224Y0192247D02*
X0423407Y0192247D01*
X0423407Y0191649D02*
X0468224Y0191649D01*
X0468224Y0191050D02*
X0423407Y0191050D01*
X0423407Y0190452D02*
X0468224Y0190452D01*
X0468224Y0189853D02*
X0423407Y0189853D01*
X0423407Y0189255D02*
X0468224Y0189255D01*
X0468224Y0188656D02*
X0423407Y0188656D01*
X0423407Y0188058D02*
X0468224Y0188058D01*
X0468224Y0187459D02*
X0423407Y0187459D01*
X0423407Y0186861D02*
X0468224Y0186861D01*
X0468224Y0186262D02*
X0423407Y0186262D01*
X0423407Y0185664D02*
X0468224Y0185664D01*
X0468224Y0185065D02*
X0423407Y0185065D01*
X0423407Y0184467D02*
X0468224Y0184467D01*
X0468224Y0183868D02*
X0423407Y0183868D01*
X0423407Y0183270D02*
X0468224Y0183270D01*
X0468224Y0182671D02*
X0423407Y0182671D01*
X0423407Y0182073D02*
X0468224Y0182073D01*
X0468224Y0181474D02*
X0423407Y0181474D01*
X0423407Y0180876D02*
X0468224Y0180876D01*
X0468224Y0180277D02*
X0423407Y0180277D01*
X0423407Y0179678D02*
X0468224Y0179678D01*
X0468224Y0179080D02*
X0423407Y0179080D01*
X0423407Y0178481D02*
X0468224Y0178481D01*
X0468224Y0177883D02*
X0423407Y0177883D01*
X0423407Y0177284D02*
X0468224Y0177284D01*
X0468224Y0176686D02*
X0423407Y0176686D01*
X0423407Y0176087D02*
X0468224Y0176087D01*
X0468224Y0175489D02*
X0423407Y0175489D01*
X0423407Y0174890D02*
X0468224Y0174890D01*
X0468224Y0174292D02*
X0423407Y0174292D01*
X0423407Y0173693D02*
X0468224Y0173693D01*
X0468224Y0173095D02*
X0423407Y0173095D01*
X0423407Y0172496D02*
X0468224Y0172496D01*
X0468224Y0171898D02*
X0423407Y0171898D01*
X0423407Y0171299D02*
X0468224Y0171299D01*
X0468224Y0170701D02*
X0423407Y0170701D01*
X0423407Y0170102D02*
X0468224Y0170102D01*
X0468224Y0169504D02*
X0423407Y0169504D01*
X0423407Y0168905D02*
X0468224Y0168905D01*
X0468224Y0168307D02*
X0423407Y0168307D01*
X0423407Y0167708D02*
X0468224Y0167708D01*
X0468224Y0167110D02*
X0423407Y0167110D01*
X0423407Y0166511D02*
X0468224Y0166511D01*
X0468224Y0165913D02*
X0423407Y0165913D01*
X0423407Y0165314D02*
X0468224Y0165314D01*
X0468224Y0164716D02*
X0423407Y0164716D01*
X0423407Y0164117D02*
X0468224Y0164117D01*
X0468224Y0163519D02*
X0423407Y0163519D01*
X0423407Y0162920D02*
X0468224Y0162920D01*
X0468224Y0162322D02*
X0423407Y0162322D01*
X0423407Y0161723D02*
X0468224Y0161723D01*
X0468224Y0161125D02*
X0423407Y0161125D01*
X0424071Y0160526D02*
X0468224Y0160526D01*
X0468224Y0159928D02*
X0425422Y0159928D01*
X0426021Y0159329D02*
X0468224Y0159329D01*
X0468224Y0158731D02*
X0452463Y0158731D01*
X0453314Y0158132D02*
X0468224Y0158132D01*
X0468224Y0157534D02*
X0453912Y0157534D01*
X0454511Y0156935D02*
X0468224Y0156935D01*
X0468224Y0156337D02*
X0455109Y0156337D01*
X0455708Y0155738D02*
X0468224Y0155738D01*
X0468224Y0155140D02*
X0456306Y0155140D01*
X0456905Y0154541D02*
X0468224Y0154541D01*
X0468224Y0153942D02*
X0457503Y0153942D01*
X0458102Y0153344D02*
X0468224Y0153344D01*
X0468224Y0152745D02*
X0458700Y0152745D01*
X0459299Y0152147D02*
X0468224Y0152147D01*
X0468224Y0151548D02*
X0459897Y0151548D01*
X0460496Y0150950D02*
X0468224Y0150950D01*
X0468224Y0150351D02*
X0461094Y0150351D01*
X0461693Y0149753D02*
X0468224Y0149753D01*
X0468224Y0149154D02*
X0462291Y0149154D01*
X0462890Y0148556D02*
X0468224Y0148556D01*
X0468224Y0147957D02*
X0463390Y0147957D01*
X0463638Y0147359D02*
X0468224Y0147359D01*
X0468224Y0146760D02*
X0463824Y0146760D01*
X0463824Y0146162D02*
X0468224Y0146162D01*
X0468224Y0145563D02*
X0463824Y0145563D01*
X0463824Y0144965D02*
X0468224Y0144965D01*
X0468224Y0144366D02*
X0463824Y0144366D01*
X0463824Y0143768D02*
X0468224Y0143768D01*
X0468224Y0143169D02*
X0463824Y0143169D01*
X0463824Y0142571D02*
X0468224Y0142571D01*
X0468224Y0141972D02*
X0463824Y0141972D01*
X0463824Y0141374D02*
X0468224Y0141374D01*
X0468224Y0140775D02*
X0463824Y0140775D01*
X0463824Y0140177D02*
X0468224Y0140177D01*
X0468224Y0139578D02*
X0463824Y0139578D01*
X0463824Y0138980D02*
X0468224Y0138980D01*
X0468224Y0138381D02*
X0463824Y0138381D01*
X0463824Y0137783D02*
X0468224Y0137783D01*
X0468224Y0137184D02*
X0463824Y0137184D01*
X0463824Y0136586D02*
X0468224Y0136586D01*
X0468224Y0135987D02*
X0463824Y0135987D01*
X0463824Y0135389D02*
X0468224Y0135389D01*
X0468224Y0134790D02*
X0463824Y0134790D01*
X0463824Y0134192D02*
X0468224Y0134192D01*
X0468224Y0133593D02*
X0463824Y0133593D01*
X0463824Y0132995D02*
X0468224Y0132995D01*
X0468224Y0132396D02*
X0463824Y0132396D01*
X0463824Y0131798D02*
X0468224Y0131798D01*
X0468224Y0131199D02*
X0463824Y0131199D01*
X0463824Y0130601D02*
X0468224Y0130601D01*
X0468224Y0130002D02*
X0463824Y0130002D01*
X0463824Y0129404D02*
X0468224Y0129404D01*
X0468224Y0128805D02*
X0463824Y0128805D01*
X0463824Y0128207D02*
X0468224Y0128207D01*
X0468224Y0127608D02*
X0463824Y0127608D01*
X0463824Y0127009D02*
X0468224Y0127009D01*
X0468224Y0126411D02*
X0463824Y0126411D01*
X0463824Y0125812D02*
X0468224Y0125812D01*
X0468224Y0125214D02*
X0463824Y0125214D01*
X0463824Y0124615D02*
X0468224Y0124615D01*
X0468224Y0124017D02*
X0463824Y0124017D01*
X0463824Y0123418D02*
X0468224Y0123418D01*
X0468224Y0122820D02*
X0463824Y0122820D01*
X0463824Y0122221D02*
X0468224Y0122221D01*
X0468224Y0121623D02*
X0463824Y0121623D01*
X0463824Y0121024D02*
X0468224Y0121024D01*
X0468224Y0120426D02*
X0463824Y0120426D01*
X0463824Y0119827D02*
X0468224Y0119827D01*
X0468224Y0119229D02*
X0463824Y0119229D01*
X0463824Y0118630D02*
X0468224Y0118630D01*
X0468224Y0118032D02*
X0463824Y0118032D01*
X0463824Y0117433D02*
X0468224Y0117433D01*
X0468224Y0116835D02*
X0463824Y0116835D01*
X0463824Y0116236D02*
X0468224Y0116236D01*
X0468224Y0115638D02*
X0463824Y0115638D01*
X0463824Y0115039D02*
X0468224Y0115039D01*
X0468224Y0114441D02*
X0463824Y0114441D01*
X0463824Y0113842D02*
X0468224Y0113842D01*
X0468224Y0113244D02*
X0463824Y0113244D01*
X0463824Y0112645D02*
X0468224Y0112645D01*
X0468224Y0112047D02*
X0463824Y0112047D01*
X0463824Y0111448D02*
X0468224Y0111448D01*
X0468224Y0110850D02*
X0463824Y0110850D01*
X0463824Y0110251D02*
X0468224Y0110251D01*
X0468224Y0109653D02*
X0463824Y0109653D01*
X0463824Y0109054D02*
X0468224Y0109054D01*
X0468224Y0108456D02*
X0463824Y0108456D01*
X0463824Y0107857D02*
X0468224Y0107857D01*
X0468224Y0107259D02*
X0463824Y0107259D01*
X0463824Y0106660D02*
X0468224Y0106660D01*
X0468224Y0106062D02*
X0463824Y0106062D01*
X0463824Y0105463D02*
X0468224Y0105463D01*
X0468224Y0104865D02*
X0463824Y0104865D01*
X0463824Y0104266D02*
X0468224Y0104266D01*
X0468224Y0103668D02*
X0463824Y0103668D01*
X0463824Y0103069D02*
X0468224Y0103069D01*
X0468224Y0102471D02*
X0463824Y0102471D01*
X0463824Y0101872D02*
X0468224Y0101872D01*
X0468224Y0101273D02*
X0463824Y0101273D01*
X0463824Y0100675D02*
X0468224Y0100675D01*
X0468224Y0100076D02*
X0463824Y0100076D01*
X0463824Y0099478D02*
X0468224Y0099478D01*
X0468224Y0098879D02*
X0463824Y0098879D01*
X0463824Y0098281D02*
X0468224Y0098281D01*
X0468224Y0097682D02*
X0463824Y0097682D01*
X0463824Y0097084D02*
X0468224Y0097084D01*
X0468224Y0096485D02*
X0463824Y0096485D01*
X0463824Y0095887D02*
X0468224Y0095887D01*
X0468224Y0095288D02*
X0463824Y0095288D01*
X0463824Y0094690D02*
X0468224Y0094690D01*
X0468224Y0094091D02*
X0463824Y0094091D01*
X0463780Y0093493D02*
X0468224Y0093493D01*
X0468224Y0092894D02*
X0463532Y0092894D01*
X0463231Y0092296D02*
X0468224Y0092296D01*
X0468224Y0091697D02*
X0462633Y0091697D01*
X0462034Y0091099D02*
X0468224Y0091099D01*
X0468224Y0090500D02*
X0461436Y0090500D01*
X0460837Y0089902D02*
X0468224Y0089902D01*
X0468224Y0089303D02*
X0460239Y0089303D01*
X0459640Y0088705D02*
X0468224Y0088705D01*
X0468224Y0088106D02*
X0459042Y0088106D01*
X0458443Y0087508D02*
X0468224Y0087508D01*
X0468224Y0086909D02*
X0457845Y0086909D01*
X0457246Y0086311D02*
X0468224Y0086311D01*
X0468224Y0085712D02*
X0456648Y0085712D01*
X0455563Y0085114D02*
X0468224Y0085114D01*
X0468224Y0084515D02*
X0425855Y0084515D01*
X0425115Y0083917D02*
X0468224Y0083917D01*
X0468224Y0083318D02*
X0449284Y0083318D01*
X0448664Y0083575D02*
X0446580Y0083575D01*
X0444656Y0082778D01*
X0443182Y0081305D01*
X0442385Y0079380D01*
X0442385Y0077768D01*
X0426233Y0061616D01*
X0425356Y0062494D01*
X0423518Y0063255D01*
X0421529Y0063255D01*
X0419691Y0062494D01*
X0418753Y0061555D01*
X0404939Y0061555D01*
X0404933Y0061561D01*
X0403499Y0062155D01*
X0396748Y0062155D01*
X0395314Y0061561D01*
X0394217Y0060464D01*
X0393624Y0059031D01*
X0393624Y0057479D01*
X0394217Y0056046D01*
X0395314Y0054949D01*
X0396748Y0054355D01*
X0403499Y0054355D01*
X0404933Y0054949D01*
X0404939Y0054955D01*
X0418753Y0054955D01*
X0419691Y0054016D01*
X0421529Y0053255D01*
X0423518Y0053255D01*
X0425356Y0054016D01*
X0426295Y0054955D01*
X0428195Y0054955D01*
X0429408Y0055458D01*
X0430337Y0056386D01*
X0447052Y0073101D01*
X0448664Y0073101D01*
X0450589Y0073898D01*
X0452062Y0075372D01*
X0452859Y0077296D01*
X0452859Y0079380D01*
X0452062Y0081305D01*
X0450589Y0082778D01*
X0448664Y0083575D01*
X0450647Y0082720D02*
X0468224Y0082720D01*
X0468224Y0082121D02*
X0451245Y0082121D01*
X0451844Y0081523D02*
X0468224Y0081523D01*
X0468224Y0080924D02*
X0452219Y0080924D01*
X0452467Y0080326D02*
X0468224Y0080326D01*
X0468224Y0079727D02*
X0452715Y0079727D01*
X0452859Y0079129D02*
X0468224Y0079129D01*
X0468224Y0078530D02*
X0452859Y0078530D01*
X0452859Y0077932D02*
X0468224Y0077932D01*
X0468224Y0077333D02*
X0452859Y0077333D01*
X0452626Y0076735D02*
X0468224Y0076735D01*
X0468224Y0076136D02*
X0452378Y0076136D01*
X0452130Y0075538D02*
X0468224Y0075538D01*
X0468224Y0074939D02*
X0451629Y0074939D01*
X0451031Y0074340D02*
X0468224Y0074340D01*
X0468224Y0073742D02*
X0450211Y0073742D01*
X0448766Y0073143D02*
X0468224Y0073143D01*
X0468224Y0072545D02*
X0446496Y0072545D01*
X0445897Y0071946D02*
X0468224Y0071946D01*
X0468224Y0071348D02*
X0445299Y0071348D01*
X0444700Y0070749D02*
X0468224Y0070749D01*
X0468224Y0070151D02*
X0444102Y0070151D01*
X0443503Y0069552D02*
X0468224Y0069552D01*
X0468224Y0068954D02*
X0442905Y0068954D01*
X0442306Y0068355D02*
X0468224Y0068355D01*
X0468224Y0067757D02*
X0441708Y0067757D01*
X0441109Y0067158D02*
X0468224Y0067158D01*
X0468224Y0066560D02*
X0440511Y0066560D01*
X0439912Y0065961D02*
X0468224Y0065961D01*
X0468224Y0065363D02*
X0439314Y0065363D01*
X0438715Y0064764D02*
X0468224Y0064764D01*
X0468224Y0064166D02*
X0438117Y0064166D01*
X0437518Y0063567D02*
X0468224Y0063567D01*
X0468224Y0062969D02*
X0436920Y0062969D01*
X0436321Y0062370D02*
X0468224Y0062370D01*
X0468224Y0061772D02*
X0435723Y0061772D01*
X0435124Y0061173D02*
X0468224Y0061173D01*
X0468224Y0060575D02*
X0434525Y0060575D01*
X0433927Y0059976D02*
X0468224Y0059976D01*
X0468224Y0059378D02*
X0433328Y0059378D01*
X0432730Y0058779D02*
X0468224Y0058779D01*
X0468224Y0058181D02*
X0432131Y0058181D01*
X0431533Y0057582D02*
X0468224Y0057582D01*
X0468224Y0056984D02*
X0430934Y0056984D01*
X0430336Y0056385D02*
X0468224Y0056385D01*
X0468224Y0055787D02*
X0429737Y0055787D01*
X0428758Y0055188D02*
X0468224Y0055188D01*
X0468224Y0054590D02*
X0425929Y0054590D01*
X0425295Y0053991D02*
X0468224Y0053991D01*
X0468224Y0053393D02*
X0423850Y0053393D01*
X0421197Y0053393D02*
X0310824Y0053393D01*
X0310824Y0053991D02*
X0419752Y0053991D01*
X0419118Y0054590D02*
X0404066Y0054590D01*
X0396182Y0054590D02*
X0310824Y0054590D01*
X0310824Y0055188D02*
X0395075Y0055188D01*
X0394477Y0055787D02*
X0310824Y0055787D01*
X0310824Y0056385D02*
X0394077Y0056385D01*
X0393829Y0056984D02*
X0310824Y0056984D01*
X0310824Y0057582D02*
X0393624Y0057582D01*
X0393624Y0058181D02*
X0310824Y0058181D01*
X0310824Y0058779D02*
X0393624Y0058779D01*
X0393767Y0059378D02*
X0310824Y0059378D01*
X0310824Y0059976D02*
X0335995Y0059976D01*
X0336529Y0059755D02*
X0334691Y0060516D01*
X0333285Y0061923D01*
X0332524Y0063761D01*
X0332524Y0065750D01*
X0333285Y0067587D01*
X0334691Y0068994D01*
X0335926Y0069505D01*
X0334691Y0070016D01*
X0333285Y0071423D01*
X0332524Y0073261D01*
X0332524Y0075250D01*
X0333285Y0077087D01*
X0334691Y0078494D01*
X0335322Y0078755D01*
X0334691Y0079016D01*
X0333285Y0080423D01*
X0332524Y0082261D01*
X0332524Y0084250D01*
X0333285Y0086087D01*
X0334691Y0087494D01*
X0334718Y0087505D01*
X0334691Y0087516D01*
X0333285Y0088923D01*
X0332524Y0090761D01*
X0332524Y0092750D01*
X0333285Y0094587D01*
X0334224Y0095526D01*
X0334224Y0149412D01*
X0334726Y0150624D01*
X0354226Y0170124D01*
X0355154Y0171053D01*
X0356367Y0171555D01*
X0360108Y0171555D01*
X0360114Y0171561D01*
X0361548Y0172155D01*
X0368299Y0172155D01*
X0369733Y0171561D01*
X0370830Y0170464D01*
X0371424Y0169031D01*
X0371424Y0167479D01*
X0370830Y0166046D01*
X0369733Y0164949D01*
X0368299Y0164355D01*
X0361548Y0164355D01*
X0360114Y0164949D01*
X0360108Y0164955D01*
X0358391Y0164955D01*
X0340824Y0147388D01*
X0340824Y0095526D01*
X0341762Y0094587D01*
X0342524Y0092750D01*
X0342524Y0090761D01*
X0341762Y0088923D01*
X0340356Y0087516D01*
X0340329Y0087505D01*
X0340356Y0087494D01*
X0341295Y0086555D01*
X0344157Y0086555D01*
X0349224Y0091622D01*
X0349224Y0128412D01*
X0349726Y0129624D01*
X0350654Y0130553D01*
X0358654Y0138553D01*
X0359867Y0139055D01*
X0360108Y0139055D01*
X0360114Y0139061D01*
X0361548Y0139655D01*
X0368299Y0139655D01*
X0369733Y0139061D01*
X0370830Y0137964D01*
X0371424Y0136531D01*
X0371424Y0134979D01*
X0370830Y0133546D01*
X0369733Y0132449D01*
X0368299Y0131855D01*
X0361548Y0131855D01*
X0361366Y0131930D01*
X0355824Y0126388D01*
X0355824Y0089599D01*
X0355321Y0088386D01*
X0348321Y0081386D01*
X0347393Y0080458D01*
X0346180Y0079955D01*
X0341295Y0079955D01*
X0340356Y0079016D01*
X0339725Y0078755D01*
X0340356Y0078494D01*
X0341295Y0077555D01*
X0360008Y0077555D01*
X0359017Y0078546D01*
X0358424Y0079979D01*
X0358424Y0081531D01*
X0359017Y0082964D01*
X0360114Y0084061D01*
X0361548Y0084655D01*
X0368299Y0084655D01*
X0369733Y0084061D01*
X0370830Y0082964D01*
X0371424Y0081531D01*
X0371424Y0079979D01*
X0370830Y0078546D01*
X0369839Y0077555D01*
X0372157Y0077555D01*
X0376224Y0081622D01*
X0376224Y0087388D01*
X0366757Y0096855D01*
X0361548Y0096855D01*
X0360114Y0097449D01*
X0359017Y0098546D01*
X0358424Y0099979D01*
X0358424Y0101531D01*
X0359017Y0102964D01*
X0360114Y0104061D01*
X0361548Y0104655D01*
X0368299Y0104655D01*
X0369733Y0104061D01*
X0370830Y0102964D01*
X0371424Y0101531D01*
X0371424Y0101522D01*
X0381393Y0091553D01*
X0382321Y0090624D01*
X0382824Y0089412D01*
X0382824Y0079599D01*
X0382321Y0078386D01*
X0375393Y0071458D01*
X0374180Y0070955D01*
X0370339Y0070955D01*
X0370830Y0070464D01*
X0371424Y0069031D01*
X0371424Y0067479D01*
X0370830Y0066046D01*
X0369733Y0064949D01*
X0368299Y0064355D01*
X0368291Y0064355D01*
X0365893Y0061958D01*
X0364680Y0061455D01*
X0341295Y0061455D01*
X0340356Y0060516D01*
X0338518Y0059755D01*
X0336529Y0059755D01*
X0334633Y0060575D02*
X0310824Y0060575D01*
X0311013Y0061173D02*
X0334034Y0061173D01*
X0333436Y0061772D02*
X0311611Y0061772D01*
X0311948Y0062370D02*
X0333099Y0062370D01*
X0332852Y0062969D02*
X0312196Y0062969D01*
X0312444Y0063567D02*
X0332604Y0063567D01*
X0332524Y0064166D02*
X0312524Y0064166D01*
X0312524Y0064764D02*
X0332524Y0064764D01*
X0332524Y0065363D02*
X0312524Y0065363D01*
X0312436Y0065961D02*
X0332611Y0065961D01*
X0332859Y0066560D02*
X0312188Y0066560D01*
X0311940Y0067158D02*
X0333107Y0067158D01*
X0333454Y0067757D02*
X0311593Y0067757D01*
X0310994Y0068355D02*
X0334053Y0068355D01*
X0334651Y0068954D02*
X0310396Y0068954D01*
X0310490Y0070151D02*
X0334557Y0070151D01*
X0333958Y0070749D02*
X0311089Y0070749D01*
X0311688Y0071348D02*
X0333360Y0071348D01*
X0333068Y0071946D02*
X0311979Y0071946D01*
X0312227Y0072545D02*
X0332820Y0072545D01*
X0332572Y0073143D02*
X0312475Y0073143D01*
X0312524Y0073742D02*
X0332524Y0073742D01*
X0332524Y0074340D02*
X0312524Y0074340D01*
X0312524Y0074939D02*
X0332524Y0074939D01*
X0332643Y0075538D02*
X0312404Y0075538D01*
X0312156Y0076136D02*
X0332891Y0076136D01*
X0333139Y0076735D02*
X0311909Y0076735D01*
X0311517Y0077333D02*
X0333530Y0077333D01*
X0334129Y0077932D02*
X0310918Y0077932D01*
X0310269Y0078530D02*
X0334779Y0078530D01*
X0334579Y0079129D02*
X0310468Y0079129D01*
X0311067Y0079727D02*
X0333981Y0079727D01*
X0333382Y0080326D02*
X0311665Y0080326D01*
X0311970Y0080924D02*
X0333077Y0080924D01*
X0332829Y0081523D02*
X0312218Y0081523D01*
X0312466Y0082121D02*
X0332581Y0082121D01*
X0332524Y0082720D02*
X0312524Y0082720D01*
X0312524Y0083318D02*
X0332524Y0083318D01*
X0332524Y0083917D02*
X0312524Y0083917D01*
X0312414Y0084515D02*
X0332634Y0084515D01*
X0332882Y0085114D02*
X0312166Y0085114D01*
X0311918Y0085712D02*
X0333129Y0085712D01*
X0333508Y0086311D02*
X0311539Y0086311D01*
X0310941Y0086909D02*
X0334107Y0086909D01*
X0334712Y0087508D02*
X0310335Y0087508D01*
X0310946Y0088106D02*
X0334101Y0088106D01*
X0333503Y0088705D02*
X0311544Y0088705D01*
X0311920Y0089303D02*
X0333127Y0089303D01*
X0332879Y0089902D02*
X0312168Y0089902D01*
X0312416Y0090500D02*
X0332631Y0090500D01*
X0332524Y0091099D02*
X0312524Y0091099D01*
X0312524Y0091697D02*
X0332524Y0091697D01*
X0332524Y0092296D02*
X0312524Y0092296D01*
X0312464Y0092894D02*
X0332584Y0092894D01*
X0332831Y0093493D02*
X0312216Y0093493D01*
X0311968Y0094091D02*
X0333079Y0094091D01*
X0333387Y0094690D02*
X0311660Y0094690D01*
X0311061Y0095288D02*
X0333986Y0095288D01*
X0334224Y0095887D02*
X0310463Y0095887D01*
X0309169Y0096485D02*
X0334224Y0096485D01*
X0334224Y0097084D02*
X0099846Y0097084D01*
X0099248Y0097682D02*
X0334224Y0097682D01*
X0334224Y0098281D02*
X0098649Y0098281D01*
X0098051Y0098879D02*
X0334224Y0098879D01*
X0334224Y0099478D02*
X0097452Y0099478D01*
X0096854Y0100076D02*
X0334224Y0100076D01*
X0334224Y0100675D02*
X0096255Y0100675D01*
X0095657Y0101273D02*
X0334224Y0101273D01*
X0334224Y0101872D02*
X0095058Y0101872D01*
X0094460Y0102471D02*
X0334224Y0102471D01*
X0334224Y0103069D02*
X0093861Y0103069D01*
X0093263Y0103668D02*
X0334224Y0103668D01*
X0334224Y0104266D02*
X0092664Y0104266D01*
X0092066Y0104865D02*
X0334224Y0104865D01*
X0334224Y0105463D02*
X0091467Y0105463D01*
X0090869Y0106062D02*
X0334224Y0106062D01*
X0334224Y0106660D02*
X0090270Y0106660D01*
X0089672Y0107259D02*
X0334224Y0107259D01*
X0334224Y0107857D02*
X0089073Y0107857D01*
X0088475Y0108456D02*
X0334224Y0108456D01*
X0334224Y0109054D02*
X0087876Y0109054D01*
X0087278Y0109653D02*
X0334224Y0109653D01*
X0334224Y0110251D02*
X0086679Y0110251D01*
X0086081Y0110850D02*
X0334224Y0110850D01*
X0334224Y0111448D02*
X0085482Y0111448D01*
X0084884Y0112047D02*
X0334224Y0112047D01*
X0334224Y0112645D02*
X0084285Y0112645D01*
X0083687Y0113244D02*
X0334224Y0113244D01*
X0334224Y0113842D02*
X0083088Y0113842D01*
X0082490Y0114441D02*
X0334224Y0114441D01*
X0334224Y0115039D02*
X0081891Y0115039D01*
X0081292Y0115638D02*
X0334224Y0115638D01*
X0334224Y0116236D02*
X0080694Y0116236D01*
X0080095Y0116835D02*
X0334224Y0116835D01*
X0334224Y0117433D02*
X0079497Y0117433D01*
X0078898Y0118032D02*
X0334224Y0118032D01*
X0334224Y0118630D02*
X0078300Y0118630D01*
X0077701Y0119229D02*
X0334224Y0119229D01*
X0334224Y0119827D02*
X0077103Y0119827D01*
X0076504Y0120426D02*
X0334224Y0120426D01*
X0334224Y0121024D02*
X0075906Y0121024D01*
X0075307Y0121623D02*
X0334224Y0121623D01*
X0334224Y0122221D02*
X0074709Y0122221D01*
X0074110Y0122820D02*
X0082599Y0122820D01*
X0081439Y0123418D02*
X0073512Y0123418D01*
X0072913Y0124017D02*
X0080840Y0124017D01*
X0080242Y0124615D02*
X0072315Y0124615D01*
X0071716Y0125214D02*
X0079950Y0125214D01*
X0079702Y0125812D02*
X0071118Y0125812D01*
X0070519Y0126411D02*
X0079454Y0126411D01*
X0079370Y0127009D02*
X0069921Y0127009D01*
X0069844Y0127087D02*
X0069844Y0128698D01*
X0069046Y0130623D01*
X0067573Y0132096D01*
X0065648Y0132894D01*
X0063565Y0132894D01*
X0061640Y0132096D01*
X0060167Y0130623D01*
X0059370Y0128698D01*
X0059370Y0126615D01*
X0060167Y0124690D01*
X0061640Y0123217D01*
X0063565Y0122420D01*
X0065177Y0122420D01*
X0108639Y0078958D01*
X0109852Y0078455D01*
X0208253Y0078455D01*
X0209191Y0077516D01*
X0211029Y0076755D01*
X0213018Y0076755D01*
X0214856Y0077516D01*
X0216262Y0078923D01*
X0217024Y0080761D01*
X0217024Y0082750D01*
X0216262Y0084587D01*
X0214856Y0085994D01*
X0213018Y0086755D01*
X0211029Y0086755D01*
X0209191Y0085994D01*
X0208253Y0085055D01*
X0111875Y0085055D01*
X0069844Y0127087D01*
X0069844Y0127608D02*
X0079370Y0127608D01*
X0079370Y0128207D02*
X0069844Y0128207D01*
X0069800Y0128805D02*
X0079414Y0128805D01*
X0079662Y0129404D02*
X0069552Y0129404D01*
X0069304Y0130002D02*
X0079910Y0130002D01*
X0080158Y0130601D02*
X0069056Y0130601D01*
X0068471Y0131199D02*
X0080743Y0131199D01*
X0081341Y0131798D02*
X0067872Y0131798D01*
X0066850Y0132396D02*
X0082364Y0132396D01*
X0089844Y0128207D02*
X0099370Y0128207D01*
X0099370Y0128698D02*
X0099370Y0126615D01*
X0100167Y0124690D01*
X0101640Y0123217D01*
X0103565Y0122420D01*
X0105648Y0122420D01*
X0107573Y0123217D01*
X0109046Y0124690D01*
X0109844Y0126615D01*
X0109844Y0128227D01*
X0110321Y0128704D01*
X0110824Y0129917D01*
X0110824Y0164484D01*
X0111762Y0165423D01*
X0112524Y0167261D01*
X0112524Y0169250D01*
X0111762Y0171087D01*
X0110356Y0172494D01*
X0108518Y0173255D01*
X0106529Y0173255D01*
X0104691Y0172494D01*
X0103285Y0171087D01*
X0102524Y0169250D01*
X0102524Y0167261D01*
X0103285Y0165423D01*
X0104224Y0164484D01*
X0104224Y0132894D01*
X0103565Y0132894D01*
X0101640Y0132096D01*
X0100167Y0130623D01*
X0099370Y0128698D01*
X0099414Y0128805D02*
X0090422Y0128805D01*
X0091020Y0129404D02*
X0099662Y0129404D01*
X0099910Y0130002D02*
X0091619Y0130002D01*
X0092217Y0130601D02*
X0100158Y0130601D01*
X0100743Y0131199D02*
X0092816Y0131199D01*
X0093067Y0131798D02*
X0101341Y0131798D01*
X0102364Y0132396D02*
X0093315Y0132396D01*
X0093324Y0132995D02*
X0104224Y0132995D01*
X0104224Y0133593D02*
X0093324Y0133593D01*
X0093324Y0134192D02*
X0104224Y0134192D01*
X0104224Y0134790D02*
X0093324Y0134790D01*
X0093324Y0135389D02*
X0104224Y0135389D01*
X0104224Y0135987D02*
X0093324Y0135987D01*
X0093324Y0136586D02*
X0104224Y0136586D01*
X0104224Y0137184D02*
X0093324Y0137184D01*
X0093324Y0137783D02*
X0104224Y0137783D01*
X0104224Y0138381D02*
X0093324Y0138381D01*
X0093324Y0138980D02*
X0104224Y0138980D01*
X0104224Y0139578D02*
X0093324Y0139578D01*
X0093324Y0140177D02*
X0104224Y0140177D01*
X0104224Y0140775D02*
X0093324Y0140775D01*
X0093324Y0141374D02*
X0104224Y0141374D01*
X0104224Y0141972D02*
X0093324Y0141972D01*
X0093324Y0142571D02*
X0104224Y0142571D01*
X0104224Y0143169D02*
X0093324Y0143169D01*
X0093324Y0143768D02*
X0104224Y0143768D01*
X0104224Y0144366D02*
X0093324Y0144366D01*
X0093324Y0144965D02*
X0104224Y0144965D01*
X0104224Y0145563D02*
X0093324Y0145563D01*
X0093324Y0146162D02*
X0104224Y0146162D01*
X0104224Y0146760D02*
X0093324Y0146760D01*
X0093324Y0147359D02*
X0104224Y0147359D01*
X0104224Y0147957D02*
X0093324Y0147957D01*
X0093324Y0148556D02*
X0104224Y0148556D01*
X0104224Y0149154D02*
X0093324Y0149154D01*
X0093324Y0149753D02*
X0104224Y0149753D01*
X0104224Y0150351D02*
X0093324Y0150351D01*
X0093324Y0150950D02*
X0104224Y0150950D01*
X0104224Y0151548D02*
X0093324Y0151548D01*
X0093324Y0152147D02*
X0104224Y0152147D01*
X0104224Y0152745D02*
X0093324Y0152745D01*
X0093324Y0153344D02*
X0104224Y0153344D01*
X0104224Y0153942D02*
X0093324Y0153942D01*
X0093324Y0154541D02*
X0104224Y0154541D01*
X0104224Y0155140D02*
X0093324Y0155140D01*
X0093324Y0155738D02*
X0104224Y0155738D01*
X0104224Y0156337D02*
X0093324Y0156337D01*
X0093324Y0156935D02*
X0104224Y0156935D01*
X0104224Y0157534D02*
X0093324Y0157534D01*
X0093324Y0158132D02*
X0104224Y0158132D01*
X0104224Y0158731D02*
X0093324Y0158731D01*
X0093324Y0159329D02*
X0104224Y0159329D01*
X0104224Y0159928D02*
X0093324Y0159928D01*
X0093324Y0160526D02*
X0104224Y0160526D01*
X0104224Y0161125D02*
X0093324Y0161125D01*
X0093324Y0161723D02*
X0104224Y0161723D01*
X0104224Y0162322D02*
X0093324Y0162322D01*
X0093324Y0162920D02*
X0104224Y0162920D01*
X0104224Y0163519D02*
X0093324Y0163519D01*
X0093324Y0164117D02*
X0104224Y0164117D01*
X0103992Y0164716D02*
X0093555Y0164716D01*
X0094154Y0165314D02*
X0103393Y0165314D01*
X0103082Y0165913D02*
X0094465Y0165913D01*
X0094713Y0166511D02*
X0102834Y0166511D01*
X0102586Y0167110D02*
X0094961Y0167110D01*
X0095024Y0167708D02*
X0102524Y0167708D01*
X0102524Y0168307D02*
X0095024Y0168307D01*
X0095024Y0168905D02*
X0102524Y0168905D01*
X0102629Y0169504D02*
X0094918Y0169504D01*
X0094670Y0170102D02*
X0102877Y0170102D01*
X0103125Y0170701D02*
X0094423Y0170701D01*
X0094050Y0171299D02*
X0103497Y0171299D01*
X0104095Y0171898D02*
X0093452Y0171898D01*
X0092850Y0172496D02*
X0104697Y0172496D01*
X0106142Y0173095D02*
X0091405Y0173095D01*
X0108905Y0173095D02*
X0123642Y0173095D01*
X0124029Y0173255D02*
X0122191Y0172494D01*
X0120785Y0171087D01*
X0120024Y0169250D01*
X0120024Y0167261D01*
X0120785Y0165423D01*
X0121724Y0164484D01*
X0121724Y0132131D01*
X0121640Y0132096D01*
X0120167Y0130623D01*
X0119370Y0128698D01*
X0119370Y0126615D01*
X0120167Y0124690D01*
X0121640Y0123217D01*
X0123565Y0122420D01*
X0125648Y0122420D01*
X0127573Y0123217D01*
X0129046Y0124690D01*
X0129844Y0126615D01*
X0129844Y0128698D01*
X0129046Y0130623D01*
X0128324Y0131346D01*
X0128324Y0164484D01*
X0129262Y0165423D01*
X0130024Y0167261D01*
X0130024Y0169250D01*
X0129262Y0171087D01*
X0127856Y0172494D01*
X0126018Y0173255D01*
X0124029Y0173255D01*
X0122197Y0172496D02*
X0110350Y0172496D01*
X0110952Y0171898D02*
X0121595Y0171898D01*
X0120997Y0171299D02*
X0111550Y0171299D01*
X0111923Y0170701D02*
X0120625Y0170701D01*
X0120377Y0170102D02*
X0112170Y0170102D01*
X0112418Y0169504D02*
X0120129Y0169504D01*
X0120024Y0168905D02*
X0112524Y0168905D01*
X0112524Y0168307D02*
X0120024Y0168307D01*
X0120024Y0167708D02*
X0112524Y0167708D01*
X0112461Y0167110D02*
X0120086Y0167110D01*
X0120334Y0166511D02*
X0112213Y0166511D01*
X0111965Y0165913D02*
X0120582Y0165913D01*
X0120893Y0165314D02*
X0111654Y0165314D01*
X0111055Y0164716D02*
X0121492Y0164716D01*
X0121724Y0164117D02*
X0110824Y0164117D01*
X0110824Y0163519D02*
X0121724Y0163519D01*
X0121724Y0162920D02*
X0110824Y0162920D01*
X0110824Y0162322D02*
X0121724Y0162322D01*
X0121724Y0161723D02*
X0110824Y0161723D01*
X0110824Y0161125D02*
X0121724Y0161125D01*
X0121724Y0160526D02*
X0110824Y0160526D01*
X0110824Y0159928D02*
X0121724Y0159928D01*
X0121724Y0159329D02*
X0110824Y0159329D01*
X0110824Y0158731D02*
X0121724Y0158731D01*
X0121724Y0158132D02*
X0110824Y0158132D01*
X0110824Y0157534D02*
X0121724Y0157534D01*
X0121724Y0156935D02*
X0110824Y0156935D01*
X0110824Y0156337D02*
X0121724Y0156337D01*
X0121724Y0155738D02*
X0110824Y0155738D01*
X0110824Y0155140D02*
X0121724Y0155140D01*
X0121724Y0154541D02*
X0110824Y0154541D01*
X0110824Y0153942D02*
X0121724Y0153942D01*
X0121724Y0153344D02*
X0110824Y0153344D01*
X0110824Y0152745D02*
X0121724Y0152745D01*
X0121724Y0152147D02*
X0110824Y0152147D01*
X0110824Y0151548D02*
X0121724Y0151548D01*
X0121724Y0150950D02*
X0110824Y0150950D01*
X0110824Y0150351D02*
X0121724Y0150351D01*
X0121724Y0149753D02*
X0110824Y0149753D01*
X0110824Y0149154D02*
X0121724Y0149154D01*
X0121724Y0148556D02*
X0110824Y0148556D01*
X0110824Y0147957D02*
X0121724Y0147957D01*
X0121724Y0147359D02*
X0110824Y0147359D01*
X0110824Y0146760D02*
X0121724Y0146760D01*
X0121724Y0146162D02*
X0110824Y0146162D01*
X0110824Y0145563D02*
X0121724Y0145563D01*
X0121724Y0144965D02*
X0110824Y0144965D01*
X0110824Y0144366D02*
X0121724Y0144366D01*
X0121724Y0143768D02*
X0110824Y0143768D01*
X0110824Y0143169D02*
X0121724Y0143169D01*
X0121724Y0142571D02*
X0110824Y0142571D01*
X0110824Y0141972D02*
X0121724Y0141972D01*
X0121724Y0141374D02*
X0110824Y0141374D01*
X0110824Y0140775D02*
X0121724Y0140775D01*
X0121724Y0140177D02*
X0110824Y0140177D01*
X0110824Y0139578D02*
X0121724Y0139578D01*
X0121724Y0138980D02*
X0110824Y0138980D01*
X0110824Y0138381D02*
X0121724Y0138381D01*
X0121724Y0137783D02*
X0110824Y0137783D01*
X0110824Y0137184D02*
X0121724Y0137184D01*
X0121724Y0136586D02*
X0110824Y0136586D01*
X0110824Y0135987D02*
X0121724Y0135987D01*
X0121724Y0135389D02*
X0110824Y0135389D01*
X0110824Y0134790D02*
X0121724Y0134790D01*
X0121724Y0134192D02*
X0110824Y0134192D01*
X0110824Y0133593D02*
X0121724Y0133593D01*
X0121724Y0132995D02*
X0110824Y0132995D01*
X0110824Y0132396D02*
X0121724Y0132396D01*
X0121341Y0131798D02*
X0110824Y0131798D01*
X0110824Y0131199D02*
X0120743Y0131199D01*
X0120158Y0130601D02*
X0110824Y0130601D01*
X0110824Y0130002D02*
X0119910Y0130002D01*
X0119662Y0129404D02*
X0110611Y0129404D01*
X0110363Y0128805D02*
X0119414Y0128805D01*
X0119370Y0128207D02*
X0109844Y0128207D01*
X0109844Y0127608D02*
X0119370Y0127608D01*
X0119370Y0127009D02*
X0109844Y0127009D01*
X0109759Y0126411D02*
X0119454Y0126411D01*
X0119702Y0125812D02*
X0109511Y0125812D01*
X0109263Y0125214D02*
X0119950Y0125214D01*
X0120242Y0124615D02*
X0108972Y0124615D01*
X0108373Y0124017D02*
X0120840Y0124017D01*
X0121439Y0123418D02*
X0107775Y0123418D01*
X0106615Y0122820D02*
X0122599Y0122820D01*
X0126615Y0122820D02*
X0142599Y0122820D01*
X0141640Y0123217D02*
X0143565Y0122420D01*
X0145648Y0122420D01*
X0147573Y0123217D01*
X0149046Y0124690D01*
X0149844Y0126615D01*
X0149844Y0128698D01*
X0149046Y0130623D01*
X0147907Y0131763D01*
X0147907Y0166828D01*
X0147524Y0167753D01*
X0147524Y0169250D01*
X0146762Y0171087D01*
X0145356Y0172494D01*
X0143518Y0173255D01*
X0141529Y0173255D01*
X0139691Y0172494D01*
X0138285Y0171087D01*
X0137524Y0169250D01*
X0137524Y0167261D01*
X0138285Y0165423D01*
X0139691Y0164016D01*
X0141307Y0163347D01*
X0141307Y0131763D01*
X0140167Y0130623D01*
X0139370Y0128698D01*
X0139370Y0126615D01*
X0140167Y0124690D01*
X0141640Y0123217D01*
X0141439Y0123418D02*
X0127775Y0123418D01*
X0128373Y0124017D02*
X0140840Y0124017D01*
X0140242Y0124615D02*
X0128972Y0124615D01*
X0129263Y0125214D02*
X0139950Y0125214D01*
X0139702Y0125812D02*
X0129511Y0125812D01*
X0129759Y0126411D02*
X0139454Y0126411D01*
X0139370Y0127009D02*
X0129844Y0127009D01*
X0129844Y0127608D02*
X0139370Y0127608D01*
X0139370Y0128207D02*
X0129844Y0128207D01*
X0129800Y0128805D02*
X0139414Y0128805D01*
X0139662Y0129404D02*
X0129552Y0129404D01*
X0129304Y0130002D02*
X0139910Y0130002D01*
X0140158Y0130601D02*
X0129056Y0130601D01*
X0128471Y0131199D02*
X0140743Y0131199D01*
X0141307Y0131798D02*
X0128324Y0131798D01*
X0128324Y0132396D02*
X0141307Y0132396D01*
X0141307Y0132995D02*
X0128324Y0132995D01*
X0128324Y0133593D02*
X0141307Y0133593D01*
X0141307Y0134192D02*
X0128324Y0134192D01*
X0128324Y0134790D02*
X0141307Y0134790D01*
X0141307Y0135389D02*
X0128324Y0135389D01*
X0128324Y0135987D02*
X0141307Y0135987D01*
X0141307Y0136586D02*
X0128324Y0136586D01*
X0128324Y0137184D02*
X0141307Y0137184D01*
X0141307Y0137783D02*
X0128324Y0137783D01*
X0128324Y0138381D02*
X0141307Y0138381D01*
X0141307Y0138980D02*
X0128324Y0138980D01*
X0128324Y0139578D02*
X0141307Y0139578D01*
X0141307Y0140177D02*
X0128324Y0140177D01*
X0128324Y0140775D02*
X0141307Y0140775D01*
X0141307Y0141374D02*
X0128324Y0141374D01*
X0128324Y0141972D02*
X0141307Y0141972D01*
X0141307Y0142571D02*
X0128324Y0142571D01*
X0128324Y0143169D02*
X0141307Y0143169D01*
X0141307Y0143768D02*
X0128324Y0143768D01*
X0128324Y0144366D02*
X0141307Y0144366D01*
X0141307Y0144965D02*
X0128324Y0144965D01*
X0128324Y0145563D02*
X0141307Y0145563D01*
X0141307Y0146162D02*
X0128324Y0146162D01*
X0128324Y0146760D02*
X0141307Y0146760D01*
X0141307Y0147359D02*
X0128324Y0147359D01*
X0128324Y0147957D02*
X0141307Y0147957D01*
X0141307Y0148556D02*
X0128324Y0148556D01*
X0128324Y0149154D02*
X0141307Y0149154D01*
X0141307Y0149753D02*
X0128324Y0149753D01*
X0128324Y0150351D02*
X0141307Y0150351D01*
X0141307Y0150950D02*
X0128324Y0150950D01*
X0128324Y0151548D02*
X0141307Y0151548D01*
X0141307Y0152147D02*
X0128324Y0152147D01*
X0128324Y0152745D02*
X0141307Y0152745D01*
X0141307Y0153344D02*
X0128324Y0153344D01*
X0128324Y0153942D02*
X0141307Y0153942D01*
X0141307Y0154541D02*
X0128324Y0154541D01*
X0128324Y0155140D02*
X0141307Y0155140D01*
X0141307Y0155738D02*
X0128324Y0155738D01*
X0128324Y0156337D02*
X0141307Y0156337D01*
X0141307Y0156935D02*
X0128324Y0156935D01*
X0128324Y0157534D02*
X0141307Y0157534D01*
X0141307Y0158132D02*
X0128324Y0158132D01*
X0128324Y0158731D02*
X0141307Y0158731D01*
X0141307Y0159329D02*
X0128324Y0159329D01*
X0128324Y0159928D02*
X0141307Y0159928D01*
X0141307Y0160526D02*
X0128324Y0160526D01*
X0128324Y0161125D02*
X0141307Y0161125D01*
X0141307Y0161723D02*
X0128324Y0161723D01*
X0128324Y0162322D02*
X0141307Y0162322D01*
X0141307Y0162920D02*
X0128324Y0162920D01*
X0128324Y0163519D02*
X0140893Y0163519D01*
X0139590Y0164117D02*
X0128324Y0164117D01*
X0128555Y0164716D02*
X0138992Y0164716D01*
X0138393Y0165314D02*
X0129154Y0165314D01*
X0129465Y0165913D02*
X0138082Y0165913D01*
X0137834Y0166511D02*
X0129713Y0166511D01*
X0129961Y0167110D02*
X0137586Y0167110D01*
X0137524Y0167708D02*
X0130024Y0167708D01*
X0130024Y0168307D02*
X0137524Y0168307D01*
X0137524Y0168905D02*
X0130024Y0168905D01*
X0129918Y0169504D02*
X0137629Y0169504D01*
X0137877Y0170102D02*
X0129670Y0170102D01*
X0129423Y0170701D02*
X0138125Y0170701D01*
X0138497Y0171299D02*
X0129050Y0171299D01*
X0128452Y0171898D02*
X0139095Y0171898D01*
X0139697Y0172496D02*
X0127850Y0172496D01*
X0126405Y0173095D02*
X0141142Y0173095D01*
X0143905Y0173095D02*
X0158642Y0173095D01*
X0159029Y0173255D02*
X0157191Y0172494D01*
X0155785Y0171087D01*
X0155024Y0169250D01*
X0155024Y0167261D01*
X0155785Y0165423D01*
X0156724Y0164484D01*
X0156724Y0131583D01*
X0157226Y0130370D01*
X0158154Y0129442D01*
X0159370Y0128227D01*
X0159370Y0126615D01*
X0160167Y0124690D01*
X0161640Y0123217D01*
X0163565Y0122420D01*
X0165648Y0122420D01*
X0167573Y0123217D01*
X0169046Y0124690D01*
X0169844Y0126615D01*
X0169844Y0128698D01*
X0169046Y0130623D01*
X0167573Y0132096D01*
X0165648Y0132894D01*
X0164037Y0132894D01*
X0163324Y0133607D01*
X0163324Y0164484D01*
X0164262Y0165423D01*
X0165024Y0167261D01*
X0165024Y0169250D01*
X0164262Y0171087D01*
X0162856Y0172494D01*
X0161018Y0173255D01*
X0159029Y0173255D01*
X0157197Y0172496D02*
X0145350Y0172496D01*
X0145952Y0171898D02*
X0156595Y0171898D01*
X0155997Y0171299D02*
X0146550Y0171299D01*
X0146923Y0170701D02*
X0155625Y0170701D01*
X0155377Y0170102D02*
X0147170Y0170102D01*
X0147418Y0169504D02*
X0155129Y0169504D01*
X0155024Y0168905D02*
X0147524Y0168905D01*
X0147524Y0168307D02*
X0155024Y0168307D01*
X0155024Y0167708D02*
X0147542Y0167708D01*
X0147790Y0167110D02*
X0155086Y0167110D01*
X0155334Y0166511D02*
X0147907Y0166511D01*
X0147907Y0165913D02*
X0155582Y0165913D01*
X0155893Y0165314D02*
X0147907Y0165314D01*
X0147907Y0164716D02*
X0156492Y0164716D01*
X0156724Y0164117D02*
X0147907Y0164117D01*
X0147907Y0163519D02*
X0156724Y0163519D01*
X0156724Y0162920D02*
X0147907Y0162920D01*
X0147907Y0162322D02*
X0156724Y0162322D01*
X0156724Y0161723D02*
X0147907Y0161723D01*
X0147907Y0161125D02*
X0156724Y0161125D01*
X0156724Y0160526D02*
X0147907Y0160526D01*
X0147907Y0159928D02*
X0156724Y0159928D01*
X0156724Y0159329D02*
X0147907Y0159329D01*
X0147907Y0158731D02*
X0156724Y0158731D01*
X0156724Y0158132D02*
X0147907Y0158132D01*
X0147907Y0157534D02*
X0156724Y0157534D01*
X0156724Y0156935D02*
X0147907Y0156935D01*
X0147907Y0156337D02*
X0156724Y0156337D01*
X0156724Y0155738D02*
X0147907Y0155738D01*
X0147907Y0155140D02*
X0156724Y0155140D01*
X0156724Y0154541D02*
X0147907Y0154541D01*
X0147907Y0153942D02*
X0156724Y0153942D01*
X0156724Y0153344D02*
X0147907Y0153344D01*
X0147907Y0152745D02*
X0156724Y0152745D01*
X0156724Y0152147D02*
X0147907Y0152147D01*
X0147907Y0151548D02*
X0156724Y0151548D01*
X0156724Y0150950D02*
X0147907Y0150950D01*
X0147907Y0150351D02*
X0156724Y0150351D01*
X0156724Y0149753D02*
X0147907Y0149753D01*
X0147907Y0149154D02*
X0156724Y0149154D01*
X0156724Y0148556D02*
X0147907Y0148556D01*
X0147907Y0147957D02*
X0156724Y0147957D01*
X0156724Y0147359D02*
X0147907Y0147359D01*
X0147907Y0146760D02*
X0156724Y0146760D01*
X0156724Y0146162D02*
X0147907Y0146162D01*
X0147907Y0145563D02*
X0156724Y0145563D01*
X0156724Y0144965D02*
X0147907Y0144965D01*
X0147907Y0144366D02*
X0156724Y0144366D01*
X0156724Y0143768D02*
X0147907Y0143768D01*
X0147907Y0143169D02*
X0156724Y0143169D01*
X0156724Y0142571D02*
X0147907Y0142571D01*
X0147907Y0141972D02*
X0156724Y0141972D01*
X0156724Y0141374D02*
X0147907Y0141374D01*
X0147907Y0140775D02*
X0156724Y0140775D01*
X0156724Y0140177D02*
X0147907Y0140177D01*
X0147907Y0139578D02*
X0156724Y0139578D01*
X0156724Y0138980D02*
X0147907Y0138980D01*
X0147907Y0138381D02*
X0156724Y0138381D01*
X0156724Y0137783D02*
X0147907Y0137783D01*
X0147907Y0137184D02*
X0156724Y0137184D01*
X0156724Y0136586D02*
X0147907Y0136586D01*
X0147907Y0135987D02*
X0156724Y0135987D01*
X0156724Y0135389D02*
X0147907Y0135389D01*
X0147907Y0134790D02*
X0156724Y0134790D01*
X0156724Y0134192D02*
X0147907Y0134192D01*
X0147907Y0133593D02*
X0156724Y0133593D01*
X0156724Y0132995D02*
X0147907Y0132995D01*
X0147907Y0132396D02*
X0156724Y0132396D01*
X0156724Y0131798D02*
X0147907Y0131798D01*
X0148471Y0131199D02*
X0156883Y0131199D01*
X0157131Y0130601D02*
X0149056Y0130601D01*
X0149304Y0130002D02*
X0157594Y0130002D01*
X0158193Y0129404D02*
X0149552Y0129404D01*
X0149800Y0128805D02*
X0158791Y0128805D01*
X0159370Y0128207D02*
X0149844Y0128207D01*
X0149844Y0127608D02*
X0159370Y0127608D01*
X0159370Y0127009D02*
X0149844Y0127009D01*
X0149759Y0126411D02*
X0159454Y0126411D01*
X0159702Y0125812D02*
X0149511Y0125812D01*
X0149263Y0125214D02*
X0159950Y0125214D01*
X0160242Y0124615D02*
X0148972Y0124615D01*
X0148373Y0124017D02*
X0160840Y0124017D01*
X0161439Y0123418D02*
X0147775Y0123418D01*
X0146615Y0122820D02*
X0162599Y0122820D01*
X0166615Y0122820D02*
X0182599Y0122820D01*
X0181640Y0123217D02*
X0183565Y0122420D01*
X0185648Y0122420D01*
X0187573Y0123217D01*
X0189046Y0124690D01*
X0189844Y0126615D01*
X0189844Y0128698D01*
X0189046Y0130623D01*
X0187573Y0132096D01*
X0185648Y0132894D01*
X0184037Y0132894D01*
X0180824Y0136107D01*
X0180824Y0164484D01*
X0181762Y0165423D01*
X0182524Y0167261D01*
X0182524Y0169250D01*
X0181762Y0171087D01*
X0180356Y0172494D01*
X0178518Y0173255D01*
X0176529Y0173255D01*
X0174691Y0172494D01*
X0173285Y0171087D01*
X0172524Y0169250D01*
X0172524Y0167261D01*
X0173285Y0165423D01*
X0174224Y0164484D01*
X0174224Y0134083D01*
X0174726Y0132870D01*
X0175654Y0131942D01*
X0179370Y0128227D01*
X0179370Y0126615D01*
X0180167Y0124690D01*
X0181640Y0123217D01*
X0181439Y0123418D02*
X0167775Y0123418D01*
X0168373Y0124017D02*
X0180840Y0124017D01*
X0180242Y0124615D02*
X0168972Y0124615D01*
X0169263Y0125214D02*
X0179950Y0125214D01*
X0179702Y0125812D02*
X0169511Y0125812D01*
X0169759Y0126411D02*
X0179454Y0126411D01*
X0179370Y0127009D02*
X0169844Y0127009D01*
X0169844Y0127608D02*
X0179370Y0127608D01*
X0179370Y0128207D02*
X0169844Y0128207D01*
X0169800Y0128805D02*
X0178791Y0128805D01*
X0178193Y0129404D02*
X0169552Y0129404D01*
X0169304Y0130002D02*
X0177594Y0130002D01*
X0176996Y0130601D02*
X0169056Y0130601D01*
X0168471Y0131199D02*
X0176397Y0131199D01*
X0175799Y0131798D02*
X0167872Y0131798D01*
X0166850Y0132396D02*
X0175200Y0132396D01*
X0174675Y0132995D02*
X0163936Y0132995D01*
X0163337Y0133593D02*
X0174427Y0133593D01*
X0174224Y0134192D02*
X0163324Y0134192D01*
X0163324Y0134790D02*
X0174224Y0134790D01*
X0174224Y0135389D02*
X0163324Y0135389D01*
X0163324Y0135987D02*
X0174224Y0135987D01*
X0174224Y0136586D02*
X0163324Y0136586D01*
X0163324Y0137184D02*
X0174224Y0137184D01*
X0174224Y0137783D02*
X0163324Y0137783D01*
X0163324Y0138381D02*
X0174224Y0138381D01*
X0174224Y0138980D02*
X0163324Y0138980D01*
X0163324Y0139578D02*
X0174224Y0139578D01*
X0174224Y0140177D02*
X0163324Y0140177D01*
X0163324Y0140775D02*
X0174224Y0140775D01*
X0174224Y0141374D02*
X0163324Y0141374D01*
X0163324Y0141972D02*
X0174224Y0141972D01*
X0174224Y0142571D02*
X0163324Y0142571D01*
X0163324Y0143169D02*
X0174224Y0143169D01*
X0174224Y0143768D02*
X0163324Y0143768D01*
X0163324Y0144366D02*
X0174224Y0144366D01*
X0174224Y0144965D02*
X0163324Y0144965D01*
X0163324Y0145563D02*
X0174224Y0145563D01*
X0174224Y0146162D02*
X0163324Y0146162D01*
X0163324Y0146760D02*
X0174224Y0146760D01*
X0174224Y0147359D02*
X0163324Y0147359D01*
X0163324Y0147957D02*
X0174224Y0147957D01*
X0174224Y0148556D02*
X0163324Y0148556D01*
X0163324Y0149154D02*
X0174224Y0149154D01*
X0174224Y0149753D02*
X0163324Y0149753D01*
X0163324Y0150351D02*
X0174224Y0150351D01*
X0174224Y0150950D02*
X0163324Y0150950D01*
X0163324Y0151548D02*
X0174224Y0151548D01*
X0174224Y0152147D02*
X0163324Y0152147D01*
X0163324Y0152745D02*
X0174224Y0152745D01*
X0174224Y0153344D02*
X0163324Y0153344D01*
X0163324Y0153942D02*
X0174224Y0153942D01*
X0174224Y0154541D02*
X0163324Y0154541D01*
X0163324Y0155140D02*
X0174224Y0155140D01*
X0174224Y0155738D02*
X0163324Y0155738D01*
X0163324Y0156337D02*
X0174224Y0156337D01*
X0174224Y0156935D02*
X0163324Y0156935D01*
X0163324Y0157534D02*
X0174224Y0157534D01*
X0174224Y0158132D02*
X0163324Y0158132D01*
X0163324Y0158731D02*
X0174224Y0158731D01*
X0174224Y0159329D02*
X0163324Y0159329D01*
X0163324Y0159928D02*
X0174224Y0159928D01*
X0174224Y0160526D02*
X0163324Y0160526D01*
X0163324Y0161125D02*
X0174224Y0161125D01*
X0174224Y0161723D02*
X0163324Y0161723D01*
X0163324Y0162322D02*
X0174224Y0162322D01*
X0174224Y0162920D02*
X0163324Y0162920D01*
X0163324Y0163519D02*
X0174224Y0163519D01*
X0174224Y0164117D02*
X0163324Y0164117D01*
X0163555Y0164716D02*
X0173992Y0164716D01*
X0173393Y0165314D02*
X0164154Y0165314D01*
X0164465Y0165913D02*
X0173082Y0165913D01*
X0172834Y0166511D02*
X0164713Y0166511D01*
X0164961Y0167110D02*
X0172586Y0167110D01*
X0172524Y0167708D02*
X0165024Y0167708D01*
X0165024Y0168307D02*
X0172524Y0168307D01*
X0172524Y0168905D02*
X0165024Y0168905D01*
X0164918Y0169504D02*
X0172629Y0169504D01*
X0172877Y0170102D02*
X0164670Y0170102D01*
X0164423Y0170701D02*
X0173125Y0170701D01*
X0173497Y0171299D02*
X0164050Y0171299D01*
X0163452Y0171898D02*
X0174095Y0171898D01*
X0174697Y0172496D02*
X0162850Y0172496D01*
X0161405Y0173095D02*
X0176142Y0173095D01*
X0178905Y0173095D02*
X0193642Y0173095D01*
X0194029Y0173255D02*
X0192191Y0172494D01*
X0190785Y0171087D01*
X0190024Y0169250D01*
X0190024Y0167261D01*
X0190785Y0165423D01*
X0191724Y0164484D01*
X0191724Y0136583D01*
X0192226Y0135370D01*
X0193154Y0134442D01*
X0199370Y0128227D01*
X0199370Y0126615D01*
X0200167Y0124690D01*
X0201640Y0123217D01*
X0203565Y0122420D01*
X0205648Y0122420D01*
X0207573Y0123217D01*
X0209046Y0124690D01*
X0209844Y0126615D01*
X0209844Y0128698D01*
X0209046Y0130623D01*
X0207573Y0132096D01*
X0205648Y0132894D01*
X0204037Y0132894D01*
X0198324Y0138607D01*
X0198324Y0164484D01*
X0199262Y0165423D01*
X0200024Y0167261D01*
X0200024Y0169250D01*
X0199262Y0171087D01*
X0197856Y0172494D01*
X0196018Y0173255D01*
X0194029Y0173255D01*
X0192197Y0172496D02*
X0180350Y0172496D01*
X0180952Y0171898D02*
X0191595Y0171898D01*
X0190997Y0171299D02*
X0181550Y0171299D01*
X0181923Y0170701D02*
X0190625Y0170701D01*
X0190377Y0170102D02*
X0182170Y0170102D01*
X0182418Y0169504D02*
X0190129Y0169504D01*
X0190024Y0168905D02*
X0182524Y0168905D01*
X0182524Y0168307D02*
X0190024Y0168307D01*
X0190024Y0167708D02*
X0182524Y0167708D01*
X0182461Y0167110D02*
X0190086Y0167110D01*
X0190334Y0166511D02*
X0182213Y0166511D01*
X0181965Y0165913D02*
X0190582Y0165913D01*
X0190893Y0165314D02*
X0181654Y0165314D01*
X0181055Y0164716D02*
X0191492Y0164716D01*
X0191724Y0164117D02*
X0180824Y0164117D01*
X0180824Y0163519D02*
X0191724Y0163519D01*
X0191724Y0162920D02*
X0180824Y0162920D01*
X0180824Y0162322D02*
X0191724Y0162322D01*
X0191724Y0161723D02*
X0180824Y0161723D01*
X0180824Y0161125D02*
X0191724Y0161125D01*
X0191724Y0160526D02*
X0180824Y0160526D01*
X0180824Y0159928D02*
X0191724Y0159928D01*
X0191724Y0159329D02*
X0180824Y0159329D01*
X0180824Y0158731D02*
X0191724Y0158731D01*
X0191724Y0158132D02*
X0180824Y0158132D01*
X0180824Y0157534D02*
X0191724Y0157534D01*
X0191724Y0156935D02*
X0180824Y0156935D01*
X0180824Y0156337D02*
X0191724Y0156337D01*
X0191724Y0155738D02*
X0180824Y0155738D01*
X0180824Y0155140D02*
X0191724Y0155140D01*
X0191724Y0154541D02*
X0180824Y0154541D01*
X0180824Y0153942D02*
X0191724Y0153942D01*
X0191724Y0153344D02*
X0180824Y0153344D01*
X0180824Y0152745D02*
X0191724Y0152745D01*
X0191724Y0152147D02*
X0180824Y0152147D01*
X0180824Y0151548D02*
X0191724Y0151548D01*
X0191724Y0150950D02*
X0180824Y0150950D01*
X0180824Y0150351D02*
X0191724Y0150351D01*
X0191724Y0149753D02*
X0180824Y0149753D01*
X0180824Y0149154D02*
X0191724Y0149154D01*
X0191724Y0148556D02*
X0180824Y0148556D01*
X0180824Y0147957D02*
X0191724Y0147957D01*
X0191724Y0147359D02*
X0180824Y0147359D01*
X0180824Y0146760D02*
X0191724Y0146760D01*
X0191724Y0146162D02*
X0180824Y0146162D01*
X0180824Y0145563D02*
X0191724Y0145563D01*
X0191724Y0144965D02*
X0180824Y0144965D01*
X0180824Y0144366D02*
X0191724Y0144366D01*
X0191724Y0143768D02*
X0180824Y0143768D01*
X0180824Y0143169D02*
X0191724Y0143169D01*
X0191724Y0142571D02*
X0180824Y0142571D01*
X0180824Y0141972D02*
X0191724Y0141972D01*
X0191724Y0141374D02*
X0180824Y0141374D01*
X0180824Y0140775D02*
X0191724Y0140775D01*
X0191724Y0140177D02*
X0180824Y0140177D01*
X0180824Y0139578D02*
X0191724Y0139578D01*
X0191724Y0138980D02*
X0180824Y0138980D01*
X0180824Y0138381D02*
X0191724Y0138381D01*
X0191724Y0137783D02*
X0180824Y0137783D01*
X0180824Y0137184D02*
X0191724Y0137184D01*
X0191724Y0136586D02*
X0180824Y0136586D01*
X0180943Y0135987D02*
X0191971Y0135987D01*
X0192218Y0135389D02*
X0181542Y0135389D01*
X0182140Y0134790D02*
X0192806Y0134790D01*
X0193405Y0134192D02*
X0182739Y0134192D01*
X0183337Y0133593D02*
X0194003Y0133593D01*
X0194602Y0132995D02*
X0183936Y0132995D01*
X0186850Y0132396D02*
X0195200Y0132396D01*
X0195799Y0131798D02*
X0187872Y0131798D01*
X0188471Y0131199D02*
X0196397Y0131199D01*
X0196996Y0130601D02*
X0189056Y0130601D01*
X0189304Y0130002D02*
X0197594Y0130002D01*
X0198193Y0129404D02*
X0189552Y0129404D01*
X0189800Y0128805D02*
X0198791Y0128805D01*
X0199370Y0128207D02*
X0189844Y0128207D01*
X0189844Y0127608D02*
X0199370Y0127608D01*
X0199370Y0127009D02*
X0189844Y0127009D01*
X0189759Y0126411D02*
X0199454Y0126411D01*
X0199702Y0125812D02*
X0189511Y0125812D01*
X0189263Y0125214D02*
X0199950Y0125214D01*
X0200242Y0124615D02*
X0188972Y0124615D01*
X0188373Y0124017D02*
X0200840Y0124017D01*
X0201439Y0123418D02*
X0187775Y0123418D01*
X0186615Y0122820D02*
X0202599Y0122820D01*
X0206615Y0122820D02*
X0222599Y0122820D01*
X0221640Y0123217D02*
X0223565Y0122420D01*
X0225648Y0122420D01*
X0227573Y0123217D01*
X0229046Y0124690D01*
X0229844Y0126615D01*
X0229844Y0128698D01*
X0229046Y0130623D01*
X0227573Y0132096D01*
X0225648Y0132894D01*
X0224037Y0132894D01*
X0215824Y0141107D01*
X0215824Y0164484D01*
X0216762Y0165423D01*
X0217524Y0167261D01*
X0217524Y0169250D01*
X0216762Y0171087D01*
X0215356Y0172494D01*
X0213518Y0173255D01*
X0211529Y0173255D01*
X0209691Y0172494D01*
X0208285Y0171087D01*
X0207524Y0169250D01*
X0207524Y0167261D01*
X0208285Y0165423D01*
X0209224Y0164484D01*
X0209224Y0139083D01*
X0209726Y0137870D01*
X0210654Y0136942D01*
X0219370Y0128227D01*
X0219370Y0126615D01*
X0220167Y0124690D01*
X0221640Y0123217D01*
X0221439Y0123418D02*
X0207775Y0123418D01*
X0208373Y0124017D02*
X0220840Y0124017D01*
X0220242Y0124615D02*
X0208972Y0124615D01*
X0209263Y0125214D02*
X0219950Y0125214D01*
X0219702Y0125812D02*
X0209511Y0125812D01*
X0209759Y0126411D02*
X0219454Y0126411D01*
X0219370Y0127009D02*
X0209844Y0127009D01*
X0209844Y0127608D02*
X0219370Y0127608D01*
X0219370Y0128207D02*
X0209844Y0128207D01*
X0209800Y0128805D02*
X0218791Y0128805D01*
X0218193Y0129404D02*
X0209552Y0129404D01*
X0209304Y0130002D02*
X0217594Y0130002D01*
X0216996Y0130601D02*
X0209056Y0130601D01*
X0208471Y0131199D02*
X0216397Y0131199D01*
X0215799Y0131798D02*
X0207872Y0131798D01*
X0206850Y0132396D02*
X0215200Y0132396D01*
X0214602Y0132995D02*
X0203936Y0132995D01*
X0203337Y0133593D02*
X0214003Y0133593D01*
X0213405Y0134192D02*
X0202739Y0134192D01*
X0202140Y0134790D02*
X0212806Y0134790D01*
X0212208Y0135389D02*
X0201542Y0135389D01*
X0200943Y0135987D02*
X0211609Y0135987D01*
X0211011Y0136586D02*
X0200345Y0136586D01*
X0199746Y0137184D02*
X0210412Y0137184D01*
X0210654Y0136942D02*
X0210654Y0136942D01*
X0209814Y0137783D02*
X0199148Y0137783D01*
X0198549Y0138381D02*
X0209514Y0138381D01*
X0209267Y0138980D02*
X0198324Y0138980D01*
X0198324Y0139578D02*
X0209224Y0139578D01*
X0209224Y0140177D02*
X0198324Y0140177D01*
X0198324Y0140775D02*
X0209224Y0140775D01*
X0209224Y0141374D02*
X0198324Y0141374D01*
X0198324Y0141972D02*
X0209224Y0141972D01*
X0209224Y0142571D02*
X0198324Y0142571D01*
X0198324Y0143169D02*
X0209224Y0143169D01*
X0209224Y0143768D02*
X0198324Y0143768D01*
X0198324Y0144366D02*
X0209224Y0144366D01*
X0209224Y0144965D02*
X0198324Y0144965D01*
X0198324Y0145563D02*
X0209224Y0145563D01*
X0209224Y0146162D02*
X0198324Y0146162D01*
X0198324Y0146760D02*
X0209224Y0146760D01*
X0209224Y0147359D02*
X0198324Y0147359D01*
X0198324Y0147957D02*
X0209224Y0147957D01*
X0209224Y0148556D02*
X0198324Y0148556D01*
X0198324Y0149154D02*
X0209224Y0149154D01*
X0209224Y0149753D02*
X0198324Y0149753D01*
X0198324Y0150351D02*
X0209224Y0150351D01*
X0209224Y0150950D02*
X0198324Y0150950D01*
X0198324Y0151548D02*
X0209224Y0151548D01*
X0209224Y0152147D02*
X0198324Y0152147D01*
X0198324Y0152745D02*
X0209224Y0152745D01*
X0209224Y0153344D02*
X0198324Y0153344D01*
X0198324Y0153942D02*
X0209224Y0153942D01*
X0209224Y0154541D02*
X0198324Y0154541D01*
X0198324Y0155140D02*
X0209224Y0155140D01*
X0209224Y0155738D02*
X0198324Y0155738D01*
X0198324Y0156337D02*
X0209224Y0156337D01*
X0209224Y0156935D02*
X0198324Y0156935D01*
X0198324Y0157534D02*
X0209224Y0157534D01*
X0209224Y0158132D02*
X0198324Y0158132D01*
X0198324Y0158731D02*
X0209224Y0158731D01*
X0209224Y0159329D02*
X0198324Y0159329D01*
X0198324Y0159928D02*
X0209224Y0159928D01*
X0209224Y0160526D02*
X0198324Y0160526D01*
X0198324Y0161125D02*
X0209224Y0161125D01*
X0209224Y0161723D02*
X0198324Y0161723D01*
X0198324Y0162322D02*
X0209224Y0162322D01*
X0209224Y0162920D02*
X0198324Y0162920D01*
X0198324Y0163519D02*
X0209224Y0163519D01*
X0209224Y0164117D02*
X0198324Y0164117D01*
X0198555Y0164716D02*
X0208992Y0164716D01*
X0208393Y0165314D02*
X0199154Y0165314D01*
X0199465Y0165913D02*
X0208082Y0165913D01*
X0207834Y0166511D02*
X0199713Y0166511D01*
X0199961Y0167110D02*
X0207586Y0167110D01*
X0207524Y0167708D02*
X0200024Y0167708D01*
X0200024Y0168307D02*
X0207524Y0168307D01*
X0207524Y0168905D02*
X0200024Y0168905D01*
X0199918Y0169504D02*
X0207629Y0169504D01*
X0207877Y0170102D02*
X0199670Y0170102D01*
X0199423Y0170701D02*
X0208125Y0170701D01*
X0208497Y0171299D02*
X0199050Y0171299D01*
X0198452Y0171898D02*
X0209095Y0171898D01*
X0209697Y0172496D02*
X0197850Y0172496D01*
X0196405Y0173095D02*
X0211142Y0173095D01*
X0213905Y0173095D02*
X0228642Y0173095D01*
X0229029Y0173255D02*
X0227191Y0172494D01*
X0225785Y0171087D01*
X0225024Y0169250D01*
X0225024Y0167261D01*
X0225785Y0165423D01*
X0226724Y0164484D01*
X0226724Y0141583D01*
X0227226Y0140370D01*
X0228154Y0139442D01*
X0239370Y0128227D01*
X0239370Y0126615D01*
X0240167Y0124690D01*
X0241640Y0123217D01*
X0243565Y0122420D01*
X0245648Y0122420D01*
X0247573Y0123217D01*
X0249046Y0124690D01*
X0249844Y0126615D01*
X0249844Y0128698D01*
X0249046Y0130623D01*
X0247573Y0132096D01*
X0245648Y0132894D01*
X0244037Y0132894D01*
X0233324Y0143607D01*
X0233324Y0164484D01*
X0234262Y0165423D01*
X0235024Y0167261D01*
X0235024Y0169250D01*
X0234262Y0171087D01*
X0232856Y0172494D01*
X0231018Y0173255D01*
X0229029Y0173255D01*
X0227197Y0172496D02*
X0215350Y0172496D01*
X0215952Y0171898D02*
X0226595Y0171898D01*
X0225997Y0171299D02*
X0216550Y0171299D01*
X0216923Y0170701D02*
X0225625Y0170701D01*
X0225377Y0170102D02*
X0217170Y0170102D01*
X0217418Y0169504D02*
X0225129Y0169504D01*
X0225024Y0168905D02*
X0217524Y0168905D01*
X0217524Y0168307D02*
X0225024Y0168307D01*
X0225024Y0167708D02*
X0217524Y0167708D01*
X0217461Y0167110D02*
X0225086Y0167110D01*
X0225334Y0166511D02*
X0217213Y0166511D01*
X0216965Y0165913D02*
X0225582Y0165913D01*
X0225893Y0165314D02*
X0216654Y0165314D01*
X0216055Y0164716D02*
X0226492Y0164716D01*
X0226724Y0164117D02*
X0215824Y0164117D01*
X0215824Y0163519D02*
X0226724Y0163519D01*
X0226724Y0162920D02*
X0215824Y0162920D01*
X0215824Y0162322D02*
X0226724Y0162322D01*
X0226724Y0161723D02*
X0215824Y0161723D01*
X0215824Y0161125D02*
X0226724Y0161125D01*
X0226724Y0160526D02*
X0215824Y0160526D01*
X0215824Y0159928D02*
X0226724Y0159928D01*
X0226724Y0159329D02*
X0215824Y0159329D01*
X0215824Y0158731D02*
X0226724Y0158731D01*
X0226724Y0158132D02*
X0215824Y0158132D01*
X0215824Y0157534D02*
X0226724Y0157534D01*
X0226724Y0156935D02*
X0215824Y0156935D01*
X0215824Y0156337D02*
X0226724Y0156337D01*
X0226724Y0155738D02*
X0215824Y0155738D01*
X0215824Y0155140D02*
X0226724Y0155140D01*
X0226724Y0154541D02*
X0215824Y0154541D01*
X0215824Y0153942D02*
X0226724Y0153942D01*
X0226724Y0153344D02*
X0215824Y0153344D01*
X0215824Y0152745D02*
X0226724Y0152745D01*
X0226724Y0152147D02*
X0215824Y0152147D01*
X0215824Y0151548D02*
X0226724Y0151548D01*
X0226724Y0150950D02*
X0215824Y0150950D01*
X0215824Y0150351D02*
X0226724Y0150351D01*
X0226724Y0149753D02*
X0215824Y0149753D01*
X0215824Y0149154D02*
X0226724Y0149154D01*
X0226724Y0148556D02*
X0215824Y0148556D01*
X0215824Y0147957D02*
X0226724Y0147957D01*
X0226724Y0147359D02*
X0215824Y0147359D01*
X0215824Y0146760D02*
X0226724Y0146760D01*
X0226724Y0146162D02*
X0215824Y0146162D01*
X0215824Y0145563D02*
X0226724Y0145563D01*
X0226724Y0144965D02*
X0215824Y0144965D01*
X0215824Y0144366D02*
X0226724Y0144366D01*
X0226724Y0143768D02*
X0215824Y0143768D01*
X0215824Y0143169D02*
X0226724Y0143169D01*
X0226724Y0142571D02*
X0215824Y0142571D01*
X0215824Y0141972D02*
X0226724Y0141972D01*
X0226810Y0141374D02*
X0215824Y0141374D01*
X0216155Y0140775D02*
X0227058Y0140775D01*
X0227420Y0140177D02*
X0216754Y0140177D01*
X0217352Y0139578D02*
X0228018Y0139578D01*
X0228154Y0139442D02*
X0228154Y0139442D01*
X0228617Y0138980D02*
X0217951Y0138980D01*
X0218549Y0138381D02*
X0229215Y0138381D01*
X0229814Y0137783D02*
X0219148Y0137783D01*
X0219746Y0137184D02*
X0230412Y0137184D01*
X0231011Y0136586D02*
X0220345Y0136586D01*
X0220943Y0135987D02*
X0231609Y0135987D01*
X0232208Y0135389D02*
X0221542Y0135389D01*
X0222140Y0134790D02*
X0232806Y0134790D01*
X0233405Y0134192D02*
X0222739Y0134192D01*
X0223337Y0133593D02*
X0234003Y0133593D01*
X0234602Y0132995D02*
X0223936Y0132995D01*
X0226850Y0132396D02*
X0235200Y0132396D01*
X0235799Y0131798D02*
X0227872Y0131798D01*
X0228471Y0131199D02*
X0236397Y0131199D01*
X0236996Y0130601D02*
X0229056Y0130601D01*
X0229304Y0130002D02*
X0237594Y0130002D01*
X0238193Y0129404D02*
X0229552Y0129404D01*
X0229800Y0128805D02*
X0238791Y0128805D01*
X0239370Y0128207D02*
X0229844Y0128207D01*
X0229844Y0127608D02*
X0239370Y0127608D01*
X0239370Y0127009D02*
X0229844Y0127009D01*
X0229759Y0126411D02*
X0239454Y0126411D01*
X0239702Y0125812D02*
X0229511Y0125812D01*
X0229263Y0125214D02*
X0239950Y0125214D01*
X0240242Y0124615D02*
X0228972Y0124615D01*
X0228373Y0124017D02*
X0240840Y0124017D01*
X0241439Y0123418D02*
X0227775Y0123418D01*
X0226615Y0122820D02*
X0242599Y0122820D01*
X0246615Y0122820D02*
X0262599Y0122820D01*
X0261640Y0123217D02*
X0263565Y0122420D01*
X0265648Y0122420D01*
X0267573Y0123217D01*
X0269046Y0124690D01*
X0269844Y0126615D01*
X0269844Y0128698D01*
X0269046Y0130623D01*
X0267573Y0132096D01*
X0265648Y0132894D01*
X0264037Y0132894D01*
X0250824Y0146107D01*
X0250824Y0164484D01*
X0251762Y0165423D01*
X0252524Y0167261D01*
X0252524Y0169250D01*
X0251762Y0171087D01*
X0250356Y0172494D01*
X0248518Y0173255D01*
X0246529Y0173255D01*
X0244691Y0172494D01*
X0243285Y0171087D01*
X0242524Y0169250D01*
X0242524Y0167261D01*
X0243285Y0165423D01*
X0244224Y0164484D01*
X0244224Y0144083D01*
X0244726Y0142870D01*
X0245654Y0141942D01*
X0259370Y0128227D01*
X0259370Y0126615D01*
X0260167Y0124690D01*
X0261640Y0123217D01*
X0261439Y0123418D02*
X0247775Y0123418D01*
X0248373Y0124017D02*
X0260840Y0124017D01*
X0260242Y0124615D02*
X0248972Y0124615D01*
X0249263Y0125214D02*
X0259950Y0125214D01*
X0259702Y0125812D02*
X0249511Y0125812D01*
X0249759Y0126411D02*
X0259454Y0126411D01*
X0259370Y0127009D02*
X0249844Y0127009D01*
X0249844Y0127608D02*
X0259370Y0127608D01*
X0259370Y0128207D02*
X0249844Y0128207D01*
X0249800Y0128805D02*
X0258791Y0128805D01*
X0258193Y0129404D02*
X0249552Y0129404D01*
X0249304Y0130002D02*
X0257594Y0130002D01*
X0256996Y0130601D02*
X0249056Y0130601D01*
X0248471Y0131199D02*
X0256397Y0131199D01*
X0255799Y0131798D02*
X0247872Y0131798D01*
X0246850Y0132396D02*
X0255200Y0132396D01*
X0254602Y0132995D02*
X0243936Y0132995D01*
X0243337Y0133593D02*
X0254003Y0133593D01*
X0253405Y0134192D02*
X0242739Y0134192D01*
X0242140Y0134790D02*
X0252806Y0134790D01*
X0252208Y0135389D02*
X0241542Y0135389D01*
X0240943Y0135987D02*
X0251609Y0135987D01*
X0251011Y0136586D02*
X0240345Y0136586D01*
X0239746Y0137184D02*
X0250412Y0137184D01*
X0249814Y0137783D02*
X0239148Y0137783D01*
X0238549Y0138381D02*
X0249215Y0138381D01*
X0248617Y0138980D02*
X0237951Y0138980D01*
X0237352Y0139578D02*
X0248018Y0139578D01*
X0247420Y0140177D02*
X0236754Y0140177D01*
X0236155Y0140775D02*
X0246821Y0140775D01*
X0246223Y0141374D02*
X0235556Y0141374D01*
X0234958Y0141972D02*
X0245624Y0141972D01*
X0245026Y0142571D02*
X0234359Y0142571D01*
X0233761Y0143169D02*
X0244602Y0143169D01*
X0244354Y0143768D02*
X0233324Y0143768D01*
X0233324Y0144366D02*
X0244224Y0144366D01*
X0244224Y0144965D02*
X0233324Y0144965D01*
X0233324Y0145563D02*
X0244224Y0145563D01*
X0244224Y0146162D02*
X0233324Y0146162D01*
X0233324Y0146760D02*
X0244224Y0146760D01*
X0244224Y0147359D02*
X0233324Y0147359D01*
X0233324Y0147957D02*
X0244224Y0147957D01*
X0244224Y0148556D02*
X0233324Y0148556D01*
X0233324Y0149154D02*
X0244224Y0149154D01*
X0244224Y0149753D02*
X0233324Y0149753D01*
X0233324Y0150351D02*
X0244224Y0150351D01*
X0244224Y0150950D02*
X0233324Y0150950D01*
X0233324Y0151548D02*
X0244224Y0151548D01*
X0244224Y0152147D02*
X0233324Y0152147D01*
X0233324Y0152745D02*
X0244224Y0152745D01*
X0244224Y0153344D02*
X0233324Y0153344D01*
X0233324Y0153942D02*
X0244224Y0153942D01*
X0244224Y0154541D02*
X0233324Y0154541D01*
X0233324Y0155140D02*
X0244224Y0155140D01*
X0244224Y0155738D02*
X0233324Y0155738D01*
X0233324Y0156337D02*
X0244224Y0156337D01*
X0244224Y0156935D02*
X0233324Y0156935D01*
X0233324Y0157534D02*
X0244224Y0157534D01*
X0244224Y0158132D02*
X0233324Y0158132D01*
X0233324Y0158731D02*
X0244224Y0158731D01*
X0244224Y0159329D02*
X0233324Y0159329D01*
X0233324Y0159928D02*
X0244224Y0159928D01*
X0244224Y0160526D02*
X0233324Y0160526D01*
X0233324Y0161125D02*
X0244224Y0161125D01*
X0244224Y0161723D02*
X0233324Y0161723D01*
X0233324Y0162322D02*
X0244224Y0162322D01*
X0244224Y0162920D02*
X0233324Y0162920D01*
X0233324Y0163519D02*
X0244224Y0163519D01*
X0244224Y0164117D02*
X0233324Y0164117D01*
X0233555Y0164716D02*
X0243992Y0164716D01*
X0243393Y0165314D02*
X0234154Y0165314D01*
X0234465Y0165913D02*
X0243082Y0165913D01*
X0242834Y0166511D02*
X0234713Y0166511D01*
X0234961Y0167110D02*
X0242586Y0167110D01*
X0242524Y0167708D02*
X0235024Y0167708D01*
X0235024Y0168307D02*
X0242524Y0168307D01*
X0242524Y0168905D02*
X0235024Y0168905D01*
X0234918Y0169504D02*
X0242629Y0169504D01*
X0242877Y0170102D02*
X0234670Y0170102D01*
X0234423Y0170701D02*
X0243125Y0170701D01*
X0243497Y0171299D02*
X0234050Y0171299D01*
X0233452Y0171898D02*
X0244095Y0171898D01*
X0244697Y0172496D02*
X0232850Y0172496D01*
X0231405Y0173095D02*
X0246142Y0173095D01*
X0248905Y0173095D02*
X0263642Y0173095D01*
X0264029Y0173255D02*
X0262191Y0172494D01*
X0260785Y0171087D01*
X0260024Y0169250D01*
X0260024Y0167261D01*
X0260785Y0165423D01*
X0261724Y0164484D01*
X0261724Y0146583D01*
X0262226Y0145370D01*
X0263154Y0144442D01*
X0279370Y0128227D01*
X0279370Y0126615D01*
X0280167Y0124690D01*
X0281640Y0123217D01*
X0283565Y0122420D01*
X0285648Y0122420D01*
X0287573Y0123217D01*
X0289046Y0124690D01*
X0289844Y0126615D01*
X0289844Y0128698D01*
X0289046Y0130623D01*
X0287573Y0132096D01*
X0285648Y0132894D01*
X0284037Y0132894D01*
X0268324Y0148607D01*
X0268324Y0164484D01*
X0269262Y0165423D01*
X0270024Y0167261D01*
X0270024Y0169250D01*
X0269262Y0171087D01*
X0267856Y0172494D01*
X0266018Y0173255D01*
X0264029Y0173255D01*
X0262197Y0172496D02*
X0250350Y0172496D01*
X0250952Y0171898D02*
X0261595Y0171898D01*
X0260997Y0171299D02*
X0251550Y0171299D01*
X0251923Y0170701D02*
X0260625Y0170701D01*
X0260377Y0170102D02*
X0252170Y0170102D01*
X0252418Y0169504D02*
X0260129Y0169504D01*
X0260024Y0168905D02*
X0252524Y0168905D01*
X0252524Y0168307D02*
X0260024Y0168307D01*
X0260024Y0167708D02*
X0252524Y0167708D01*
X0252461Y0167110D02*
X0260086Y0167110D01*
X0260334Y0166511D02*
X0252213Y0166511D01*
X0251965Y0165913D02*
X0260582Y0165913D01*
X0260893Y0165314D02*
X0251654Y0165314D01*
X0251055Y0164716D02*
X0261492Y0164716D01*
X0261724Y0164117D02*
X0250824Y0164117D01*
X0250824Y0163519D02*
X0261724Y0163519D01*
X0261724Y0162920D02*
X0250824Y0162920D01*
X0250824Y0162322D02*
X0261724Y0162322D01*
X0261724Y0161723D02*
X0250824Y0161723D01*
X0250824Y0161125D02*
X0261724Y0161125D01*
X0261724Y0160526D02*
X0250824Y0160526D01*
X0250824Y0159928D02*
X0261724Y0159928D01*
X0261724Y0159329D02*
X0250824Y0159329D01*
X0250824Y0158731D02*
X0261724Y0158731D01*
X0261724Y0158132D02*
X0250824Y0158132D01*
X0250824Y0157534D02*
X0261724Y0157534D01*
X0261724Y0156935D02*
X0250824Y0156935D01*
X0250824Y0156337D02*
X0261724Y0156337D01*
X0261724Y0155738D02*
X0250824Y0155738D01*
X0250824Y0155140D02*
X0261724Y0155140D01*
X0261724Y0154541D02*
X0250824Y0154541D01*
X0250824Y0153942D02*
X0261724Y0153942D01*
X0261724Y0153344D02*
X0250824Y0153344D01*
X0250824Y0152745D02*
X0261724Y0152745D01*
X0261724Y0152147D02*
X0250824Y0152147D01*
X0250824Y0151548D02*
X0261724Y0151548D01*
X0261724Y0150950D02*
X0250824Y0150950D01*
X0250824Y0150351D02*
X0261724Y0150351D01*
X0261724Y0149753D02*
X0250824Y0149753D01*
X0250824Y0149154D02*
X0261724Y0149154D01*
X0261724Y0148556D02*
X0250824Y0148556D01*
X0250824Y0147957D02*
X0261724Y0147957D01*
X0261724Y0147359D02*
X0250824Y0147359D01*
X0250824Y0146760D02*
X0261724Y0146760D01*
X0261898Y0146162D02*
X0250824Y0146162D01*
X0251367Y0145563D02*
X0262146Y0145563D01*
X0262632Y0144965D02*
X0251965Y0144965D01*
X0252564Y0144366D02*
X0263230Y0144366D01*
X0263829Y0143768D02*
X0253162Y0143768D01*
X0253761Y0143169D02*
X0264427Y0143169D01*
X0265026Y0142571D02*
X0254359Y0142571D01*
X0254958Y0141972D02*
X0265624Y0141972D01*
X0266223Y0141374D02*
X0255557Y0141374D01*
X0256155Y0140775D02*
X0266821Y0140775D01*
X0267420Y0140177D02*
X0256754Y0140177D01*
X0257352Y0139578D02*
X0268018Y0139578D01*
X0268617Y0138980D02*
X0257951Y0138980D01*
X0258549Y0138381D02*
X0269215Y0138381D01*
X0269814Y0137783D02*
X0259148Y0137783D01*
X0259746Y0137184D02*
X0270412Y0137184D01*
X0271011Y0136586D02*
X0260345Y0136586D01*
X0260943Y0135987D02*
X0271609Y0135987D01*
X0272208Y0135389D02*
X0261542Y0135389D01*
X0262140Y0134790D02*
X0272806Y0134790D01*
X0273405Y0134192D02*
X0262739Y0134192D01*
X0263337Y0133593D02*
X0274003Y0133593D01*
X0274602Y0132995D02*
X0263936Y0132995D01*
X0266850Y0132396D02*
X0275200Y0132396D01*
X0275799Y0131798D02*
X0267872Y0131798D01*
X0268471Y0131199D02*
X0276397Y0131199D01*
X0276996Y0130601D02*
X0269056Y0130601D01*
X0269304Y0130002D02*
X0277594Y0130002D01*
X0278193Y0129404D02*
X0269552Y0129404D01*
X0269800Y0128805D02*
X0278791Y0128805D01*
X0279370Y0128207D02*
X0269844Y0128207D01*
X0269844Y0127608D02*
X0279370Y0127608D01*
X0279370Y0127009D02*
X0269844Y0127009D01*
X0269759Y0126411D02*
X0279454Y0126411D01*
X0279702Y0125812D02*
X0269511Y0125812D01*
X0269263Y0125214D02*
X0279950Y0125214D01*
X0280242Y0124615D02*
X0268972Y0124615D01*
X0268373Y0124017D02*
X0280840Y0124017D01*
X0281439Y0123418D02*
X0267775Y0123418D01*
X0266615Y0122820D02*
X0282599Y0122820D01*
X0286615Y0122820D02*
X0302599Y0122820D01*
X0301640Y0123217D02*
X0303565Y0122420D01*
X0305648Y0122420D01*
X0307573Y0123217D01*
X0309046Y0124690D01*
X0309844Y0126615D01*
X0309844Y0128698D01*
X0309046Y0130623D01*
X0307573Y0132096D01*
X0305648Y0132894D01*
X0304037Y0132894D01*
X0285824Y0151107D01*
X0285824Y0164484D01*
X0286762Y0165423D01*
X0287524Y0167261D01*
X0287524Y0169250D01*
X0286762Y0171087D01*
X0285356Y0172494D01*
X0283518Y0173255D01*
X0281529Y0173255D01*
X0279691Y0172494D01*
X0278285Y0171087D01*
X0277524Y0169250D01*
X0277524Y0167261D01*
X0278285Y0165423D01*
X0279224Y0164484D01*
X0279224Y0149083D01*
X0279726Y0147870D01*
X0280654Y0146942D01*
X0299370Y0128227D01*
X0299370Y0126615D01*
X0300167Y0124690D01*
X0301640Y0123217D01*
X0301439Y0123418D02*
X0287775Y0123418D01*
X0288373Y0124017D02*
X0300840Y0124017D01*
X0300242Y0124615D02*
X0288972Y0124615D01*
X0289263Y0125214D02*
X0299950Y0125214D01*
X0299702Y0125812D02*
X0289511Y0125812D01*
X0289759Y0126411D02*
X0299454Y0126411D01*
X0299370Y0127009D02*
X0289844Y0127009D01*
X0289844Y0127608D02*
X0299370Y0127608D01*
X0299370Y0128207D02*
X0289844Y0128207D01*
X0289800Y0128805D02*
X0298791Y0128805D01*
X0298193Y0129404D02*
X0289552Y0129404D01*
X0289304Y0130002D02*
X0297594Y0130002D01*
X0296996Y0130601D02*
X0289056Y0130601D01*
X0288471Y0131199D02*
X0296397Y0131199D01*
X0295799Y0131798D02*
X0287872Y0131798D01*
X0286850Y0132396D02*
X0295200Y0132396D01*
X0294602Y0132995D02*
X0283936Y0132995D01*
X0283337Y0133593D02*
X0294003Y0133593D01*
X0293405Y0134192D02*
X0282739Y0134192D01*
X0282140Y0134790D02*
X0292806Y0134790D01*
X0292208Y0135389D02*
X0281542Y0135389D01*
X0280943Y0135987D02*
X0291609Y0135987D01*
X0291011Y0136586D02*
X0280345Y0136586D01*
X0279746Y0137184D02*
X0290412Y0137184D01*
X0289814Y0137783D02*
X0279148Y0137783D01*
X0278549Y0138381D02*
X0289215Y0138381D01*
X0288617Y0138980D02*
X0277951Y0138980D01*
X0277352Y0139578D02*
X0288018Y0139578D01*
X0287420Y0140177D02*
X0276754Y0140177D01*
X0276155Y0140775D02*
X0286821Y0140775D01*
X0286223Y0141374D02*
X0275557Y0141374D01*
X0274958Y0141972D02*
X0285624Y0141972D01*
X0285026Y0142571D02*
X0274359Y0142571D01*
X0273761Y0143169D02*
X0284427Y0143169D01*
X0283829Y0143768D02*
X0273162Y0143768D01*
X0272564Y0144366D02*
X0283230Y0144366D01*
X0282632Y0144965D02*
X0271965Y0144965D01*
X0271367Y0145563D02*
X0282033Y0145563D01*
X0281435Y0146162D02*
X0270768Y0146162D01*
X0270170Y0146760D02*
X0280836Y0146760D01*
X0280238Y0147359D02*
X0269571Y0147359D01*
X0268973Y0147957D02*
X0279690Y0147957D01*
X0279442Y0148556D02*
X0268374Y0148556D01*
X0268324Y0149154D02*
X0279224Y0149154D01*
X0279224Y0149753D02*
X0268324Y0149753D01*
X0268324Y0150351D02*
X0279224Y0150351D01*
X0279224Y0150950D02*
X0268324Y0150950D01*
X0268324Y0151548D02*
X0279224Y0151548D01*
X0279224Y0152147D02*
X0268324Y0152147D01*
X0268324Y0152745D02*
X0279224Y0152745D01*
X0279224Y0153344D02*
X0268324Y0153344D01*
X0268324Y0153942D02*
X0279224Y0153942D01*
X0279224Y0154541D02*
X0268324Y0154541D01*
X0268324Y0155140D02*
X0279224Y0155140D01*
X0279224Y0155738D02*
X0268324Y0155738D01*
X0268324Y0156337D02*
X0279224Y0156337D01*
X0279224Y0156935D02*
X0268324Y0156935D01*
X0268324Y0157534D02*
X0279224Y0157534D01*
X0279224Y0158132D02*
X0268324Y0158132D01*
X0268324Y0158731D02*
X0279224Y0158731D01*
X0279224Y0159329D02*
X0268324Y0159329D01*
X0268324Y0159928D02*
X0279224Y0159928D01*
X0279224Y0160526D02*
X0268324Y0160526D01*
X0268324Y0161125D02*
X0279224Y0161125D01*
X0279224Y0161723D02*
X0268324Y0161723D01*
X0268324Y0162322D02*
X0279224Y0162322D01*
X0279224Y0162920D02*
X0268324Y0162920D01*
X0268324Y0163519D02*
X0279224Y0163519D01*
X0279224Y0164117D02*
X0268324Y0164117D01*
X0268555Y0164716D02*
X0278992Y0164716D01*
X0278393Y0165314D02*
X0269154Y0165314D01*
X0269465Y0165913D02*
X0278082Y0165913D01*
X0277834Y0166511D02*
X0269713Y0166511D01*
X0269961Y0167110D02*
X0277586Y0167110D01*
X0277524Y0167708D02*
X0270024Y0167708D01*
X0270024Y0168307D02*
X0277524Y0168307D01*
X0277524Y0168905D02*
X0270024Y0168905D01*
X0269918Y0169504D02*
X0277629Y0169504D01*
X0277877Y0170102D02*
X0269670Y0170102D01*
X0269423Y0170701D02*
X0278125Y0170701D01*
X0278497Y0171299D02*
X0269050Y0171299D01*
X0268452Y0171898D02*
X0279095Y0171898D01*
X0279697Y0172496D02*
X0267850Y0172496D01*
X0266405Y0173095D02*
X0281142Y0173095D01*
X0283905Y0173095D02*
X0411142Y0173095D01*
X0409697Y0172496D02*
X0285350Y0172496D01*
X0285952Y0171898D02*
X0360927Y0171898D01*
X0355750Y0171299D02*
X0286550Y0171299D01*
X0286923Y0170701D02*
X0354802Y0170701D01*
X0354204Y0170102D02*
X0287170Y0170102D01*
X0287418Y0169504D02*
X0353605Y0169504D01*
X0353007Y0168905D02*
X0287524Y0168905D01*
X0287524Y0168307D02*
X0352408Y0168307D01*
X0351810Y0167708D02*
X0287524Y0167708D01*
X0287461Y0167110D02*
X0351211Y0167110D01*
X0350613Y0166511D02*
X0287213Y0166511D01*
X0286965Y0165913D02*
X0350014Y0165913D01*
X0349416Y0165314D02*
X0286654Y0165314D01*
X0286055Y0164716D02*
X0348817Y0164716D01*
X0348219Y0164117D02*
X0285824Y0164117D01*
X0285824Y0163519D02*
X0347620Y0163519D01*
X0347022Y0162920D02*
X0285824Y0162920D01*
X0285824Y0162322D02*
X0346423Y0162322D01*
X0345825Y0161723D02*
X0285824Y0161723D01*
X0285824Y0161125D02*
X0345226Y0161125D01*
X0344628Y0160526D02*
X0285824Y0160526D01*
X0285824Y0159928D02*
X0344029Y0159928D01*
X0343431Y0159329D02*
X0285824Y0159329D01*
X0285824Y0158731D02*
X0342832Y0158731D01*
X0342234Y0158132D02*
X0285824Y0158132D01*
X0285824Y0157534D02*
X0341635Y0157534D01*
X0341037Y0156935D02*
X0285824Y0156935D01*
X0285824Y0156337D02*
X0340438Y0156337D01*
X0339840Y0155738D02*
X0285824Y0155738D01*
X0285824Y0155140D02*
X0339241Y0155140D01*
X0338643Y0154541D02*
X0285824Y0154541D01*
X0285824Y0153942D02*
X0338044Y0153942D01*
X0337446Y0153344D02*
X0285824Y0153344D01*
X0285824Y0152745D02*
X0336847Y0152745D01*
X0336249Y0152147D02*
X0285824Y0152147D01*
X0285824Y0151548D02*
X0335650Y0151548D01*
X0335052Y0150950D02*
X0285980Y0150950D01*
X0286579Y0150351D02*
X0334613Y0150351D01*
X0334365Y0149753D02*
X0287177Y0149753D01*
X0287776Y0149154D02*
X0334224Y0149154D01*
X0334224Y0148556D02*
X0288374Y0148556D01*
X0288973Y0147957D02*
X0334224Y0147957D01*
X0334224Y0147359D02*
X0289571Y0147359D01*
X0290170Y0146760D02*
X0334224Y0146760D01*
X0334224Y0146162D02*
X0290768Y0146162D01*
X0291367Y0145563D02*
X0334224Y0145563D01*
X0334224Y0144965D02*
X0291965Y0144965D01*
X0292564Y0144366D02*
X0334224Y0144366D01*
X0334224Y0143768D02*
X0293162Y0143768D01*
X0293761Y0143169D02*
X0334224Y0143169D01*
X0334224Y0142571D02*
X0294359Y0142571D01*
X0294958Y0141972D02*
X0334224Y0141972D01*
X0334224Y0141374D02*
X0295557Y0141374D01*
X0296155Y0140775D02*
X0334224Y0140775D01*
X0334224Y0140177D02*
X0296754Y0140177D01*
X0297352Y0139578D02*
X0334224Y0139578D01*
X0334224Y0138980D02*
X0297951Y0138980D01*
X0298549Y0138381D02*
X0334224Y0138381D01*
X0334224Y0137783D02*
X0299148Y0137783D01*
X0299746Y0137184D02*
X0334224Y0137184D01*
X0334224Y0136586D02*
X0300345Y0136586D01*
X0300943Y0135987D02*
X0334224Y0135987D01*
X0334224Y0135389D02*
X0301542Y0135389D01*
X0302140Y0134790D02*
X0334224Y0134790D01*
X0334224Y0134192D02*
X0302739Y0134192D01*
X0303337Y0133593D02*
X0334224Y0133593D01*
X0334224Y0132995D02*
X0303936Y0132995D01*
X0306850Y0132396D02*
X0334224Y0132396D01*
X0334224Y0131798D02*
X0307872Y0131798D01*
X0308471Y0131199D02*
X0334224Y0131199D01*
X0334224Y0130601D02*
X0309056Y0130601D01*
X0309304Y0130002D02*
X0334224Y0130002D01*
X0334224Y0129404D02*
X0309552Y0129404D01*
X0309800Y0128805D02*
X0334224Y0128805D01*
X0334224Y0128207D02*
X0309844Y0128207D01*
X0309844Y0127608D02*
X0334224Y0127608D01*
X0334224Y0127009D02*
X0309844Y0127009D01*
X0309759Y0126411D02*
X0334224Y0126411D01*
X0334224Y0125812D02*
X0309511Y0125812D01*
X0309263Y0125214D02*
X0334224Y0125214D01*
X0334224Y0124615D02*
X0308972Y0124615D01*
X0308373Y0124017D02*
X0334224Y0124017D01*
X0334224Y0123418D02*
X0307775Y0123418D01*
X0306615Y0122820D02*
X0334224Y0122820D01*
X0340824Y0122820D02*
X0349224Y0122820D01*
X0349224Y0123418D02*
X0340824Y0123418D01*
X0340824Y0124017D02*
X0349224Y0124017D01*
X0349224Y0124615D02*
X0340824Y0124615D01*
X0340824Y0125214D02*
X0349224Y0125214D01*
X0349224Y0125812D02*
X0340824Y0125812D01*
X0340824Y0126411D02*
X0349224Y0126411D01*
X0349224Y0127009D02*
X0340824Y0127009D01*
X0340824Y0127608D02*
X0349224Y0127608D01*
X0349224Y0128207D02*
X0340824Y0128207D01*
X0340824Y0128805D02*
X0349387Y0128805D01*
X0349635Y0129404D02*
X0340824Y0129404D01*
X0340824Y0130002D02*
X0350104Y0130002D01*
X0350702Y0130601D02*
X0340824Y0130601D01*
X0340824Y0131199D02*
X0351301Y0131199D01*
X0351899Y0131798D02*
X0340824Y0131798D01*
X0340824Y0132396D02*
X0352498Y0132396D01*
X0353096Y0132995D02*
X0340824Y0132995D01*
X0340824Y0133593D02*
X0353695Y0133593D01*
X0354293Y0134192D02*
X0340824Y0134192D01*
X0340824Y0134790D02*
X0354892Y0134790D01*
X0355490Y0135389D02*
X0340824Y0135389D01*
X0340824Y0135987D02*
X0356089Y0135987D01*
X0356687Y0136586D02*
X0340824Y0136586D01*
X0340824Y0137184D02*
X0357286Y0137184D01*
X0357884Y0137783D02*
X0340824Y0137783D01*
X0340824Y0138381D02*
X0358483Y0138381D01*
X0359685Y0138980D02*
X0340824Y0138980D01*
X0340824Y0139578D02*
X0361362Y0139578D01*
X0368485Y0139578D02*
X0396562Y0139578D01*
X0396748Y0139655D02*
X0395314Y0139061D01*
X0394217Y0137964D01*
X0393624Y0136531D01*
X0393624Y0134979D01*
X0394217Y0133546D01*
X0395314Y0132449D01*
X0396748Y0131855D01*
X0403499Y0131855D01*
X0404933Y0132449D01*
X0406030Y0133546D01*
X0406624Y0134979D01*
X0406624Y0136531D01*
X0406030Y0137964D01*
X0404933Y0139061D01*
X0403499Y0139655D01*
X0396748Y0139655D01*
X0395233Y0138980D02*
X0369814Y0138980D01*
X0370413Y0138381D02*
X0394634Y0138381D01*
X0394142Y0137783D02*
X0370905Y0137783D01*
X0371153Y0137184D02*
X0393894Y0137184D01*
X0393646Y0136586D02*
X0371401Y0136586D01*
X0371424Y0135987D02*
X0393624Y0135987D01*
X0393624Y0135389D02*
X0371424Y0135389D01*
X0371345Y0134790D02*
X0393702Y0134790D01*
X0393950Y0134192D02*
X0371097Y0134192D01*
X0370849Y0133593D02*
X0394198Y0133593D01*
X0394769Y0132995D02*
X0370279Y0132995D01*
X0369605Y0132396D02*
X0395442Y0132396D01*
X0396748Y0129655D02*
X0395314Y0129061D01*
X0394217Y0127964D01*
X0393624Y0126531D01*
X0393624Y0124979D01*
X0394217Y0123546D01*
X0395314Y0122449D01*
X0396748Y0121855D01*
X0403499Y0121855D01*
X0404933Y0122449D01*
X0406030Y0123546D01*
X0406418Y0124482D01*
X0407891Y0125955D01*
X0417524Y0125955D01*
X0417524Y0124761D01*
X0418285Y0122923D01*
X0419691Y0121516D01*
X0421529Y0120755D01*
X0422857Y0120755D01*
X0427143Y0116469D01*
X0428071Y0115541D01*
X0429284Y0115038D01*
X0443516Y0115038D01*
X0444656Y0113898D01*
X0446580Y0113101D01*
X0448664Y0113101D01*
X0450589Y0113898D01*
X0452062Y0115372D01*
X0452859Y0117296D01*
X0452859Y0119380D01*
X0452062Y0121305D01*
X0450589Y0122778D01*
X0448664Y0123575D01*
X0446580Y0123575D01*
X0444656Y0122778D01*
X0443516Y0121638D01*
X0431307Y0121638D01*
X0427524Y0125422D01*
X0427524Y0126750D01*
X0426762Y0128587D01*
X0425356Y0129994D01*
X0423518Y0130755D01*
X0422191Y0130755D01*
X0420893Y0132053D01*
X0419680Y0132555D01*
X0405867Y0132555D01*
X0404654Y0132053D01*
X0403726Y0131124D01*
X0402257Y0129655D01*
X0396748Y0129655D01*
X0396141Y0129404D02*
X0358839Y0129404D01*
X0359437Y0130002D02*
X0402604Y0130002D01*
X0403202Y0130601D02*
X0360036Y0130601D01*
X0360634Y0131199D02*
X0403801Y0131199D01*
X0403726Y0131124D02*
X0403726Y0131124D01*
X0404399Y0131798D02*
X0361233Y0131798D01*
X0358240Y0128805D02*
X0395058Y0128805D01*
X0394460Y0128207D02*
X0357642Y0128207D01*
X0357043Y0127608D02*
X0394070Y0127608D01*
X0393822Y0127009D02*
X0356445Y0127009D01*
X0355846Y0126411D02*
X0393624Y0126411D01*
X0393624Y0125812D02*
X0355824Y0125812D01*
X0355824Y0125214D02*
X0393624Y0125214D01*
X0393774Y0124615D02*
X0355824Y0124615D01*
X0355824Y0124017D02*
X0394022Y0124017D01*
X0394345Y0123418D02*
X0355824Y0123418D01*
X0355824Y0122820D02*
X0394943Y0122820D01*
X0395864Y0122221D02*
X0355824Y0122221D01*
X0355824Y0121623D02*
X0407524Y0121623D01*
X0407524Y0121024D02*
X0355824Y0121024D01*
X0355824Y0120426D02*
X0407524Y0120426D01*
X0407524Y0119827D02*
X0355824Y0119827D01*
X0355824Y0119229D02*
X0360519Y0119229D01*
X0360114Y0119061D02*
X0359017Y0117964D01*
X0358424Y0116531D01*
X0358424Y0114979D01*
X0359017Y0113546D01*
X0360114Y0112449D01*
X0361548Y0111855D01*
X0368299Y0111855D01*
X0369733Y0112449D01*
X0370830Y0113546D01*
X0371424Y0114979D01*
X0371424Y0116531D01*
X0370830Y0117964D01*
X0369733Y0119061D01*
X0368299Y0119655D01*
X0361548Y0119655D01*
X0360114Y0119061D01*
X0359683Y0118630D02*
X0355824Y0118630D01*
X0355824Y0118032D02*
X0359085Y0118032D01*
X0358797Y0117433D02*
X0355824Y0117433D01*
X0355824Y0116835D02*
X0358550Y0116835D01*
X0358424Y0116236D02*
X0355824Y0116236D01*
X0355824Y0115638D02*
X0358424Y0115638D01*
X0358424Y0115039D02*
X0355824Y0115039D01*
X0355824Y0114441D02*
X0358647Y0114441D01*
X0358895Y0113842D02*
X0355824Y0113842D01*
X0355824Y0113244D02*
X0359320Y0113244D01*
X0359918Y0112645D02*
X0355824Y0112645D01*
X0355824Y0112047D02*
X0361085Y0112047D01*
X0355824Y0111448D02*
X0417164Y0111448D01*
X0417762Y0110850D02*
X0355824Y0110850D01*
X0355824Y0110251D02*
X0418361Y0110251D01*
X0418959Y0109653D02*
X0355824Y0109653D01*
X0355824Y0109054D02*
X0419558Y0109054D01*
X0420156Y0108456D02*
X0355824Y0108456D01*
X0355824Y0107857D02*
X0420755Y0107857D01*
X0421353Y0107259D02*
X0355824Y0107259D01*
X0355824Y0106660D02*
X0421952Y0106660D01*
X0422550Y0106062D02*
X0355824Y0106062D01*
X0355824Y0105463D02*
X0423149Y0105463D01*
X0415950Y0101638D02*
X0414737Y0101136D01*
X0409726Y0096124D01*
X0409224Y0094912D01*
X0409224Y0094526D01*
X0408753Y0094055D01*
X0404939Y0094055D01*
X0404933Y0094061D01*
X0403499Y0094655D01*
X0396748Y0094655D01*
X0395314Y0094061D01*
X0394217Y0092964D01*
X0393624Y0091531D01*
X0393624Y0089979D01*
X0394217Y0088546D01*
X0395314Y0087449D01*
X0396748Y0086855D01*
X0403499Y0086855D01*
X0404933Y0087449D01*
X0404939Y0087455D01*
X0408753Y0087455D01*
X0409691Y0086516D01*
X0411529Y0085755D01*
X0413518Y0085755D01*
X0415356Y0086516D01*
X0416762Y0087923D01*
X0417524Y0089761D01*
X0417524Y0091750D01*
X0416762Y0093587D01*
X0416643Y0093707D01*
X0417974Y0095038D01*
X0443516Y0095038D01*
X0444656Y0093898D01*
X0446580Y0093101D01*
X0448664Y0093101D01*
X0450589Y0093898D01*
X0452062Y0095372D01*
X0452859Y0097296D01*
X0452859Y0099380D01*
X0452062Y0101305D01*
X0450589Y0102778D01*
X0448664Y0103575D01*
X0446580Y0103575D01*
X0444656Y0102778D01*
X0443516Y0101638D01*
X0415950Y0101638D01*
X0415070Y0101273D02*
X0406624Y0101273D01*
X0406624Y0101531D02*
X0406030Y0102964D01*
X0404933Y0104061D01*
X0403499Y0104655D01*
X0396748Y0104655D01*
X0395314Y0104061D01*
X0394217Y0102964D01*
X0393624Y0101531D01*
X0393624Y0099979D01*
X0394217Y0098546D01*
X0395314Y0097449D01*
X0396748Y0096855D01*
X0403499Y0096855D01*
X0404933Y0097449D01*
X0406030Y0098546D01*
X0406624Y0099979D01*
X0406624Y0101531D01*
X0406482Y0101872D02*
X0443750Y0101872D01*
X0444348Y0102471D02*
X0406234Y0102471D01*
X0405925Y0103069D02*
X0445358Y0103069D01*
X0449886Y0103069D02*
X0457224Y0103069D01*
X0457224Y0102471D02*
X0450896Y0102471D01*
X0451494Y0101872D02*
X0457224Y0101872D01*
X0457224Y0101273D02*
X0452075Y0101273D01*
X0452323Y0100675D02*
X0457224Y0100675D01*
X0457224Y0100076D02*
X0452571Y0100076D01*
X0452818Y0099478D02*
X0457224Y0099478D01*
X0457224Y0098879D02*
X0452859Y0098879D01*
X0452859Y0098281D02*
X0457224Y0098281D01*
X0457224Y0097682D02*
X0452859Y0097682D01*
X0452771Y0097084D02*
X0457224Y0097084D01*
X0457224Y0096485D02*
X0452523Y0096485D01*
X0452275Y0095887D02*
X0457224Y0095887D01*
X0456890Y0095288D02*
X0451978Y0095288D01*
X0451380Y0094690D02*
X0456291Y0094690D01*
X0455693Y0094091D02*
X0450781Y0094091D01*
X0449609Y0093493D02*
X0455094Y0093493D01*
X0454496Y0092894D02*
X0424389Y0092894D01*
X0425554Y0092296D02*
X0453897Y0092296D01*
X0453299Y0091697D02*
X0426152Y0091697D01*
X0420658Y0092894D02*
X0417049Y0092894D01*
X0417297Y0092296D02*
X0419493Y0092296D01*
X0418895Y0091697D02*
X0417524Y0091697D01*
X0417524Y0091099D02*
X0418296Y0091099D01*
X0418042Y0090500D02*
X0417524Y0090500D01*
X0417524Y0089902D02*
X0417794Y0089902D01*
X0417546Y0089303D02*
X0417334Y0089303D01*
X0417524Y0088705D02*
X0417086Y0088705D01*
X0416838Y0088106D02*
X0417524Y0088106D01*
X0417524Y0087508D02*
X0416347Y0087508D01*
X0415749Y0086909D02*
X0417669Y0086909D01*
X0417917Y0086311D02*
X0414859Y0086311D01*
X0418165Y0085712D02*
X0382824Y0085712D01*
X0382824Y0085114D02*
X0418594Y0085114D01*
X0419192Y0084515D02*
X0382824Y0084515D01*
X0382824Y0083917D02*
X0419932Y0083917D01*
X0421377Y0083318D02*
X0382824Y0083318D01*
X0382824Y0082720D02*
X0444597Y0082720D01*
X0443999Y0082121D02*
X0382824Y0082121D01*
X0382824Y0081523D02*
X0443400Y0081523D01*
X0443025Y0080924D02*
X0382824Y0080924D01*
X0382824Y0080326D02*
X0442777Y0080326D01*
X0442529Y0079727D02*
X0382824Y0079727D01*
X0382629Y0079129D02*
X0442385Y0079129D01*
X0442385Y0078530D02*
X0382381Y0078530D01*
X0381867Y0077932D02*
X0442385Y0077932D01*
X0441950Y0077333D02*
X0381268Y0077333D01*
X0380670Y0076735D02*
X0441352Y0076735D01*
X0440753Y0076136D02*
X0380071Y0076136D01*
X0379473Y0075538D02*
X0440154Y0075538D01*
X0439556Y0074939D02*
X0378874Y0074939D01*
X0378276Y0074340D02*
X0438957Y0074340D01*
X0438359Y0073742D02*
X0377677Y0073742D01*
X0377079Y0073143D02*
X0437760Y0073143D01*
X0437162Y0072545D02*
X0376480Y0072545D01*
X0375882Y0071946D02*
X0396244Y0071946D01*
X0396748Y0072155D02*
X0395314Y0071561D01*
X0394217Y0070464D01*
X0393624Y0069031D01*
X0393624Y0067479D01*
X0394217Y0066046D01*
X0395314Y0064949D01*
X0396748Y0064355D01*
X0403499Y0064355D01*
X0404933Y0064949D01*
X0406030Y0066046D01*
X0406624Y0067479D01*
X0406624Y0069031D01*
X0406030Y0070464D01*
X0404933Y0071561D01*
X0403499Y0072155D01*
X0396748Y0072155D01*
X0395101Y0071348D02*
X0375128Y0071348D01*
X0371208Y0069552D02*
X0393840Y0069552D01*
X0393624Y0068954D02*
X0371424Y0068954D01*
X0371424Y0068355D02*
X0393624Y0068355D01*
X0393624Y0067757D02*
X0371424Y0067757D01*
X0371291Y0067158D02*
X0393757Y0067158D01*
X0394004Y0066560D02*
X0371043Y0066560D01*
X0370745Y0065961D02*
X0394302Y0065961D01*
X0394900Y0065363D02*
X0370147Y0065363D01*
X0369287Y0064764D02*
X0395760Y0064764D01*
X0395822Y0061772D02*
X0365444Y0061772D01*
X0366306Y0062370D02*
X0419568Y0062370D01*
X0418969Y0061772D02*
X0404425Y0061772D01*
X0404487Y0064764D02*
X0429381Y0064764D01*
X0428783Y0064166D02*
X0368101Y0064166D01*
X0367503Y0063567D02*
X0428184Y0063567D01*
X0427586Y0062969D02*
X0424209Y0062969D01*
X0425480Y0062370D02*
X0426987Y0062370D01*
X0426389Y0061772D02*
X0426078Y0061772D01*
X0420838Y0062969D02*
X0366904Y0062969D01*
X0370960Y0070151D02*
X0394088Y0070151D01*
X0394502Y0070749D02*
X0370545Y0070749D01*
X0370215Y0077932D02*
X0372533Y0077932D01*
X0373132Y0078530D02*
X0370814Y0078530D01*
X0371071Y0079129D02*
X0373730Y0079129D01*
X0374329Y0079727D02*
X0371319Y0079727D01*
X0371424Y0080326D02*
X0374927Y0080326D01*
X0375526Y0080924D02*
X0371424Y0080924D01*
X0371424Y0081523D02*
X0376124Y0081523D01*
X0376224Y0082121D02*
X0371179Y0082121D01*
X0370931Y0082720D02*
X0376224Y0082720D01*
X0376224Y0083318D02*
X0370476Y0083318D01*
X0369877Y0083917D02*
X0376224Y0083917D01*
X0376224Y0084515D02*
X0368637Y0084515D01*
X0361210Y0084515D02*
X0351451Y0084515D01*
X0352049Y0085114D02*
X0376224Y0085114D01*
X0376224Y0085712D02*
X0352648Y0085712D01*
X0353246Y0086311D02*
X0376224Y0086311D01*
X0376224Y0086909D02*
X0353845Y0086909D01*
X0354443Y0087508D02*
X0376104Y0087508D01*
X0375506Y0088106D02*
X0355042Y0088106D01*
X0355453Y0088705D02*
X0374907Y0088705D01*
X0374309Y0089303D02*
X0355701Y0089303D01*
X0355824Y0089902D02*
X0373710Y0089902D01*
X0373112Y0090500D02*
X0355824Y0090500D01*
X0355824Y0091099D02*
X0372513Y0091099D01*
X0371915Y0091697D02*
X0355824Y0091697D01*
X0355824Y0092296D02*
X0371316Y0092296D01*
X0370717Y0092894D02*
X0355824Y0092894D01*
X0355824Y0093493D02*
X0370119Y0093493D01*
X0369520Y0094091D02*
X0355824Y0094091D01*
X0355824Y0094690D02*
X0368922Y0094690D01*
X0368323Y0095288D02*
X0355824Y0095288D01*
X0355824Y0095887D02*
X0367725Y0095887D01*
X0367126Y0096485D02*
X0355824Y0096485D01*
X0355824Y0097084D02*
X0360995Y0097084D01*
X0359881Y0097682D02*
X0355824Y0097682D01*
X0355824Y0098281D02*
X0359282Y0098281D01*
X0358879Y0098879D02*
X0355824Y0098879D01*
X0355824Y0099478D02*
X0358631Y0099478D01*
X0358424Y0100076D02*
X0355824Y0100076D01*
X0355824Y0100675D02*
X0358424Y0100675D01*
X0358424Y0101273D02*
X0355824Y0101273D01*
X0355824Y0101872D02*
X0358565Y0101872D01*
X0358813Y0102471D02*
X0355824Y0102471D01*
X0355824Y0103069D02*
X0359122Y0103069D01*
X0359721Y0103668D02*
X0355824Y0103668D01*
X0355824Y0104266D02*
X0360609Y0104266D01*
X0355824Y0104865D02*
X0457224Y0104865D01*
X0457224Y0104266D02*
X0404439Y0104266D01*
X0405327Y0103668D02*
X0457224Y0103668D01*
X0457224Y0112047D02*
X0425899Y0112047D01*
X0425300Y0112645D02*
X0457224Y0112645D01*
X0457224Y0113244D02*
X0449008Y0113244D01*
X0450453Y0113842D02*
X0457224Y0113842D01*
X0457224Y0114441D02*
X0451131Y0114441D01*
X0451729Y0115039D02*
X0457224Y0115039D01*
X0457224Y0115638D02*
X0452172Y0115638D01*
X0452420Y0116236D02*
X0457224Y0116236D01*
X0457224Y0116835D02*
X0452668Y0116835D01*
X0452859Y0117433D02*
X0457224Y0117433D01*
X0457224Y0118032D02*
X0452859Y0118032D01*
X0452859Y0118630D02*
X0457224Y0118630D01*
X0457224Y0119229D02*
X0452859Y0119229D01*
X0452674Y0119827D02*
X0457224Y0119827D01*
X0457224Y0120426D02*
X0452426Y0120426D01*
X0452178Y0121024D02*
X0457224Y0121024D01*
X0457224Y0121623D02*
X0451744Y0121623D01*
X0451145Y0122221D02*
X0457224Y0122221D01*
X0457224Y0122820D02*
X0450487Y0122820D01*
X0449042Y0123418D02*
X0457224Y0123418D01*
X0457224Y0124017D02*
X0428929Y0124017D01*
X0429527Y0123418D02*
X0446202Y0123418D01*
X0444757Y0122820D02*
X0430126Y0122820D01*
X0430724Y0122221D02*
X0444099Y0122221D01*
X0444113Y0114441D02*
X0423505Y0114441D01*
X0422906Y0115039D02*
X0429282Y0115039D01*
X0427974Y0115638D02*
X0422308Y0115638D01*
X0421709Y0116236D02*
X0427376Y0116236D01*
X0426777Y0116835D02*
X0421111Y0116835D01*
X0420512Y0117433D02*
X0426179Y0117433D01*
X0425580Y0118032D02*
X0419914Y0118032D01*
X0419315Y0118630D02*
X0424982Y0118630D01*
X0424383Y0119229D02*
X0418717Y0119229D01*
X0418118Y0119827D02*
X0423784Y0119827D01*
X0423186Y0120426D02*
X0417524Y0120426D01*
X0417524Y0121024D02*
X0420879Y0121024D01*
X0419585Y0121623D02*
X0417524Y0121623D01*
X0417328Y0122221D02*
X0418986Y0122221D01*
X0418388Y0122820D02*
X0417080Y0122820D01*
X0416832Y0123418D02*
X0418080Y0123418D01*
X0417832Y0124017D02*
X0416333Y0124017D01*
X0415734Y0124615D02*
X0417584Y0124615D01*
X0417524Y0125214D02*
X0414825Y0125214D01*
X0417524Y0125812D02*
X0407748Y0125812D01*
X0407149Y0125214D02*
X0410223Y0125214D01*
X0409313Y0124615D02*
X0406551Y0124615D01*
X0406225Y0124017D02*
X0408714Y0124017D01*
X0408215Y0123418D02*
X0405902Y0123418D01*
X0405304Y0122820D02*
X0407967Y0122820D01*
X0407719Y0122221D02*
X0404384Y0122221D01*
X0407744Y0119229D02*
X0369328Y0119229D01*
X0370164Y0118630D02*
X0407992Y0118630D01*
X0408240Y0118032D02*
X0370762Y0118032D01*
X0371050Y0117433D02*
X0408774Y0117433D01*
X0409373Y0116835D02*
X0371298Y0116835D01*
X0371424Y0116236D02*
X0410367Y0116236D01*
X0412974Y0115638D02*
X0371424Y0115638D01*
X0371424Y0115039D02*
X0413573Y0115039D01*
X0414171Y0114441D02*
X0371201Y0114441D01*
X0370953Y0113842D02*
X0414770Y0113842D01*
X0415368Y0113244D02*
X0370528Y0113244D01*
X0369929Y0112645D02*
X0415967Y0112645D01*
X0416565Y0112047D02*
X0368762Y0112047D01*
X0369239Y0104266D02*
X0395809Y0104266D01*
X0394921Y0103668D02*
X0370127Y0103668D01*
X0370725Y0103069D02*
X0394322Y0103069D01*
X0394013Y0102471D02*
X0371034Y0102471D01*
X0371282Y0101872D02*
X0393765Y0101872D01*
X0393624Y0101273D02*
X0371672Y0101273D01*
X0372271Y0100675D02*
X0393624Y0100675D01*
X0393624Y0100076D02*
X0372869Y0100076D01*
X0373468Y0099478D02*
X0393831Y0099478D01*
X0394079Y0098879D02*
X0374066Y0098879D01*
X0374665Y0098281D02*
X0394482Y0098281D01*
X0395081Y0097682D02*
X0375263Y0097682D01*
X0375862Y0097084D02*
X0396195Y0097084D01*
X0395387Y0094091D02*
X0378854Y0094091D01*
X0379453Y0093493D02*
X0394746Y0093493D01*
X0394188Y0092894D02*
X0380051Y0092894D01*
X0380650Y0092296D02*
X0393940Y0092296D01*
X0393693Y0091697D02*
X0381248Y0091697D01*
X0381847Y0091099D02*
X0393624Y0091099D01*
X0393624Y0090500D02*
X0382373Y0090500D01*
X0382621Y0089902D02*
X0393656Y0089902D01*
X0393904Y0089303D02*
X0382824Y0089303D01*
X0382824Y0088705D02*
X0394152Y0088705D01*
X0394657Y0088106D02*
X0382824Y0088106D01*
X0382824Y0087508D02*
X0395256Y0087508D01*
X0396617Y0086909D02*
X0382824Y0086909D01*
X0382824Y0086311D02*
X0410188Y0086311D01*
X0409298Y0086909D02*
X0403630Y0086909D01*
X0416802Y0093493D02*
X0445635Y0093493D01*
X0444463Y0094091D02*
X0417027Y0094091D01*
X0417625Y0094690D02*
X0443864Y0094690D01*
X0445960Y0083318D02*
X0423670Y0083318D01*
X0436563Y0071946D02*
X0404003Y0071946D01*
X0405146Y0071348D02*
X0435965Y0071348D01*
X0435366Y0070749D02*
X0405745Y0070749D01*
X0406160Y0070151D02*
X0434768Y0070151D01*
X0434169Y0069552D02*
X0406408Y0069552D01*
X0406624Y0068954D02*
X0433571Y0068954D01*
X0432972Y0068355D02*
X0406624Y0068355D01*
X0406624Y0067757D02*
X0432374Y0067757D01*
X0431775Y0067158D02*
X0406491Y0067158D01*
X0406243Y0066560D02*
X0431177Y0066560D01*
X0430578Y0065961D02*
X0405945Y0065961D01*
X0405347Y0065363D02*
X0429980Y0065363D01*
X0394926Y0061173D02*
X0341013Y0061173D01*
X0340414Y0060575D02*
X0394328Y0060575D01*
X0394015Y0059976D02*
X0339052Y0059976D01*
X0335811Y0069552D02*
X0309236Y0069552D01*
X0305926Y0069505D02*
X0304691Y0068994D01*
X0303285Y0067587D01*
X0302524Y0065750D01*
X0302524Y0063761D01*
X0303285Y0061923D01*
X0304224Y0060984D01*
X0304224Y0045122D01*
X0297157Y0038055D01*
X0282524Y0038055D01*
X0282524Y0039250D01*
X0281762Y0041087D01*
X0280356Y0042494D01*
X0278518Y0043255D01*
X0276529Y0043255D01*
X0274691Y0042494D01*
X0273285Y0041087D01*
X0272524Y0039250D01*
X0272524Y0037261D01*
X0272524Y0039250D01*
X0271762Y0041087D01*
X0270824Y0042026D01*
X0270824Y0043888D01*
X0297891Y0070955D01*
X0303753Y0070955D01*
X0304691Y0070016D01*
X0305926Y0069505D01*
X0305811Y0069552D02*
X0296488Y0069552D01*
X0295889Y0068954D02*
X0304651Y0068954D01*
X0304053Y0068355D02*
X0295291Y0068355D01*
X0294692Y0067757D02*
X0303454Y0067757D01*
X0303107Y0067158D02*
X0294094Y0067158D01*
X0293495Y0066560D02*
X0302859Y0066560D01*
X0302611Y0065961D02*
X0292897Y0065961D01*
X0292298Y0065363D02*
X0302524Y0065363D01*
X0302524Y0064764D02*
X0291700Y0064764D01*
X0291101Y0064166D02*
X0302524Y0064166D01*
X0302604Y0063567D02*
X0290503Y0063567D01*
X0289904Y0062969D02*
X0302852Y0062969D01*
X0303099Y0062370D02*
X0289306Y0062370D01*
X0288707Y0061772D02*
X0303436Y0061772D01*
X0304034Y0061173D02*
X0288109Y0061173D01*
X0287510Y0060575D02*
X0304224Y0060575D01*
X0304224Y0059976D02*
X0286912Y0059976D01*
X0286313Y0059378D02*
X0304224Y0059378D01*
X0304224Y0058779D02*
X0285715Y0058779D01*
X0285116Y0058181D02*
X0304224Y0058181D01*
X0304224Y0057582D02*
X0284518Y0057582D01*
X0283919Y0056984D02*
X0304224Y0056984D01*
X0304224Y0056385D02*
X0283321Y0056385D01*
X0282722Y0055787D02*
X0304224Y0055787D01*
X0304224Y0055188D02*
X0282124Y0055188D01*
X0281525Y0054590D02*
X0304224Y0054590D01*
X0304224Y0053991D02*
X0280927Y0053991D01*
X0280328Y0053393D02*
X0304224Y0053393D01*
X0304224Y0052794D02*
X0279729Y0052794D01*
X0279131Y0052196D02*
X0304224Y0052196D01*
X0304224Y0051597D02*
X0278532Y0051597D01*
X0277934Y0050999D02*
X0304224Y0050999D01*
X0304224Y0050400D02*
X0277335Y0050400D01*
X0276737Y0049802D02*
X0304224Y0049802D01*
X0304224Y0049203D02*
X0276138Y0049203D01*
X0275540Y0048605D02*
X0304224Y0048605D01*
X0304224Y0048006D02*
X0274941Y0048006D01*
X0274343Y0047407D02*
X0304224Y0047407D01*
X0304224Y0046809D02*
X0273744Y0046809D01*
X0273146Y0046210D02*
X0304224Y0046210D01*
X0304224Y0045612D02*
X0272547Y0045612D01*
X0271949Y0045013D02*
X0304115Y0045013D01*
X0303517Y0044415D02*
X0271350Y0044415D01*
X0270824Y0043816D02*
X0302918Y0043816D01*
X0302320Y0043218D02*
X0278608Y0043218D01*
X0280053Y0042619D02*
X0301721Y0042619D01*
X0301122Y0042021D02*
X0280829Y0042021D01*
X0281427Y0041422D02*
X0300524Y0041422D01*
X0299925Y0040824D02*
X0281872Y0040824D01*
X0282119Y0040225D02*
X0299327Y0040225D01*
X0298728Y0039627D02*
X0282367Y0039627D01*
X0282524Y0039028D02*
X0298130Y0039028D01*
X0297531Y0038430D02*
X0282524Y0038430D01*
X0274994Y0042619D02*
X0270824Y0042619D01*
X0270829Y0042021D02*
X0274218Y0042021D01*
X0273620Y0041422D02*
X0271427Y0041422D01*
X0271872Y0040824D02*
X0273176Y0040824D01*
X0272928Y0040225D02*
X0272119Y0040225D01*
X0272367Y0039627D02*
X0272680Y0039627D01*
X0272524Y0039028D02*
X0272524Y0039028D01*
X0272524Y0038430D02*
X0272524Y0038430D01*
X0272524Y0037831D02*
X0272524Y0037831D01*
X0272512Y0037233D02*
X0272535Y0037233D01*
X0272783Y0036634D02*
X0272264Y0036634D01*
X0272016Y0036036D02*
X0273031Y0036036D01*
X0273279Y0035437D02*
X0271768Y0035437D01*
X0271178Y0034839D02*
X0273869Y0034839D01*
X0274467Y0034240D02*
X0270580Y0034240D01*
X0269452Y0033642D02*
X0275596Y0033642D01*
X0265596Y0033642D02*
X0259452Y0033642D01*
X0260580Y0034240D02*
X0264467Y0034240D01*
X0263869Y0034839D02*
X0261178Y0034839D01*
X0261768Y0035437D02*
X0263279Y0035437D01*
X0263031Y0036036D02*
X0262016Y0036036D01*
X0262264Y0036634D02*
X0262783Y0036634D01*
X0262535Y0037233D02*
X0262512Y0037233D01*
X0262524Y0037261D02*
X0262524Y0039250D01*
X0262524Y0037261D01*
X0262524Y0037831D02*
X0262524Y0037831D01*
X0262524Y0038430D02*
X0262524Y0038430D01*
X0262524Y0039028D02*
X0262524Y0039028D01*
X0262524Y0039250D02*
X0263285Y0041087D01*
X0264224Y0042026D01*
X0264224Y0045912D01*
X0264726Y0047124D01*
X0265654Y0048053D01*
X0294654Y0077053D01*
X0295867Y0077555D01*
X0303753Y0077555D01*
X0304691Y0078494D01*
X0305322Y0078755D01*
X0304691Y0079016D01*
X0303753Y0079955D01*
X0294891Y0079955D01*
X0260824Y0045888D01*
X0260824Y0042026D01*
X0261762Y0041087D01*
X0262524Y0039250D01*
X0262367Y0039627D02*
X0262680Y0039627D01*
X0262928Y0040225D02*
X0262119Y0040225D01*
X0261872Y0040824D02*
X0263176Y0040824D01*
X0263620Y0041422D02*
X0261427Y0041422D01*
X0260829Y0042021D02*
X0264218Y0042021D01*
X0264224Y0042619D02*
X0260824Y0042619D01*
X0260824Y0043218D02*
X0264224Y0043218D01*
X0264224Y0043816D02*
X0260824Y0043816D01*
X0260824Y0044415D02*
X0264224Y0044415D01*
X0264224Y0045013D02*
X0260824Y0045013D01*
X0260824Y0045612D02*
X0264224Y0045612D01*
X0264347Y0046210D02*
X0261146Y0046210D01*
X0261744Y0046809D02*
X0264595Y0046809D01*
X0265009Y0047407D02*
X0262343Y0047407D01*
X0262941Y0048006D02*
X0265608Y0048006D01*
X0266206Y0048605D02*
X0263540Y0048605D01*
X0264138Y0049203D02*
X0266805Y0049203D01*
X0267403Y0049802D02*
X0264737Y0049802D01*
X0265335Y0050400D02*
X0268002Y0050400D01*
X0268600Y0050999D02*
X0265934Y0050999D01*
X0266532Y0051597D02*
X0269199Y0051597D01*
X0269797Y0052196D02*
X0267131Y0052196D01*
X0267729Y0052794D02*
X0270396Y0052794D01*
X0270994Y0053393D02*
X0268328Y0053393D01*
X0268927Y0053991D02*
X0271593Y0053991D01*
X0272191Y0054590D02*
X0269525Y0054590D01*
X0270124Y0055188D02*
X0272790Y0055188D01*
X0273388Y0055787D02*
X0270722Y0055787D01*
X0271321Y0056385D02*
X0273987Y0056385D01*
X0274585Y0056984D02*
X0271919Y0056984D01*
X0272518Y0057582D02*
X0275184Y0057582D01*
X0275782Y0058181D02*
X0273116Y0058181D01*
X0273715Y0058779D02*
X0276381Y0058779D01*
X0276979Y0059378D02*
X0274313Y0059378D01*
X0274912Y0059976D02*
X0277578Y0059976D01*
X0278176Y0060575D02*
X0275510Y0060575D01*
X0276109Y0061173D02*
X0278775Y0061173D01*
X0279373Y0061772D02*
X0276707Y0061772D01*
X0277306Y0062370D02*
X0279972Y0062370D01*
X0280570Y0062969D02*
X0277904Y0062969D01*
X0278503Y0063567D02*
X0281169Y0063567D01*
X0281767Y0064166D02*
X0279101Y0064166D01*
X0279700Y0064764D02*
X0282366Y0064764D01*
X0282964Y0065363D02*
X0280298Y0065363D01*
X0280897Y0065961D02*
X0283563Y0065961D01*
X0284161Y0066560D02*
X0281495Y0066560D01*
X0282094Y0067158D02*
X0284760Y0067158D01*
X0285358Y0067757D02*
X0282692Y0067757D01*
X0283291Y0068355D02*
X0285957Y0068355D01*
X0286555Y0068954D02*
X0283889Y0068954D01*
X0284488Y0069552D02*
X0287154Y0069552D01*
X0287753Y0070151D02*
X0285086Y0070151D01*
X0285685Y0070749D02*
X0288351Y0070749D01*
X0288950Y0071348D02*
X0286283Y0071348D01*
X0286882Y0071946D02*
X0289548Y0071946D01*
X0290147Y0072545D02*
X0287480Y0072545D01*
X0288079Y0073143D02*
X0290745Y0073143D01*
X0291344Y0073742D02*
X0288677Y0073742D01*
X0289276Y0074340D02*
X0291942Y0074340D01*
X0292541Y0074939D02*
X0289874Y0074939D01*
X0290473Y0075538D02*
X0293139Y0075538D01*
X0293738Y0076136D02*
X0291071Y0076136D01*
X0291670Y0076735D02*
X0294336Y0076735D01*
X0295331Y0077333D02*
X0292268Y0077333D01*
X0292867Y0077932D02*
X0304129Y0077932D01*
X0304779Y0078530D02*
X0293465Y0078530D01*
X0294064Y0079129D02*
X0304579Y0079129D01*
X0303981Y0079727D02*
X0294662Y0079727D01*
X0290117Y0084515D02*
X0287451Y0084515D01*
X0288049Y0085114D02*
X0290715Y0085114D01*
X0291314Y0085712D02*
X0288648Y0085712D01*
X0289246Y0086311D02*
X0292277Y0086311D01*
X0292867Y0086555D02*
X0291654Y0086053D01*
X0255654Y0050053D01*
X0254726Y0049124D01*
X0254224Y0047912D01*
X0254224Y0042026D01*
X0253285Y0041087D01*
X0252524Y0039250D01*
X0252524Y0037261D01*
X0252524Y0039250D01*
X0251762Y0041087D01*
X0250824Y0042026D01*
X0250824Y0047888D01*
X0291391Y0088455D01*
X0303753Y0088455D01*
X0304691Y0087516D01*
X0304718Y0087505D01*
X0304691Y0087494D01*
X0303753Y0086555D01*
X0292867Y0086555D01*
X0291042Y0088106D02*
X0304101Y0088106D01*
X0304712Y0087508D02*
X0290443Y0087508D01*
X0289845Y0086909D02*
X0304107Y0086909D01*
X0303986Y0095288D02*
X0101642Y0095288D01*
X0102240Y0094690D02*
X0288485Y0094690D01*
X0287693Y0094091D02*
X0102839Y0094091D01*
X0103437Y0093493D02*
X0287094Y0093493D01*
X0286496Y0092894D02*
X0104036Y0092894D01*
X0104634Y0092296D02*
X0285897Y0092296D01*
X0285299Y0091697D02*
X0105233Y0091697D01*
X0105831Y0091099D02*
X0284700Y0091099D01*
X0284102Y0090500D02*
X0106430Y0090500D01*
X0107028Y0089902D02*
X0283503Y0089902D01*
X0282905Y0089303D02*
X0107627Y0089303D01*
X0108226Y0088705D02*
X0282306Y0088705D01*
X0281708Y0088106D02*
X0108824Y0088106D01*
X0109423Y0087508D02*
X0281109Y0087508D01*
X0280511Y0086909D02*
X0110021Y0086909D01*
X0110620Y0086311D02*
X0209956Y0086311D01*
X0208910Y0085712D02*
X0111218Y0085712D01*
X0111817Y0085114D02*
X0208311Y0085114D01*
X0214091Y0086311D02*
X0227456Y0086311D01*
X0226410Y0085712D02*
X0215138Y0085712D01*
X0215736Y0085114D02*
X0225811Y0085114D01*
X0225255Y0084515D02*
X0216292Y0084515D01*
X0216540Y0083917D02*
X0225007Y0083917D01*
X0224759Y0083318D02*
X0216788Y0083318D01*
X0217024Y0082720D02*
X0224524Y0082720D01*
X0224524Y0082121D02*
X0217024Y0082121D01*
X0217024Y0081523D02*
X0224524Y0081523D01*
X0224524Y0080924D02*
X0217024Y0080924D01*
X0216843Y0080326D02*
X0224704Y0080326D01*
X0224952Y0079727D02*
X0216596Y0079727D01*
X0216348Y0079129D02*
X0225200Y0079129D01*
X0225678Y0078530D02*
X0215870Y0078530D01*
X0215271Y0077932D02*
X0226224Y0077932D01*
X0226224Y0077333D02*
X0214413Y0077333D01*
X0209634Y0077333D02*
X0082613Y0077333D01*
X0083211Y0076735D02*
X0226224Y0076735D01*
X0226224Y0076136D02*
X0083810Y0076136D01*
X0084408Y0075538D02*
X0226049Y0075538D01*
X0225450Y0074939D02*
X0085007Y0074939D01*
X0085605Y0074340D02*
X0224852Y0074340D01*
X0224253Y0073742D02*
X0086204Y0073742D01*
X0086802Y0073143D02*
X0223655Y0073143D01*
X0223056Y0072545D02*
X0087401Y0072545D01*
X0087999Y0071946D02*
X0222458Y0071946D01*
X0221859Y0071348D02*
X0088598Y0071348D01*
X0082014Y0077932D02*
X0208776Y0077932D01*
X0227003Y0067158D02*
X0260760Y0067158D01*
X0260161Y0066560D02*
X0226405Y0066560D01*
X0225806Y0065961D02*
X0259563Y0065961D01*
X0258964Y0065363D02*
X0225208Y0065363D01*
X0224053Y0064764D02*
X0258366Y0064764D01*
X0261358Y0067757D02*
X0227602Y0067757D01*
X0228200Y0068355D02*
X0261957Y0068355D01*
X0262555Y0068954D02*
X0228799Y0068954D01*
X0229397Y0069552D02*
X0263154Y0069552D01*
X0263753Y0070151D02*
X0229996Y0070151D01*
X0230594Y0070749D02*
X0264351Y0070749D01*
X0264950Y0071348D02*
X0231193Y0071348D01*
X0231791Y0071946D02*
X0265548Y0071946D01*
X0266147Y0072545D02*
X0232350Y0072545D01*
X0232598Y0073143D02*
X0266745Y0073143D01*
X0267344Y0073742D02*
X0232824Y0073742D01*
X0232824Y0074340D02*
X0267942Y0074340D01*
X0268541Y0074939D02*
X0232824Y0074939D01*
X0232824Y0075538D02*
X0269139Y0075538D01*
X0269738Y0076136D02*
X0232824Y0076136D01*
X0232824Y0076735D02*
X0270336Y0076735D01*
X0270935Y0077333D02*
X0232824Y0077333D01*
X0232824Y0077932D02*
X0271533Y0077932D01*
X0272132Y0078530D02*
X0233370Y0078530D01*
X0233848Y0079129D02*
X0272730Y0079129D01*
X0273329Y0079727D02*
X0234096Y0079727D01*
X0234343Y0080326D02*
X0273927Y0080326D01*
X0274526Y0080924D02*
X0234524Y0080924D01*
X0234524Y0081523D02*
X0275124Y0081523D01*
X0275723Y0082121D02*
X0234524Y0082121D01*
X0234524Y0082720D02*
X0276321Y0082720D01*
X0276920Y0083318D02*
X0234288Y0083318D01*
X0234040Y0083917D02*
X0277518Y0083917D01*
X0278117Y0084515D02*
X0233792Y0084515D01*
X0233236Y0085114D02*
X0278715Y0085114D01*
X0279314Y0085712D02*
X0232638Y0085712D01*
X0231591Y0086311D02*
X0279912Y0086311D01*
X0284458Y0081523D02*
X0287124Y0081523D01*
X0287723Y0082121D02*
X0285057Y0082121D01*
X0285655Y0082720D02*
X0288321Y0082720D01*
X0288920Y0083318D02*
X0286254Y0083318D01*
X0286852Y0083917D02*
X0289518Y0083917D01*
X0286526Y0080924D02*
X0283860Y0080924D01*
X0283261Y0080326D02*
X0285927Y0080326D01*
X0285329Y0079727D02*
X0282662Y0079727D01*
X0282064Y0079129D02*
X0284730Y0079129D01*
X0284132Y0078530D02*
X0281465Y0078530D01*
X0280867Y0077932D02*
X0283533Y0077932D01*
X0282935Y0077333D02*
X0280268Y0077333D01*
X0279670Y0076735D02*
X0282336Y0076735D01*
X0281738Y0076136D02*
X0279071Y0076136D01*
X0278473Y0075538D02*
X0281139Y0075538D01*
X0280541Y0074939D02*
X0277874Y0074939D01*
X0277276Y0074340D02*
X0279942Y0074340D01*
X0279344Y0073742D02*
X0276677Y0073742D01*
X0276079Y0073143D02*
X0278745Y0073143D01*
X0278147Y0072545D02*
X0275480Y0072545D01*
X0274882Y0071946D02*
X0277548Y0071946D01*
X0276950Y0071348D02*
X0274283Y0071348D01*
X0273685Y0070749D02*
X0276351Y0070749D01*
X0275753Y0070151D02*
X0273086Y0070151D01*
X0272488Y0069552D02*
X0275154Y0069552D01*
X0274555Y0068954D02*
X0271889Y0068954D01*
X0271291Y0068355D02*
X0273957Y0068355D01*
X0273358Y0067757D02*
X0270692Y0067757D01*
X0270094Y0067158D02*
X0272760Y0067158D01*
X0272161Y0066560D02*
X0269495Y0066560D01*
X0268897Y0065961D02*
X0271563Y0065961D01*
X0270964Y0065363D02*
X0268298Y0065363D01*
X0267700Y0064764D02*
X0270366Y0064764D01*
X0269767Y0064166D02*
X0267101Y0064166D01*
X0266503Y0063567D02*
X0269169Y0063567D01*
X0268570Y0062969D02*
X0265904Y0062969D01*
X0265306Y0062370D02*
X0267972Y0062370D01*
X0267373Y0061772D02*
X0264707Y0061772D01*
X0264109Y0061173D02*
X0266775Y0061173D01*
X0266176Y0060575D02*
X0263510Y0060575D01*
X0262912Y0059976D02*
X0265578Y0059976D01*
X0264979Y0059378D02*
X0262313Y0059378D01*
X0261715Y0058779D02*
X0264381Y0058779D01*
X0263782Y0058181D02*
X0261116Y0058181D01*
X0260518Y0057582D02*
X0263184Y0057582D01*
X0262585Y0056984D02*
X0259919Y0056984D01*
X0259321Y0056385D02*
X0261987Y0056385D01*
X0261388Y0055787D02*
X0258722Y0055787D01*
X0258124Y0055188D02*
X0260790Y0055188D01*
X0260191Y0054590D02*
X0257525Y0054590D01*
X0256927Y0053991D02*
X0259593Y0053991D01*
X0258994Y0053393D02*
X0256328Y0053393D01*
X0255729Y0052794D02*
X0258396Y0052794D01*
X0257797Y0052196D02*
X0255131Y0052196D01*
X0254532Y0051597D02*
X0257199Y0051597D01*
X0256600Y0050999D02*
X0253934Y0050999D01*
X0253335Y0050400D02*
X0256002Y0050400D01*
X0255403Y0049802D02*
X0252737Y0049802D01*
X0252138Y0049203D02*
X0254805Y0049203D01*
X0254511Y0048605D02*
X0251540Y0048605D01*
X0250941Y0048006D02*
X0254263Y0048006D01*
X0254224Y0047407D02*
X0250824Y0047407D01*
X0250824Y0046809D02*
X0254224Y0046809D01*
X0254224Y0046210D02*
X0250824Y0046210D01*
X0250824Y0045612D02*
X0254224Y0045612D01*
X0254224Y0045013D02*
X0250824Y0045013D01*
X0250824Y0044415D02*
X0254224Y0044415D01*
X0254224Y0043816D02*
X0250824Y0043816D01*
X0250824Y0043218D02*
X0254224Y0043218D01*
X0254224Y0042619D02*
X0250824Y0042619D01*
X0250829Y0042021D02*
X0254218Y0042021D01*
X0253620Y0041422D02*
X0251427Y0041422D01*
X0251872Y0040824D02*
X0253176Y0040824D01*
X0252928Y0040225D02*
X0252119Y0040225D01*
X0252367Y0039627D02*
X0252680Y0039627D01*
X0252524Y0039028D02*
X0252524Y0039028D01*
X0252524Y0038430D02*
X0252524Y0038430D01*
X0252524Y0037831D02*
X0252524Y0037831D01*
X0252512Y0037233D02*
X0252535Y0037233D01*
X0252783Y0036634D02*
X0252264Y0036634D01*
X0252016Y0036036D02*
X0253031Y0036036D01*
X0253279Y0035437D02*
X0251768Y0035437D01*
X0251178Y0034839D02*
X0253869Y0034839D01*
X0254467Y0034240D02*
X0250580Y0034240D01*
X0249452Y0033642D02*
X0255596Y0033642D01*
X0245596Y0033642D02*
X0239452Y0033642D01*
X0240580Y0034240D02*
X0244467Y0034240D01*
X0243869Y0034839D02*
X0241178Y0034839D01*
X0241768Y0035437D02*
X0243279Y0035437D01*
X0243031Y0036036D02*
X0242016Y0036036D01*
X0242264Y0036634D02*
X0242783Y0036634D01*
X0242535Y0037233D02*
X0242512Y0037233D01*
X0242524Y0037831D02*
X0242524Y0037831D01*
X0242524Y0038430D02*
X0242524Y0038430D01*
X0242524Y0039028D02*
X0242524Y0039028D01*
X0242680Y0039627D02*
X0242367Y0039627D01*
X0242119Y0040225D02*
X0242928Y0040225D01*
X0243176Y0040824D02*
X0241872Y0040824D01*
X0241427Y0041422D02*
X0243620Y0041422D01*
X0244218Y0042021D02*
X0240829Y0042021D01*
X0240824Y0042619D02*
X0244224Y0042619D01*
X0244224Y0043218D02*
X0240824Y0043218D01*
X0240824Y0043816D02*
X0244224Y0043816D01*
X0244224Y0044415D02*
X0240824Y0044415D01*
X0240824Y0045013D02*
X0244224Y0045013D01*
X0244224Y0045612D02*
X0240824Y0045612D01*
X0240824Y0046210D02*
X0244224Y0046210D01*
X0244224Y0046809D02*
X0240824Y0046809D01*
X0240824Y0047407D02*
X0244224Y0047407D01*
X0244224Y0048006D02*
X0240846Y0048006D01*
X0241444Y0048605D02*
X0244224Y0048605D01*
X0244224Y0049203D02*
X0241878Y0049203D01*
X0242126Y0049802D02*
X0244224Y0049802D01*
X0244426Y0050400D02*
X0242374Y0050400D01*
X0242524Y0050999D02*
X0244674Y0050999D01*
X0245199Y0051597D02*
X0242524Y0051597D01*
X0242524Y0052196D02*
X0245797Y0052196D01*
X0246396Y0052794D02*
X0242505Y0052794D01*
X0242257Y0053393D02*
X0246994Y0053393D01*
X0247593Y0053991D02*
X0242009Y0053991D01*
X0241760Y0054590D02*
X0248191Y0054590D01*
X0248790Y0055188D02*
X0241162Y0055188D01*
X0240563Y0055787D02*
X0249388Y0055787D01*
X0234224Y0047984D02*
X0234224Y0042026D01*
X0233285Y0041087D01*
X0232524Y0039250D01*
X0232524Y0037261D01*
X0232524Y0039250D01*
X0231762Y0041087D01*
X0230356Y0042494D01*
X0228518Y0043255D01*
X0227191Y0043255D01*
X0223324Y0047122D01*
X0223324Y0047984D01*
X0224262Y0048923D01*
X0224774Y0050157D01*
X0225285Y0048923D01*
X0226691Y0047516D01*
X0228529Y0046755D01*
X0230518Y0046755D01*
X0232356Y0047516D01*
X0233295Y0048455D01*
X0233753Y0048455D01*
X0234224Y0047984D01*
X0234202Y0048006D02*
X0232846Y0048006D01*
X0232093Y0047407D02*
X0234224Y0047407D01*
X0234224Y0046809D02*
X0230648Y0046809D01*
X0228399Y0046809D02*
X0223637Y0046809D01*
X0223324Y0047407D02*
X0226954Y0047407D01*
X0226202Y0048006D02*
X0223346Y0048006D01*
X0223944Y0048605D02*
X0225603Y0048605D01*
X0225169Y0049203D02*
X0224378Y0049203D01*
X0224626Y0049802D02*
X0224921Y0049802D01*
X0224235Y0046210D02*
X0234224Y0046210D01*
X0234224Y0045612D02*
X0224834Y0045612D01*
X0225432Y0045013D02*
X0234224Y0045013D01*
X0234224Y0044415D02*
X0226031Y0044415D01*
X0226629Y0043816D02*
X0234224Y0043816D01*
X0234224Y0043218D02*
X0228608Y0043218D01*
X0230053Y0042619D02*
X0234224Y0042619D01*
X0234218Y0042021D02*
X0230829Y0042021D01*
X0231427Y0041422D02*
X0233620Y0041422D01*
X0233176Y0040824D02*
X0231872Y0040824D01*
X0232119Y0040225D02*
X0232928Y0040225D01*
X0232680Y0039627D02*
X0232367Y0039627D01*
X0232524Y0039028D02*
X0232524Y0039028D01*
X0232524Y0038430D02*
X0232524Y0038430D01*
X0232524Y0037831D02*
X0232524Y0037831D01*
X0232512Y0037233D02*
X0232535Y0037233D01*
X0232783Y0036634D02*
X0232264Y0036634D01*
X0232016Y0036036D02*
X0233031Y0036036D01*
X0233279Y0035437D02*
X0231768Y0035437D01*
X0231178Y0034839D02*
X0233869Y0034839D01*
X0234467Y0034240D02*
X0230580Y0034240D01*
X0229452Y0033642D02*
X0235596Y0033642D01*
X0225596Y0033642D02*
X0209452Y0033642D01*
X0210580Y0034240D02*
X0224467Y0034240D01*
X0223869Y0034839D02*
X0211178Y0034839D01*
X0211768Y0035437D02*
X0223279Y0035437D01*
X0223031Y0036036D02*
X0212016Y0036036D01*
X0212264Y0036634D02*
X0222783Y0036634D01*
X0222535Y0037233D02*
X0212512Y0037233D01*
X0212524Y0037831D02*
X0222524Y0037831D01*
X0222524Y0038430D02*
X0212524Y0038430D01*
X0212524Y0039028D02*
X0222084Y0039028D01*
X0221485Y0039627D02*
X0212367Y0039627D01*
X0212119Y0040225D02*
X0220886Y0040225D01*
X0220288Y0040824D02*
X0211872Y0040824D01*
X0211427Y0041422D02*
X0219689Y0041422D01*
X0219091Y0042021D02*
X0210829Y0042021D01*
X0210053Y0042619D02*
X0218492Y0042619D01*
X0216724Y0046809D02*
X0213148Y0046809D01*
X0214593Y0047407D02*
X0216724Y0047407D01*
X0216702Y0048006D02*
X0215346Y0048006D01*
X0166439Y0043218D02*
X0158608Y0043218D01*
X0160053Y0042619D02*
X0164994Y0042619D01*
X0164218Y0042021D02*
X0160829Y0042021D01*
X0161427Y0041422D02*
X0163620Y0041422D01*
X0163176Y0040824D02*
X0161872Y0040824D01*
X0162119Y0040225D02*
X0162928Y0040225D01*
X0162680Y0039627D02*
X0162367Y0039627D01*
X0162524Y0039028D02*
X0162524Y0039028D01*
X0162524Y0038430D02*
X0162524Y0038430D01*
X0162524Y0037831D02*
X0162524Y0037831D01*
X0162512Y0037233D02*
X0162535Y0037233D01*
X0162783Y0036634D02*
X0162264Y0036634D01*
X0162016Y0036036D02*
X0163031Y0036036D01*
X0163279Y0035437D02*
X0161768Y0035437D01*
X0161178Y0034839D02*
X0163869Y0034839D01*
X0164467Y0034240D02*
X0160580Y0034240D01*
X0159452Y0033642D02*
X0165596Y0033642D01*
X0155596Y0033642D02*
X0149452Y0033642D01*
X0150580Y0034240D02*
X0154467Y0034240D01*
X0153869Y0034839D02*
X0151178Y0034839D01*
X0151768Y0035437D02*
X0153279Y0035437D01*
X0153031Y0036036D02*
X0152016Y0036036D01*
X0152264Y0036634D02*
X0152783Y0036634D01*
X0152535Y0037233D02*
X0152512Y0037233D01*
X0152524Y0037831D02*
X0152524Y0037831D01*
X0152524Y0038430D02*
X0152524Y0038430D01*
X0152524Y0039028D02*
X0152524Y0039028D01*
X0152680Y0039627D02*
X0152367Y0039627D01*
X0152119Y0040225D02*
X0152928Y0040225D01*
X0153176Y0040824D02*
X0151872Y0040824D01*
X0151427Y0041422D02*
X0153620Y0041422D01*
X0154218Y0042021D02*
X0150829Y0042021D01*
X0150053Y0042619D02*
X0154994Y0042619D01*
X0156439Y0043218D02*
X0148608Y0043218D01*
X0146439Y0043218D02*
X0138608Y0043218D01*
X0140053Y0042619D02*
X0144994Y0042619D01*
X0144218Y0042021D02*
X0140829Y0042021D01*
X0141427Y0041422D02*
X0143620Y0041422D01*
X0143176Y0040824D02*
X0141872Y0040824D01*
X0142119Y0040225D02*
X0142928Y0040225D01*
X0142680Y0039627D02*
X0142367Y0039627D01*
X0142524Y0039028D02*
X0142524Y0039028D01*
X0142524Y0038430D02*
X0142524Y0038430D01*
X0142524Y0037831D02*
X0142524Y0037831D01*
X0142512Y0037233D02*
X0142535Y0037233D01*
X0142783Y0036634D02*
X0142264Y0036634D01*
X0142016Y0036036D02*
X0143031Y0036036D01*
X0143279Y0035437D02*
X0141768Y0035437D01*
X0141178Y0034839D02*
X0143869Y0034839D01*
X0144467Y0034240D02*
X0140580Y0034240D01*
X0139452Y0033642D02*
X0145596Y0033642D01*
X0134994Y0042619D02*
X0114476Y0042619D01*
X0114765Y0043218D02*
X0136439Y0043218D01*
X0134218Y0042021D02*
X0113877Y0042021D01*
X0113279Y0041422D02*
X0133620Y0041422D01*
X0133176Y0040824D02*
X0112124Y0040824D01*
X0109671Y0078530D02*
X0081416Y0078530D01*
X0080817Y0079129D02*
X0108468Y0079129D01*
X0107869Y0079727D02*
X0080219Y0079727D01*
X0079620Y0080326D02*
X0107271Y0080326D01*
X0106672Y0080924D02*
X0079022Y0080924D01*
X0078423Y0081523D02*
X0106074Y0081523D01*
X0105475Y0082121D02*
X0077824Y0082121D01*
X0077226Y0082720D02*
X0104877Y0082720D01*
X0104278Y0083318D02*
X0076627Y0083318D01*
X0076029Y0083917D02*
X0103680Y0083917D01*
X0103081Y0084515D02*
X0075430Y0084515D01*
X0074832Y0085114D02*
X0102483Y0085114D01*
X0101884Y0085712D02*
X0074233Y0085712D01*
X0073635Y0086311D02*
X0101286Y0086311D01*
X0100687Y0086909D02*
X0073036Y0086909D01*
X0072438Y0087508D02*
X0100089Y0087508D01*
X0099490Y0088106D02*
X0071839Y0088106D01*
X0071241Y0088705D02*
X0098892Y0088705D01*
X0098293Y0089303D02*
X0070642Y0089303D01*
X0070044Y0089902D02*
X0097695Y0089902D01*
X0097096Y0090500D02*
X0069445Y0090500D01*
X0068847Y0091099D02*
X0096498Y0091099D01*
X0095899Y0091697D02*
X0068248Y0091697D01*
X0067650Y0092296D02*
X0095301Y0092296D01*
X0094702Y0092894D02*
X0067051Y0092894D01*
X0066453Y0093493D02*
X0094104Y0093493D01*
X0093505Y0094091D02*
X0065854Y0094091D01*
X0065256Y0094690D02*
X0092907Y0094690D01*
X0092308Y0095288D02*
X0064657Y0095288D01*
X0064059Y0095887D02*
X0091710Y0095887D01*
X0091111Y0096485D02*
X0063460Y0096485D01*
X0062862Y0097084D02*
X0090513Y0097084D01*
X0089914Y0097682D02*
X0062263Y0097682D01*
X0061665Y0098281D02*
X0089316Y0098281D01*
X0088717Y0098879D02*
X0061066Y0098879D01*
X0060468Y0099478D02*
X0088119Y0099478D01*
X0087520Y0100076D02*
X0059869Y0100076D01*
X0059271Y0100675D02*
X0086921Y0100675D01*
X0086323Y0101273D02*
X0058672Y0101273D01*
X0058074Y0101872D02*
X0085724Y0101872D01*
X0085126Y0102471D02*
X0057475Y0102471D01*
X0056877Y0103069D02*
X0084527Y0103069D01*
X0083929Y0103668D02*
X0056278Y0103668D01*
X0055680Y0104266D02*
X0083330Y0104266D01*
X0082732Y0104865D02*
X0055081Y0104865D01*
X0054483Y0105463D02*
X0082133Y0105463D01*
X0081535Y0106062D02*
X0053884Y0106062D01*
X0053286Y0106660D02*
X0080936Y0106660D01*
X0080338Y0107259D02*
X0052687Y0107259D01*
X0052088Y0107857D02*
X0079739Y0107857D01*
X0079141Y0108456D02*
X0051490Y0108456D01*
X0050891Y0109054D02*
X0078542Y0109054D01*
X0077944Y0109653D02*
X0050293Y0109653D01*
X0049694Y0110251D02*
X0077345Y0110251D01*
X0076747Y0110850D02*
X0049096Y0110850D01*
X0048497Y0111448D02*
X0076148Y0111448D01*
X0075550Y0112047D02*
X0047907Y0112047D01*
X0047907Y0112645D02*
X0074951Y0112645D01*
X0074353Y0113244D02*
X0047907Y0113244D01*
X0047907Y0113842D02*
X0073754Y0113842D01*
X0073156Y0114441D02*
X0047907Y0114441D01*
X0047907Y0115039D02*
X0072557Y0115039D01*
X0071959Y0115638D02*
X0047907Y0115638D01*
X0047907Y0116236D02*
X0071360Y0116236D01*
X0070762Y0116835D02*
X0047907Y0116835D01*
X0047907Y0117433D02*
X0070163Y0117433D01*
X0069565Y0118032D02*
X0047907Y0118032D01*
X0047907Y0118630D02*
X0068966Y0118630D01*
X0068368Y0119229D02*
X0047907Y0119229D01*
X0047907Y0119827D02*
X0067769Y0119827D01*
X0067171Y0120426D02*
X0047907Y0120426D01*
X0047907Y0121024D02*
X0066572Y0121024D01*
X0065974Y0121623D02*
X0047907Y0121623D01*
X0047907Y0122221D02*
X0065375Y0122221D01*
X0062599Y0122820D02*
X0047907Y0122820D01*
X0047907Y0123418D02*
X0061439Y0123418D01*
X0060840Y0124017D02*
X0048373Y0124017D01*
X0048972Y0124615D02*
X0060242Y0124615D01*
X0059950Y0125214D02*
X0049263Y0125214D01*
X0049511Y0125812D02*
X0059702Y0125812D01*
X0059454Y0126411D02*
X0049759Y0126411D01*
X0049844Y0127009D02*
X0059370Y0127009D01*
X0059370Y0127608D02*
X0049844Y0127608D01*
X0049844Y0128207D02*
X0059370Y0128207D01*
X0059414Y0128805D02*
X0049800Y0128805D01*
X0049552Y0129404D02*
X0059662Y0129404D01*
X0059910Y0130002D02*
X0049304Y0130002D01*
X0049056Y0130601D02*
X0060158Y0130601D01*
X0060743Y0131199D02*
X0048471Y0131199D01*
X0047872Y0131798D02*
X0061341Y0131798D01*
X0062364Y0132396D02*
X0046850Y0132396D01*
X0086615Y0122820D02*
X0102599Y0122820D01*
X0101439Y0123418D02*
X0087775Y0123418D01*
X0088373Y0124017D02*
X0100840Y0124017D01*
X0100242Y0124615D02*
X0088972Y0124615D01*
X0089263Y0125214D02*
X0099950Y0125214D01*
X0099702Y0125812D02*
X0089511Y0125812D01*
X0089759Y0126411D02*
X0099454Y0126411D01*
X0099370Y0127009D02*
X0089844Y0127009D01*
X0089844Y0127608D02*
X0099370Y0127608D01*
X0100445Y0096485D02*
X0305878Y0096485D01*
X0304584Y0095887D02*
X0101043Y0095887D01*
X0270824Y0043218D02*
X0276439Y0043218D01*
X0301479Y0033043D02*
X0451231Y0033043D01*
X0451829Y0033642D02*
X0302077Y0033642D01*
X0302676Y0034240D02*
X0452428Y0034240D01*
X0453026Y0034839D02*
X0303274Y0034839D01*
X0303873Y0035437D02*
X0453625Y0035437D01*
X0454223Y0036036D02*
X0304471Y0036036D01*
X0305070Y0036634D02*
X0454822Y0036634D01*
X0455420Y0037233D02*
X0305668Y0037233D01*
X0306267Y0037831D02*
X0456019Y0037831D01*
X0456617Y0038430D02*
X0306865Y0038430D01*
X0307464Y0039028D02*
X0457216Y0039028D01*
X0457814Y0039627D02*
X0308062Y0039627D01*
X0308661Y0040225D02*
X0458413Y0040225D01*
X0459011Y0040824D02*
X0309259Y0040824D01*
X0309858Y0041422D02*
X0459610Y0041422D01*
X0460208Y0042021D02*
X0310377Y0042021D01*
X0310625Y0042619D02*
X0460807Y0042619D01*
X0461405Y0043218D02*
X0310824Y0043218D01*
X0310824Y0043816D02*
X0462004Y0043816D01*
X0462602Y0044415D02*
X0368444Y0044415D01*
X0368299Y0044355D02*
X0369733Y0044949D01*
X0370830Y0046046D01*
X0371424Y0047479D01*
X0371424Y0049031D01*
X0370830Y0050464D01*
X0369733Y0051561D01*
X0368299Y0052155D01*
X0361548Y0052155D01*
X0360114Y0051561D01*
X0359017Y0050464D01*
X0358424Y0049031D01*
X0358424Y0047479D01*
X0359017Y0046046D01*
X0360114Y0044949D01*
X0361548Y0044355D01*
X0368299Y0044355D01*
X0369797Y0045013D02*
X0463201Y0045013D01*
X0463799Y0045612D02*
X0370396Y0045612D01*
X0370898Y0046210D02*
X0464398Y0046210D01*
X0464996Y0046809D02*
X0371146Y0046809D01*
X0371394Y0047407D02*
X0465595Y0047407D01*
X0466193Y0048006D02*
X0371424Y0048006D01*
X0371424Y0048605D02*
X0466792Y0048605D01*
X0467390Y0049203D02*
X0371352Y0049203D01*
X0371104Y0049802D02*
X0467989Y0049802D01*
X0468224Y0050400D02*
X0370856Y0050400D01*
X0370296Y0050999D02*
X0468224Y0050999D01*
X0468224Y0051597D02*
X0369647Y0051597D01*
X0360201Y0051597D02*
X0310824Y0051597D01*
X0310824Y0050999D02*
X0359552Y0050999D01*
X0358991Y0050400D02*
X0310824Y0050400D01*
X0310824Y0049802D02*
X0358743Y0049802D01*
X0358495Y0049203D02*
X0310824Y0049203D01*
X0310824Y0048605D02*
X0358424Y0048605D01*
X0358424Y0048006D02*
X0310824Y0048006D01*
X0310824Y0047407D02*
X0358453Y0047407D01*
X0358701Y0046809D02*
X0310824Y0046809D01*
X0310824Y0046210D02*
X0358949Y0046210D01*
X0359451Y0045612D02*
X0310824Y0045612D01*
X0310824Y0045013D02*
X0360050Y0045013D01*
X0361403Y0044415D02*
X0310824Y0044415D01*
X0310824Y0052196D02*
X0468224Y0052196D01*
X0468224Y0052794D02*
X0310824Y0052794D01*
X0304557Y0070151D02*
X0297086Y0070151D01*
X0297685Y0070749D02*
X0303958Y0070749D01*
X0340269Y0078530D02*
X0359033Y0078530D01*
X0358776Y0079129D02*
X0340468Y0079129D01*
X0341067Y0079727D02*
X0358528Y0079727D01*
X0358424Y0080326D02*
X0347074Y0080326D01*
X0347860Y0080924D02*
X0358424Y0080924D01*
X0358424Y0081523D02*
X0348458Y0081523D01*
X0349057Y0082121D02*
X0358668Y0082121D01*
X0358916Y0082720D02*
X0349655Y0082720D01*
X0350254Y0083318D02*
X0359371Y0083318D01*
X0359970Y0083917D02*
X0350852Y0083917D01*
X0346306Y0088705D02*
X0341544Y0088705D01*
X0341920Y0089303D02*
X0346905Y0089303D01*
X0347503Y0089902D02*
X0342168Y0089902D01*
X0342416Y0090500D02*
X0348102Y0090500D01*
X0348700Y0091099D02*
X0342524Y0091099D01*
X0342524Y0091697D02*
X0349224Y0091697D01*
X0349224Y0092296D02*
X0342524Y0092296D01*
X0342464Y0092894D02*
X0349224Y0092894D01*
X0349224Y0093493D02*
X0342216Y0093493D01*
X0341968Y0094091D02*
X0349224Y0094091D01*
X0349224Y0094690D02*
X0341660Y0094690D01*
X0341061Y0095288D02*
X0349224Y0095288D01*
X0349224Y0095887D02*
X0340824Y0095887D01*
X0340824Y0096485D02*
X0349224Y0096485D01*
X0349224Y0097084D02*
X0340824Y0097084D01*
X0340824Y0097682D02*
X0349224Y0097682D01*
X0349224Y0098281D02*
X0340824Y0098281D01*
X0340824Y0098879D02*
X0349224Y0098879D01*
X0349224Y0099478D02*
X0340824Y0099478D01*
X0340824Y0100076D02*
X0349224Y0100076D01*
X0349224Y0100675D02*
X0340824Y0100675D01*
X0340824Y0101273D02*
X0349224Y0101273D01*
X0349224Y0101872D02*
X0340824Y0101872D01*
X0340824Y0102471D02*
X0349224Y0102471D01*
X0349224Y0103069D02*
X0340824Y0103069D01*
X0340824Y0103668D02*
X0349224Y0103668D01*
X0349224Y0104266D02*
X0340824Y0104266D01*
X0340824Y0104865D02*
X0349224Y0104865D01*
X0349224Y0105463D02*
X0340824Y0105463D01*
X0340824Y0106062D02*
X0349224Y0106062D01*
X0349224Y0106660D02*
X0340824Y0106660D01*
X0340824Y0107259D02*
X0349224Y0107259D01*
X0349224Y0107857D02*
X0340824Y0107857D01*
X0340824Y0108456D02*
X0349224Y0108456D01*
X0349224Y0109054D02*
X0340824Y0109054D01*
X0340824Y0109653D02*
X0349224Y0109653D01*
X0349224Y0110251D02*
X0340824Y0110251D01*
X0340824Y0110850D02*
X0349224Y0110850D01*
X0349224Y0111448D02*
X0340824Y0111448D01*
X0340824Y0112047D02*
X0349224Y0112047D01*
X0349224Y0112645D02*
X0340824Y0112645D01*
X0340824Y0113244D02*
X0349224Y0113244D01*
X0349224Y0113842D02*
X0340824Y0113842D01*
X0340824Y0114441D02*
X0349224Y0114441D01*
X0349224Y0115039D02*
X0340824Y0115039D01*
X0340824Y0115638D02*
X0349224Y0115638D01*
X0349224Y0116236D02*
X0340824Y0116236D01*
X0340824Y0116835D02*
X0349224Y0116835D01*
X0349224Y0117433D02*
X0340824Y0117433D01*
X0340824Y0118032D02*
X0349224Y0118032D01*
X0349224Y0118630D02*
X0340824Y0118630D01*
X0340824Y0119229D02*
X0349224Y0119229D01*
X0349224Y0119827D02*
X0340824Y0119827D01*
X0340824Y0120426D02*
X0349224Y0120426D01*
X0349224Y0121024D02*
X0340824Y0121024D01*
X0340824Y0121623D02*
X0349224Y0121623D01*
X0349224Y0122221D02*
X0340824Y0122221D01*
X0340824Y0140177D02*
X0407908Y0140177D01*
X0408156Y0140775D02*
X0340824Y0140775D01*
X0340824Y0141374D02*
X0408571Y0141374D01*
X0408285Y0141087D02*
X0407524Y0139250D01*
X0407524Y0137261D01*
X0408285Y0135423D01*
X0409691Y0134016D01*
X0411529Y0133255D01*
X0413518Y0133255D01*
X0415356Y0134016D01*
X0416378Y0135038D01*
X0443516Y0135038D01*
X0444656Y0133898D01*
X0446580Y0133101D01*
X0448664Y0133101D01*
X0450589Y0133898D01*
X0452062Y0135372D01*
X0452859Y0137296D01*
X0452859Y0139380D01*
X0452062Y0141305D01*
X0450589Y0142778D01*
X0448664Y0143575D01*
X0446580Y0143575D01*
X0444656Y0142778D01*
X0443516Y0141638D01*
X0416212Y0141638D01*
X0415907Y0141943D01*
X0415907Y0153828D01*
X0415404Y0155041D01*
X0409393Y0161053D01*
X0408180Y0161555D01*
X0404939Y0161555D01*
X0404933Y0161561D01*
X0403499Y0162155D01*
X0396748Y0162155D01*
X0395314Y0161561D01*
X0394217Y0160464D01*
X0393624Y0159031D01*
X0393624Y0157479D01*
X0394217Y0156046D01*
X0395314Y0154949D01*
X0396748Y0154355D01*
X0403499Y0154355D01*
X0404933Y0154949D01*
X0404939Y0154955D01*
X0406157Y0154955D01*
X0409307Y0151805D01*
X0409307Y0142109D01*
X0408285Y0141087D01*
X0409170Y0141972D02*
X0340824Y0141972D01*
X0340824Y0142571D02*
X0409307Y0142571D01*
X0409307Y0143169D02*
X0340824Y0143169D01*
X0340824Y0143768D02*
X0409307Y0143768D01*
X0409307Y0144366D02*
X0368326Y0144366D01*
X0368299Y0144355D02*
X0369733Y0144949D01*
X0370830Y0146046D01*
X0371424Y0147479D01*
X0371424Y0149031D01*
X0370830Y0150464D01*
X0369733Y0151561D01*
X0368299Y0152155D01*
X0361548Y0152155D01*
X0360114Y0151561D01*
X0359017Y0150464D01*
X0358424Y0149031D01*
X0358424Y0147479D01*
X0359017Y0146046D01*
X0360114Y0144949D01*
X0361548Y0144355D01*
X0368299Y0144355D01*
X0369749Y0144965D02*
X0409307Y0144965D01*
X0409307Y0145563D02*
X0370347Y0145563D01*
X0370878Y0146162D02*
X0409307Y0146162D01*
X0409307Y0146760D02*
X0371126Y0146760D01*
X0371374Y0147359D02*
X0409307Y0147359D01*
X0409307Y0147957D02*
X0371424Y0147957D01*
X0371424Y0148556D02*
X0409307Y0148556D01*
X0409307Y0149154D02*
X0371372Y0149154D01*
X0371125Y0149753D02*
X0409307Y0149753D01*
X0409307Y0150351D02*
X0370877Y0150351D01*
X0370344Y0150950D02*
X0409307Y0150950D01*
X0409307Y0151548D02*
X0369746Y0151548D01*
X0368319Y0152147D02*
X0408965Y0152147D01*
X0408366Y0152745D02*
X0346181Y0152745D01*
X0345582Y0152147D02*
X0361528Y0152147D01*
X0360102Y0151548D02*
X0344984Y0151548D01*
X0344385Y0150950D02*
X0359503Y0150950D01*
X0358971Y0150351D02*
X0343787Y0150351D01*
X0343188Y0149753D02*
X0358723Y0149753D01*
X0358475Y0149154D02*
X0342590Y0149154D01*
X0341991Y0148556D02*
X0358424Y0148556D01*
X0358424Y0147957D02*
X0341393Y0147957D01*
X0340824Y0147359D02*
X0358474Y0147359D01*
X0358721Y0146760D02*
X0340824Y0146760D01*
X0340824Y0146162D02*
X0358969Y0146162D01*
X0359500Y0145563D02*
X0340824Y0145563D01*
X0340824Y0144965D02*
X0360098Y0144965D01*
X0361521Y0144366D02*
X0340824Y0144366D01*
X0346779Y0153344D02*
X0407768Y0153344D01*
X0407169Y0153942D02*
X0347378Y0153942D01*
X0347976Y0154541D02*
X0396299Y0154541D01*
X0395124Y0155140D02*
X0348575Y0155140D01*
X0349173Y0155738D02*
X0394525Y0155738D01*
X0394097Y0156337D02*
X0349772Y0156337D01*
X0350370Y0156935D02*
X0393849Y0156935D01*
X0393624Y0157534D02*
X0350969Y0157534D01*
X0351567Y0158132D02*
X0393624Y0158132D01*
X0393624Y0158731D02*
X0352166Y0158731D01*
X0352764Y0159329D02*
X0393747Y0159329D01*
X0393995Y0159928D02*
X0353363Y0159928D01*
X0353962Y0160526D02*
X0394279Y0160526D01*
X0394878Y0161125D02*
X0354560Y0161125D01*
X0355159Y0161723D02*
X0395705Y0161723D01*
X0396748Y0164355D02*
X0403499Y0164355D01*
X0404933Y0164949D01*
X0406030Y0166046D01*
X0406624Y0167479D01*
X0406624Y0169031D01*
X0406030Y0170464D01*
X0404933Y0171561D01*
X0403499Y0172155D01*
X0396748Y0172155D01*
X0395314Y0171561D01*
X0394217Y0170464D01*
X0393624Y0169031D01*
X0393624Y0167479D01*
X0394217Y0166046D01*
X0395314Y0164949D01*
X0396748Y0164355D01*
X0395877Y0164716D02*
X0369170Y0164716D01*
X0370098Y0165314D02*
X0394949Y0165314D01*
X0394351Y0165913D02*
X0370697Y0165913D01*
X0371023Y0166511D02*
X0394025Y0166511D01*
X0393777Y0167110D02*
X0371271Y0167110D01*
X0371424Y0167708D02*
X0393624Y0167708D01*
X0393624Y0168307D02*
X0371424Y0168307D01*
X0371424Y0168905D02*
X0393624Y0168905D01*
X0393820Y0169504D02*
X0371228Y0169504D01*
X0370980Y0170102D02*
X0394067Y0170102D01*
X0394454Y0170701D02*
X0370593Y0170701D01*
X0369995Y0171299D02*
X0395052Y0171299D01*
X0396127Y0171898D02*
X0368920Y0171898D01*
X0360677Y0164716D02*
X0358151Y0164716D01*
X0357553Y0164117D02*
X0409590Y0164117D01*
X0408992Y0164716D02*
X0404370Y0164716D01*
X0405298Y0165314D02*
X0408393Y0165314D01*
X0408082Y0165913D02*
X0405897Y0165913D01*
X0406223Y0166511D02*
X0407834Y0166511D01*
X0407586Y0167110D02*
X0406471Y0167110D01*
X0406624Y0167708D02*
X0407524Y0167708D01*
X0407524Y0168307D02*
X0406624Y0168307D01*
X0406624Y0168905D02*
X0407524Y0168905D01*
X0407629Y0169504D02*
X0406428Y0169504D01*
X0406180Y0170102D02*
X0407877Y0170102D01*
X0408125Y0170701D02*
X0405793Y0170701D01*
X0405195Y0171299D02*
X0408497Y0171299D01*
X0409095Y0171898D02*
X0404120Y0171898D01*
X0410893Y0163519D02*
X0356954Y0163519D01*
X0356356Y0162920D02*
X0416807Y0162920D01*
X0416807Y0162322D02*
X0355757Y0162322D01*
X0404542Y0161723D02*
X0416807Y0161723D01*
X0416807Y0161125D02*
X0409219Y0161125D01*
X0409920Y0160526D02*
X0416807Y0160526D01*
X0416807Y0159928D02*
X0410518Y0159928D01*
X0411117Y0159329D02*
X0416807Y0159329D01*
X0416807Y0158731D02*
X0411715Y0158731D01*
X0412314Y0158132D02*
X0416807Y0158132D01*
X0416807Y0157534D02*
X0412912Y0157534D01*
X0413511Y0156935D02*
X0417047Y0156935D01*
X0417295Y0156337D02*
X0414109Y0156337D01*
X0414708Y0155738D02*
X0417524Y0155738D01*
X0417524Y0155140D02*
X0415306Y0155140D01*
X0415612Y0154541D02*
X0417615Y0154541D01*
X0417862Y0153942D02*
X0415859Y0153942D01*
X0415907Y0153344D02*
X0418110Y0153344D01*
X0418462Y0152745D02*
X0415907Y0152745D01*
X0415907Y0152147D02*
X0419061Y0152147D01*
X0419659Y0151548D02*
X0415907Y0151548D01*
X0415907Y0150950D02*
X0421059Y0150950D01*
X0423989Y0150950D02*
X0451162Y0150950D01*
X0451760Y0150351D02*
X0415907Y0150351D01*
X0415907Y0149753D02*
X0452359Y0149753D01*
X0452957Y0149154D02*
X0415907Y0149154D01*
X0415907Y0148556D02*
X0453556Y0148556D01*
X0454154Y0147957D02*
X0415907Y0147957D01*
X0415907Y0147359D02*
X0454753Y0147359D01*
X0455351Y0146760D02*
X0415907Y0146760D01*
X0415907Y0146162D02*
X0455950Y0146162D01*
X0456548Y0145563D02*
X0415907Y0145563D01*
X0415907Y0144965D02*
X0457147Y0144965D01*
X0457224Y0144366D02*
X0415907Y0144366D01*
X0415907Y0143768D02*
X0457224Y0143768D01*
X0457224Y0143169D02*
X0449644Y0143169D01*
X0450796Y0142571D02*
X0457224Y0142571D01*
X0457224Y0141972D02*
X0451394Y0141972D01*
X0451993Y0141374D02*
X0457224Y0141374D01*
X0457224Y0140775D02*
X0452281Y0140775D01*
X0452529Y0140177D02*
X0457224Y0140177D01*
X0457224Y0139578D02*
X0452777Y0139578D01*
X0452859Y0138980D02*
X0457224Y0138980D01*
X0457224Y0138381D02*
X0452859Y0138381D01*
X0452859Y0137783D02*
X0457224Y0137783D01*
X0457224Y0137184D02*
X0452813Y0137184D01*
X0452565Y0136586D02*
X0457224Y0136586D01*
X0457224Y0135987D02*
X0452317Y0135987D01*
X0452069Y0135389D02*
X0457224Y0135389D01*
X0457224Y0134790D02*
X0451480Y0134790D01*
X0450882Y0134192D02*
X0457224Y0134192D01*
X0457224Y0133593D02*
X0449851Y0133593D01*
X0445393Y0133593D02*
X0414334Y0133593D01*
X0415531Y0134192D02*
X0444362Y0134192D01*
X0443764Y0134790D02*
X0416130Y0134790D01*
X0420064Y0132396D02*
X0457224Y0132396D01*
X0457224Y0131798D02*
X0421148Y0131798D01*
X0421747Y0131199D02*
X0457224Y0131199D01*
X0457224Y0130601D02*
X0423891Y0130601D01*
X0425336Y0130002D02*
X0457224Y0130002D01*
X0457224Y0129404D02*
X0425946Y0129404D01*
X0426545Y0128805D02*
X0457224Y0128805D01*
X0457224Y0128207D02*
X0426920Y0128207D01*
X0427168Y0127608D02*
X0457224Y0127608D01*
X0457224Y0127009D02*
X0427416Y0127009D01*
X0427524Y0126411D02*
X0457224Y0126411D01*
X0457224Y0125812D02*
X0427524Y0125812D01*
X0427732Y0125214D02*
X0457224Y0125214D01*
X0457224Y0124615D02*
X0428330Y0124615D01*
X0424103Y0113842D02*
X0444791Y0113842D01*
X0446236Y0113244D02*
X0424702Y0113244D01*
X0414277Y0100675D02*
X0406624Y0100675D01*
X0406624Y0100076D02*
X0413678Y0100076D01*
X0413080Y0099478D02*
X0406416Y0099478D01*
X0406168Y0098879D02*
X0412481Y0098879D01*
X0411883Y0098281D02*
X0405765Y0098281D01*
X0405166Y0097682D02*
X0411284Y0097682D01*
X0410686Y0097084D02*
X0404052Y0097084D01*
X0404860Y0094091D02*
X0408789Y0094091D01*
X0409224Y0094690D02*
X0378256Y0094690D01*
X0377657Y0095288D02*
X0409380Y0095288D01*
X0409628Y0095887D02*
X0377059Y0095887D01*
X0376460Y0096485D02*
X0410087Y0096485D01*
X0359632Y0077932D02*
X0340918Y0077932D01*
X0340941Y0086909D02*
X0344511Y0086909D01*
X0345109Y0087508D02*
X0340335Y0087508D01*
X0340946Y0088106D02*
X0345708Y0088106D01*
X0404805Y0132396D02*
X0405483Y0132396D01*
X0405479Y0132995D02*
X0457224Y0132995D01*
X0445600Y0143169D02*
X0415907Y0143169D01*
X0415907Y0142571D02*
X0444448Y0142571D01*
X0443850Y0141972D02*
X0415907Y0141972D01*
X0407660Y0139578D02*
X0403685Y0139578D01*
X0405014Y0138980D02*
X0407524Y0138980D01*
X0407524Y0138381D02*
X0405613Y0138381D01*
X0406105Y0137783D02*
X0407524Y0137783D01*
X0407555Y0137184D02*
X0406353Y0137184D01*
X0406601Y0136586D02*
X0407803Y0136586D01*
X0408051Y0135987D02*
X0406624Y0135987D01*
X0406624Y0135389D02*
X0408319Y0135389D01*
X0408918Y0134790D02*
X0406545Y0134790D01*
X0406297Y0134192D02*
X0409516Y0134192D01*
X0410713Y0133593D02*
X0406049Y0133593D01*
X0425388Y0151548D02*
X0450563Y0151548D01*
X0449965Y0152147D02*
X0425987Y0152147D01*
X0406571Y0154541D02*
X0403948Y0154541D01*
X0414154Y0163519D02*
X0416807Y0163519D01*
X0416807Y0164117D02*
X0415457Y0164117D01*
X0416055Y0164716D02*
X0416807Y0164716D01*
X0468224Y0216188D02*
X0274258Y0216188D01*
X0273659Y0216786D02*
X0467911Y0216786D01*
X0467313Y0217385D02*
X0273061Y0217385D01*
X0272462Y0217983D02*
X0466714Y0217983D01*
X0466116Y0218582D02*
X0271864Y0218582D01*
X0271265Y0219180D02*
X0465517Y0219180D01*
X0464919Y0219779D02*
X0270667Y0219779D01*
X0270068Y0220377D02*
X0464320Y0220377D01*
X0463722Y0220976D02*
X0269470Y0220976D01*
X0268871Y0221574D02*
X0463123Y0221574D01*
X0462525Y0222173D02*
X0268273Y0222173D01*
X0267674Y0222771D02*
X0461926Y0222771D01*
X0461328Y0223370D02*
X0278795Y0223370D01*
X0280240Y0223968D02*
X0460729Y0223968D01*
X0460131Y0224567D02*
X0280906Y0224567D01*
X0281505Y0225165D02*
X0459532Y0225165D01*
X0458934Y0225764D02*
X0281904Y0225764D01*
X0282152Y0226362D02*
X0458335Y0226362D01*
X0457737Y0226961D02*
X0282399Y0226961D01*
X0282524Y0227559D02*
X0457138Y0227559D01*
X0456540Y0228158D02*
X0282524Y0228158D01*
X0282524Y0228756D02*
X0455941Y0228756D01*
X0455343Y0229355D02*
X0282480Y0229355D01*
X0282232Y0229953D02*
X0454744Y0229953D01*
X0454146Y0230552D02*
X0281984Y0230552D01*
X0281699Y0231150D02*
X0453547Y0231150D01*
X0452949Y0231749D02*
X0281101Y0231749D01*
X0280502Y0232347D02*
X0452350Y0232347D01*
X0451752Y0232946D02*
X0279264Y0232946D01*
X0275783Y0232946D02*
X0269264Y0232946D01*
X0270502Y0232347D02*
X0274545Y0232347D01*
X0273946Y0231749D02*
X0271101Y0231749D01*
X0271699Y0231150D02*
X0273348Y0231150D01*
X0273063Y0230552D02*
X0271984Y0230552D01*
X0272232Y0229953D02*
X0272815Y0229953D01*
X0272567Y0229355D02*
X0272480Y0229355D01*
X0272524Y0228756D02*
X0272524Y0228756D01*
X0272524Y0228158D02*
X0272524Y0228158D01*
X0272524Y0227559D02*
X0272524Y0227559D01*
X0272399Y0226961D02*
X0272648Y0226961D01*
X0272896Y0226362D02*
X0272152Y0226362D01*
X0271904Y0225764D02*
X0273144Y0225764D01*
X0273542Y0225165D02*
X0271505Y0225165D01*
X0270906Y0224567D02*
X0274141Y0224567D01*
X0274807Y0223968D02*
X0270240Y0223968D01*
X0268795Y0223370D02*
X0276252Y0223370D01*
X0262524Y0228158D02*
X0262524Y0228158D01*
X0262524Y0228756D02*
X0262524Y0228756D01*
X0262480Y0229355D02*
X0262567Y0229355D01*
X0262815Y0229953D02*
X0262232Y0229953D01*
X0261984Y0230552D02*
X0263063Y0230552D01*
X0263348Y0231150D02*
X0261699Y0231150D01*
X0261101Y0231749D02*
X0263946Y0231749D01*
X0264545Y0232347D02*
X0260502Y0232347D01*
X0259264Y0232946D02*
X0265783Y0232946D01*
X0255783Y0232946D02*
X0249264Y0232946D01*
X0250502Y0232347D02*
X0254545Y0232347D01*
X0253946Y0231749D02*
X0251101Y0231749D01*
X0251699Y0231150D02*
X0253348Y0231150D01*
X0253063Y0230552D02*
X0251984Y0230552D01*
X0252232Y0229953D02*
X0252815Y0229953D01*
X0252567Y0229355D02*
X0252480Y0229355D01*
X0252524Y0228756D02*
X0252524Y0228756D01*
X0252524Y0228158D02*
X0252524Y0228158D01*
X0245783Y0232946D02*
X0239264Y0232946D01*
X0240502Y0232347D02*
X0244545Y0232347D01*
X0243946Y0231749D02*
X0241101Y0231749D01*
X0241699Y0231150D02*
X0243348Y0231150D01*
X0243063Y0230552D02*
X0241984Y0230552D01*
X0242232Y0229953D02*
X0242815Y0229953D01*
X0242567Y0229355D02*
X0242480Y0229355D01*
X0242524Y0228756D02*
X0242524Y0228756D01*
X0242524Y0228158D02*
X0242524Y0228158D01*
X0242524Y0227636D02*
X0242524Y0227636D01*
X0234545Y0232347D02*
X0230502Y0232347D01*
X0231101Y0231749D02*
X0233946Y0231749D01*
X0233348Y0231150D02*
X0231699Y0231150D01*
X0231984Y0230552D02*
X0233063Y0230552D01*
X0232815Y0229953D02*
X0232232Y0229953D01*
X0232480Y0229355D02*
X0232567Y0229355D01*
X0232524Y0228756D02*
X0232524Y0228756D01*
X0232524Y0228158D02*
X0232524Y0228158D01*
X0235783Y0232946D02*
X0229264Y0232946D01*
X0225783Y0232946D02*
X0219264Y0232946D01*
X0220502Y0232347D02*
X0224545Y0232347D01*
X0223946Y0231749D02*
X0221101Y0231749D01*
X0221699Y0231150D02*
X0223348Y0231150D01*
X0223063Y0230552D02*
X0221984Y0230552D01*
X0222232Y0229953D02*
X0222815Y0229953D01*
X0222567Y0229355D02*
X0222480Y0229355D01*
X0222524Y0228756D02*
X0222524Y0228756D01*
X0222524Y0228158D02*
X0222524Y0228158D01*
X0222524Y0227559D02*
X0222524Y0227559D01*
X0222524Y0227261D02*
X0221762Y0225423D01*
X0220824Y0224484D01*
X0220824Y0217599D01*
X0220321Y0216386D01*
X0219393Y0215458D01*
X0219393Y0215458D01*
X0215824Y0211888D01*
X0215824Y0202026D01*
X0216762Y0201087D01*
X0217274Y0199853D01*
X0217785Y0201087D01*
X0219191Y0202494D01*
X0221029Y0203255D01*
X0223018Y0203255D01*
X0224856Y0202494D01*
X0225795Y0201555D01*
X0226253Y0201555D01*
X0226724Y0202026D01*
X0226724Y0223255D01*
X0226529Y0223255D01*
X0224691Y0224016D01*
X0223285Y0225423D01*
X0222524Y0227261D01*
X0222648Y0226961D02*
X0222399Y0226961D01*
X0222152Y0226362D02*
X0222896Y0226362D01*
X0223144Y0225764D02*
X0221904Y0225764D01*
X0221505Y0225165D02*
X0223542Y0225165D01*
X0224141Y0224567D02*
X0220906Y0224567D01*
X0220824Y0223968D02*
X0224807Y0223968D01*
X0226252Y0223370D02*
X0220824Y0223370D01*
X0220824Y0222771D02*
X0226724Y0222771D01*
X0226724Y0222173D02*
X0220824Y0222173D01*
X0220824Y0221574D02*
X0226724Y0221574D01*
X0226724Y0220976D02*
X0220824Y0220976D01*
X0220824Y0220377D02*
X0226724Y0220377D01*
X0226724Y0219779D02*
X0220824Y0219779D01*
X0220824Y0219180D02*
X0226724Y0219180D01*
X0226724Y0218582D02*
X0220824Y0218582D01*
X0220824Y0217983D02*
X0226724Y0217983D01*
X0226724Y0217385D02*
X0220735Y0217385D01*
X0220487Y0216786D02*
X0226724Y0216786D01*
X0226724Y0216188D02*
X0220123Y0216188D01*
X0219525Y0215589D02*
X0226724Y0215589D01*
X0226724Y0214991D02*
X0218926Y0214991D01*
X0218328Y0214392D02*
X0226724Y0214392D01*
X0226724Y0213794D02*
X0217729Y0213794D01*
X0217130Y0213195D02*
X0226724Y0213195D01*
X0226724Y0212597D02*
X0216532Y0212597D01*
X0215933Y0211998D02*
X0226724Y0211998D01*
X0226724Y0211400D02*
X0215824Y0211400D01*
X0215824Y0210801D02*
X0226724Y0210801D01*
X0226724Y0210203D02*
X0215824Y0210203D01*
X0215824Y0209604D02*
X0226724Y0209604D01*
X0226724Y0209006D02*
X0215824Y0209006D01*
X0215824Y0208407D02*
X0226724Y0208407D01*
X0226724Y0207809D02*
X0215824Y0207809D01*
X0215824Y0207210D02*
X0226724Y0207210D01*
X0226724Y0206611D02*
X0215824Y0206611D01*
X0215824Y0206013D02*
X0226724Y0206013D01*
X0226724Y0205414D02*
X0215824Y0205414D01*
X0215824Y0204816D02*
X0226724Y0204816D01*
X0226724Y0204217D02*
X0215824Y0204217D01*
X0215824Y0203619D02*
X0226724Y0203619D01*
X0226724Y0203020D02*
X0223585Y0203020D01*
X0224928Y0202422D02*
X0226724Y0202422D01*
X0226521Y0201823D02*
X0225526Y0201823D01*
X0220462Y0203020D02*
X0215824Y0203020D01*
X0215824Y0202422D02*
X0219119Y0202422D01*
X0218521Y0201823D02*
X0216026Y0201823D01*
X0216625Y0201225D02*
X0217922Y0201225D01*
X0217594Y0200626D02*
X0216953Y0200626D01*
X0217201Y0200028D02*
X0217346Y0200028D01*
X0209224Y0202026D02*
X0208753Y0201555D01*
X0208295Y0201555D01*
X0207356Y0202494D01*
X0205518Y0203255D01*
X0203529Y0203255D01*
X0201691Y0202494D01*
X0200285Y0201087D01*
X0199774Y0199853D01*
X0199262Y0201087D01*
X0198393Y0201957D01*
X0208321Y0211886D01*
X0208824Y0213099D01*
X0208824Y0223382D01*
X0210356Y0224016D01*
X0211762Y0225423D01*
X0212524Y0227261D01*
X0213285Y0225423D01*
X0214224Y0224484D01*
X0214224Y0219622D01*
X0210654Y0216053D01*
X0209726Y0215124D01*
X0209224Y0213912D01*
X0209224Y0202026D01*
X0209021Y0201823D02*
X0208026Y0201823D01*
X0207428Y0202422D02*
X0209224Y0202422D01*
X0209224Y0203020D02*
X0206085Y0203020D01*
X0202962Y0203020D02*
X0199456Y0203020D01*
X0198857Y0202422D02*
X0201619Y0202422D01*
X0201021Y0201823D02*
X0198526Y0201823D01*
X0199125Y0201225D02*
X0200422Y0201225D01*
X0200094Y0200626D02*
X0199453Y0200626D01*
X0199701Y0200028D02*
X0199846Y0200028D01*
X0200054Y0203619D02*
X0209224Y0203619D01*
X0209224Y0204217D02*
X0200653Y0204217D01*
X0201251Y0204816D02*
X0209224Y0204816D01*
X0209224Y0205414D02*
X0201850Y0205414D01*
X0202448Y0206013D02*
X0209224Y0206013D01*
X0209224Y0206611D02*
X0203047Y0206611D01*
X0203645Y0207210D02*
X0209224Y0207210D01*
X0209224Y0207809D02*
X0204244Y0207809D01*
X0204842Y0208407D02*
X0209224Y0208407D01*
X0209224Y0209006D02*
X0205441Y0209006D01*
X0206039Y0209604D02*
X0209224Y0209604D01*
X0209224Y0210203D02*
X0206638Y0210203D01*
X0207236Y0210801D02*
X0209224Y0210801D01*
X0209224Y0211400D02*
X0207835Y0211400D01*
X0208368Y0211998D02*
X0209224Y0211998D01*
X0209224Y0212597D02*
X0208616Y0212597D01*
X0208824Y0213195D02*
X0209224Y0213195D01*
X0209224Y0213794D02*
X0208824Y0213794D01*
X0208824Y0214392D02*
X0209423Y0214392D01*
X0209671Y0214991D02*
X0208824Y0214991D01*
X0208824Y0215589D02*
X0210191Y0215589D01*
X0210789Y0216188D02*
X0208824Y0216188D01*
X0208824Y0216786D02*
X0211388Y0216786D01*
X0211986Y0217385D02*
X0208824Y0217385D01*
X0208824Y0217983D02*
X0212585Y0217983D01*
X0213183Y0218582D02*
X0208824Y0218582D01*
X0208824Y0219180D02*
X0213782Y0219180D01*
X0214224Y0219779D02*
X0208824Y0219779D01*
X0208824Y0220377D02*
X0214224Y0220377D01*
X0214224Y0220976D02*
X0208824Y0220976D01*
X0208824Y0221574D02*
X0214224Y0221574D01*
X0214224Y0222173D02*
X0208824Y0222173D01*
X0208824Y0222771D02*
X0214224Y0222771D01*
X0214224Y0223370D02*
X0208824Y0223370D01*
X0210240Y0223968D02*
X0214224Y0223968D01*
X0214141Y0224567D02*
X0210906Y0224567D01*
X0211505Y0225165D02*
X0213542Y0225165D01*
X0213144Y0225764D02*
X0211904Y0225764D01*
X0212152Y0226362D02*
X0212896Y0226362D01*
X0212648Y0226961D02*
X0212399Y0226961D01*
X0212524Y0227559D02*
X0212524Y0227559D01*
X0212524Y0228158D02*
X0212524Y0228158D01*
X0212524Y0228756D02*
X0212524Y0228756D01*
X0212480Y0229355D02*
X0212567Y0229355D01*
X0212815Y0229953D02*
X0212232Y0229953D01*
X0211984Y0230552D02*
X0213063Y0230552D01*
X0213348Y0231150D02*
X0211699Y0231150D01*
X0211101Y0231749D02*
X0213946Y0231749D01*
X0214545Y0232347D02*
X0210502Y0232347D01*
X0209264Y0232946D02*
X0215783Y0232946D01*
X0205783Y0232946D02*
X0194264Y0232946D01*
X0195502Y0232347D02*
X0204545Y0232347D01*
X0203946Y0231749D02*
X0196101Y0231749D01*
X0196699Y0231150D02*
X0203348Y0231150D01*
X0203063Y0230552D02*
X0196984Y0230552D01*
X0197232Y0229953D02*
X0202815Y0229953D01*
X0202567Y0229355D02*
X0197480Y0229355D01*
X0197524Y0228756D02*
X0202524Y0228756D01*
X0202524Y0228158D02*
X0197524Y0228158D01*
X0197524Y0227559D02*
X0202492Y0227559D01*
X0202244Y0226961D02*
X0197399Y0226961D01*
X0197152Y0226362D02*
X0202224Y0226362D01*
X0202224Y0225764D02*
X0196904Y0225764D01*
X0196505Y0225165D02*
X0202224Y0225165D01*
X0202224Y0224567D02*
X0195906Y0224567D01*
X0195824Y0223968D02*
X0202224Y0223968D01*
X0202224Y0223370D02*
X0195824Y0223370D01*
X0195824Y0222771D02*
X0202224Y0222771D01*
X0202224Y0222173D02*
X0195824Y0222173D01*
X0195824Y0221574D02*
X0202224Y0221574D01*
X0202224Y0220976D02*
X0195824Y0220976D01*
X0195824Y0220377D02*
X0202224Y0220377D01*
X0202224Y0219779D02*
X0195824Y0219779D01*
X0195824Y0219180D02*
X0202224Y0219180D01*
X0202224Y0218582D02*
X0195824Y0218582D01*
X0195824Y0217983D02*
X0202224Y0217983D01*
X0202224Y0217385D02*
X0195824Y0217385D01*
X0195824Y0216786D02*
X0202224Y0216786D01*
X0202224Y0216188D02*
X0195824Y0216188D01*
X0195824Y0215589D02*
X0202224Y0215589D01*
X0202092Y0214991D02*
X0195824Y0214991D01*
X0195824Y0214392D02*
X0201494Y0214392D01*
X0200895Y0213794D02*
X0195824Y0213794D01*
X0195824Y0213195D02*
X0200297Y0213195D01*
X0199698Y0212597D02*
X0195823Y0212597D01*
X0195575Y0211998D02*
X0199100Y0211998D01*
X0198501Y0211400D02*
X0195327Y0211400D01*
X0194736Y0210801D02*
X0197903Y0210801D01*
X0197304Y0210203D02*
X0194138Y0210203D01*
X0193539Y0209604D02*
X0196706Y0209604D01*
X0196107Y0209006D02*
X0192941Y0209006D01*
X0192342Y0208407D02*
X0195509Y0208407D01*
X0194910Y0207809D02*
X0191744Y0207809D01*
X0191145Y0207210D02*
X0194312Y0207210D01*
X0193713Y0206611D02*
X0190547Y0206611D01*
X0189948Y0206013D02*
X0193115Y0206013D01*
X0192516Y0205414D02*
X0189350Y0205414D01*
X0188751Y0204816D02*
X0192098Y0204816D01*
X0191850Y0204217D02*
X0188153Y0204217D01*
X0187554Y0203619D02*
X0191724Y0203619D01*
X0191724Y0203020D02*
X0188585Y0203020D01*
X0189928Y0202422D02*
X0191724Y0202422D01*
X0191521Y0201823D02*
X0190526Y0201823D01*
X0183009Y0208407D02*
X0174842Y0208407D01*
X0174244Y0207809D02*
X0182410Y0207809D01*
X0181812Y0207210D02*
X0173645Y0207210D01*
X0173047Y0206611D02*
X0181213Y0206611D01*
X0180615Y0206013D02*
X0172448Y0206013D01*
X0171850Y0205414D02*
X0180016Y0205414D01*
X0179418Y0204816D02*
X0171251Y0204816D01*
X0170653Y0204217D02*
X0178819Y0204217D01*
X0178221Y0203619D02*
X0170054Y0203619D01*
X0169690Y0203255D02*
X0185321Y0218886D01*
X0185824Y0220099D01*
X0185824Y0224484D01*
X0186762Y0225423D01*
X0187524Y0227261D01*
X0188285Y0225423D01*
X0189224Y0224484D01*
X0189224Y0214622D01*
X0177857Y0203255D01*
X0176529Y0203255D01*
X0174691Y0202494D01*
X0173753Y0201555D01*
X0173295Y0201555D01*
X0172356Y0202494D01*
X0170518Y0203255D01*
X0169690Y0203255D01*
X0171085Y0203020D02*
X0175962Y0203020D01*
X0174619Y0202422D02*
X0172428Y0202422D01*
X0173026Y0201823D02*
X0174021Y0201823D01*
X0165509Y0208407D02*
X0157342Y0208407D01*
X0156744Y0207809D02*
X0164910Y0207809D01*
X0164312Y0207210D02*
X0156145Y0207210D01*
X0155547Y0206611D02*
X0163713Y0206611D01*
X0163115Y0206013D02*
X0154948Y0206013D01*
X0154350Y0205414D02*
X0162516Y0205414D01*
X0161918Y0204816D02*
X0153751Y0204816D01*
X0153153Y0204217D02*
X0161319Y0204217D01*
X0160721Y0203619D02*
X0152554Y0203619D01*
X0152190Y0203255D02*
X0172191Y0223255D01*
X0173518Y0223255D01*
X0175356Y0224016D01*
X0176762Y0225423D01*
X0177524Y0227261D01*
X0178285Y0225423D01*
X0179224Y0224484D01*
X0179224Y0222122D01*
X0160357Y0203255D01*
X0159029Y0203255D01*
X0157191Y0202494D01*
X0156253Y0201555D01*
X0155795Y0201555D01*
X0154856Y0202494D01*
X0153018Y0203255D01*
X0152190Y0203255D01*
X0153585Y0203020D02*
X0158462Y0203020D01*
X0157119Y0202422D02*
X0154928Y0202422D01*
X0155526Y0201823D02*
X0156521Y0201823D01*
X0156566Y0194641D02*
X0155481Y0194641D01*
X0154882Y0194043D02*
X0157165Y0194043D01*
X0158572Y0193444D02*
X0153475Y0193444D01*
X0150572Y0193444D02*
X0143975Y0193444D01*
X0145382Y0194043D02*
X0149165Y0194043D01*
X0148566Y0194641D02*
X0145981Y0194641D01*
X0146579Y0195240D02*
X0147968Y0195240D01*
X0147613Y0195838D02*
X0146934Y0195838D01*
X0147182Y0196437D02*
X0147365Y0196437D01*
X0141072Y0193444D02*
X0135975Y0193444D01*
X0137382Y0194043D02*
X0139665Y0194043D01*
X0139066Y0194641D02*
X0137981Y0194641D01*
X0133072Y0193444D02*
X0126475Y0193444D01*
X0127882Y0194043D02*
X0131665Y0194043D01*
X0131066Y0194641D02*
X0128481Y0194641D01*
X0129079Y0195240D02*
X0130468Y0195240D01*
X0130113Y0195838D02*
X0129434Y0195838D01*
X0129682Y0196437D02*
X0129865Y0196437D01*
X0123572Y0193444D02*
X0118475Y0193444D01*
X0119882Y0194043D02*
X0122165Y0194043D01*
X0121566Y0194641D02*
X0120481Y0194641D01*
X0115572Y0193444D02*
X0108975Y0193444D01*
X0110382Y0194043D02*
X0114165Y0194043D01*
X0113566Y0194641D02*
X0110981Y0194641D01*
X0111579Y0195240D02*
X0112968Y0195240D01*
X0112613Y0195838D02*
X0111934Y0195838D01*
X0112182Y0196437D02*
X0112365Y0196437D01*
X0106072Y0193444D02*
X0100975Y0193444D01*
X0102382Y0194043D02*
X0104665Y0194043D01*
X0104066Y0194641D02*
X0102981Y0194641D01*
X0098072Y0193444D02*
X0091475Y0193444D01*
X0092882Y0194043D02*
X0096665Y0194043D01*
X0096066Y0194641D02*
X0093481Y0194641D01*
X0094079Y0195240D02*
X0095468Y0195240D01*
X0095113Y0195838D02*
X0094434Y0195838D01*
X0094682Y0196437D02*
X0094865Y0196437D01*
X0088572Y0193444D02*
X0083475Y0193444D01*
X0084882Y0194043D02*
X0087165Y0194043D01*
X0086566Y0194641D02*
X0085481Y0194641D01*
X0080572Y0193444D02*
X0026824Y0193444D01*
X0026824Y0194043D02*
X0079165Y0194043D01*
X0078566Y0194641D02*
X0026824Y0194641D01*
X0026824Y0195240D02*
X0077968Y0195240D01*
X0077613Y0195838D02*
X0026824Y0195838D01*
X0026824Y0196437D02*
X0077365Y0196437D01*
X0077117Y0197035D02*
X0026824Y0197035D01*
X0026824Y0197634D02*
X0077024Y0197634D01*
X0077024Y0198232D02*
X0026824Y0198232D01*
X0026824Y0198831D02*
X0077024Y0198831D01*
X0077098Y0199429D02*
X0026824Y0199429D01*
X0026824Y0200028D02*
X0077346Y0200028D01*
X0077594Y0200626D02*
X0026824Y0200626D01*
X0026824Y0201225D02*
X0077922Y0201225D01*
X0078521Y0201823D02*
X0026824Y0201823D01*
X0026824Y0202422D02*
X0079119Y0202422D01*
X0080462Y0203020D02*
X0026824Y0203020D01*
X0026824Y0203619D02*
X0091311Y0203619D01*
X0091910Y0204217D02*
X0026824Y0204217D01*
X0026824Y0204816D02*
X0092508Y0204816D01*
X0093107Y0205414D02*
X0026824Y0205414D01*
X0026824Y0206013D02*
X0093705Y0206013D01*
X0094304Y0206611D02*
X0026824Y0206611D01*
X0026824Y0207210D02*
X0094902Y0207210D01*
X0095501Y0207809D02*
X0026824Y0207809D01*
X0026824Y0208407D02*
X0096099Y0208407D01*
X0096698Y0209006D02*
X0026824Y0209006D01*
X0026824Y0209604D02*
X0097296Y0209604D01*
X0097895Y0210203D02*
X0026824Y0210203D01*
X0026824Y0210801D02*
X0098493Y0210801D01*
X0099092Y0211400D02*
X0026824Y0211400D01*
X0026824Y0211998D02*
X0099690Y0211998D01*
X0100289Y0212597D02*
X0026824Y0212597D01*
X0026824Y0213195D02*
X0100887Y0213195D01*
X0101486Y0213794D02*
X0026824Y0213794D01*
X0026824Y0214392D02*
X0102084Y0214392D01*
X0102683Y0214991D02*
X0026824Y0214991D01*
X0026824Y0215589D02*
X0103281Y0215589D01*
X0103880Y0216188D02*
X0026824Y0216188D01*
X0026824Y0216786D02*
X0104478Y0216786D01*
X0105077Y0217385D02*
X0026824Y0217385D01*
X0026824Y0217983D02*
X0105675Y0217983D01*
X0106274Y0218582D02*
X0026824Y0218582D01*
X0026824Y0219180D02*
X0106872Y0219180D01*
X0107471Y0219779D02*
X0026824Y0219779D01*
X0026824Y0220377D02*
X0108069Y0220377D01*
X0109266Y0220976D02*
X0026824Y0220976D01*
X0026924Y0221574D02*
X0131176Y0221574D01*
X0131774Y0222173D02*
X0027522Y0222173D01*
X0028121Y0222771D02*
X0132373Y0222771D01*
X0132971Y0223370D02*
X0123795Y0223370D01*
X0123518Y0223255D02*
X0125356Y0224016D01*
X0126762Y0225423D01*
X0127524Y0227261D01*
X0127524Y0229250D01*
X0126762Y0231087D01*
X0125356Y0232494D01*
X0123518Y0233255D01*
X0121529Y0233255D01*
X0119691Y0232494D01*
X0118285Y0231087D01*
X0117524Y0229250D01*
X0117524Y0227261D01*
X0118285Y0225423D01*
X0119691Y0224016D01*
X0121529Y0223255D01*
X0123518Y0223255D01*
X0125240Y0223968D02*
X0133570Y0223968D01*
X0134168Y0224567D02*
X0125906Y0224567D01*
X0126505Y0225165D02*
X0134767Y0225165D01*
X0135365Y0225764D02*
X0126904Y0225764D01*
X0127152Y0226362D02*
X0135964Y0226362D01*
X0136562Y0226961D02*
X0127399Y0226961D01*
X0127524Y0227559D02*
X0137161Y0227559D01*
X0137524Y0228158D02*
X0127524Y0228158D01*
X0127524Y0228756D02*
X0137524Y0228756D01*
X0137567Y0229355D02*
X0127480Y0229355D01*
X0127232Y0229953D02*
X0137815Y0229953D01*
X0138063Y0230552D02*
X0126984Y0230552D01*
X0126699Y0231150D02*
X0138348Y0231150D01*
X0138946Y0231749D02*
X0126101Y0231749D01*
X0125502Y0232347D02*
X0139545Y0232347D01*
X0140783Y0232946D02*
X0124264Y0232946D01*
X0120783Y0232946D02*
X0114264Y0232946D01*
X0113518Y0233255D02*
X0115356Y0232494D01*
X0116762Y0231087D01*
X0117524Y0229250D01*
X0117524Y0227261D01*
X0116762Y0225423D01*
X0115356Y0224016D01*
X0113518Y0223255D01*
X0111529Y0223255D01*
X0109691Y0224016D01*
X0108285Y0225423D01*
X0107524Y0227261D01*
X0107524Y0229250D01*
X0108285Y0231087D01*
X0109691Y0232494D01*
X0111529Y0233255D01*
X0113518Y0233255D01*
X0115502Y0232347D02*
X0119545Y0232347D01*
X0118946Y0231749D02*
X0116101Y0231749D01*
X0116699Y0231150D02*
X0118348Y0231150D01*
X0118063Y0230552D02*
X0116984Y0230552D01*
X0117232Y0229953D02*
X0117815Y0229953D01*
X0117567Y0229355D02*
X0117480Y0229355D01*
X0117524Y0228756D02*
X0117524Y0228756D01*
X0117524Y0228158D02*
X0117524Y0228158D01*
X0117524Y0227559D02*
X0117524Y0227559D01*
X0117399Y0226961D02*
X0117648Y0226961D01*
X0117896Y0226362D02*
X0117152Y0226362D01*
X0116904Y0225764D02*
X0118144Y0225764D01*
X0118542Y0225165D02*
X0116505Y0225165D01*
X0115906Y0224567D02*
X0119141Y0224567D01*
X0119807Y0223968D02*
X0115240Y0223968D01*
X0113795Y0223370D02*
X0121252Y0223370D01*
X0111252Y0223370D02*
X0103795Y0223370D01*
X0103518Y0223255D02*
X0105356Y0224016D01*
X0106762Y0225423D01*
X0107524Y0227261D01*
X0107524Y0229250D01*
X0106762Y0231087D01*
X0105356Y0232494D01*
X0103518Y0233255D01*
X0101529Y0233255D01*
X0099691Y0232494D01*
X0098285Y0231087D01*
X0097524Y0229250D01*
X0097524Y0227261D01*
X0098285Y0225423D01*
X0099691Y0224016D01*
X0101529Y0223255D01*
X0103518Y0223255D01*
X0105240Y0223968D02*
X0109807Y0223968D01*
X0109141Y0224567D02*
X0105906Y0224567D01*
X0106505Y0225165D02*
X0108542Y0225165D01*
X0108144Y0225764D02*
X0106904Y0225764D01*
X0107152Y0226362D02*
X0107896Y0226362D01*
X0107648Y0226961D02*
X0107399Y0226961D01*
X0107524Y0227559D02*
X0107524Y0227559D01*
X0107524Y0228158D02*
X0107524Y0228158D01*
X0107524Y0228756D02*
X0107524Y0228756D01*
X0107480Y0229355D02*
X0107567Y0229355D01*
X0107815Y0229953D02*
X0107232Y0229953D01*
X0106984Y0230552D02*
X0108063Y0230552D01*
X0108348Y0231150D02*
X0106699Y0231150D01*
X0106101Y0231749D02*
X0108946Y0231749D01*
X0109545Y0232347D02*
X0105502Y0232347D01*
X0104264Y0232946D02*
X0110783Y0232946D01*
X0100783Y0232946D02*
X0038296Y0232946D01*
X0038894Y0233545D02*
X0451153Y0233545D01*
X0281072Y0193444D02*
X0275975Y0193444D01*
X0277382Y0194043D02*
X0279665Y0194043D01*
X0279066Y0194641D02*
X0277981Y0194641D01*
X0273072Y0193444D02*
X0266475Y0193444D01*
X0267882Y0194043D02*
X0271665Y0194043D01*
X0271066Y0194641D02*
X0268481Y0194641D01*
X0269079Y0195240D02*
X0270468Y0195240D01*
X0270113Y0195838D02*
X0269434Y0195838D01*
X0269682Y0196437D02*
X0269865Y0196437D01*
X0263572Y0193444D02*
X0258475Y0193444D01*
X0259882Y0194043D02*
X0262165Y0194043D01*
X0261566Y0194641D02*
X0260481Y0194641D01*
X0255572Y0193444D02*
X0248975Y0193444D01*
X0250382Y0194043D02*
X0254165Y0194043D01*
X0253566Y0194641D02*
X0250981Y0194641D01*
X0251579Y0195240D02*
X0252968Y0195240D01*
X0252613Y0195838D02*
X0251934Y0195838D01*
X0252182Y0196437D02*
X0252365Y0196437D01*
X0246072Y0193444D02*
X0240975Y0193444D01*
X0242382Y0194043D02*
X0244665Y0194043D01*
X0244066Y0194641D02*
X0242981Y0194641D01*
X0238072Y0193444D02*
X0231475Y0193444D01*
X0232882Y0194043D02*
X0236665Y0194043D01*
X0236066Y0194641D02*
X0233481Y0194641D01*
X0234079Y0195240D02*
X0235468Y0195240D01*
X0235113Y0195838D02*
X0234434Y0195838D01*
X0234682Y0196437D02*
X0234865Y0196437D01*
X0228572Y0193444D02*
X0223475Y0193444D01*
X0224882Y0194043D02*
X0227165Y0194043D01*
X0226566Y0194641D02*
X0225481Y0194641D01*
X0220572Y0193444D02*
X0213975Y0193444D01*
X0215382Y0194043D02*
X0219165Y0194043D01*
X0218566Y0194641D02*
X0215981Y0194641D01*
X0216579Y0195240D02*
X0217968Y0195240D01*
X0217613Y0195838D02*
X0216934Y0195838D01*
X0217182Y0196437D02*
X0217365Y0196437D01*
X0211072Y0193444D02*
X0205975Y0193444D01*
X0207382Y0194043D02*
X0209665Y0194043D01*
X0209066Y0194641D02*
X0207981Y0194641D01*
X0203072Y0193444D02*
X0196475Y0193444D01*
X0197882Y0194043D02*
X0201665Y0194043D01*
X0201066Y0194641D02*
X0198481Y0194641D01*
X0199079Y0195240D02*
X0200468Y0195240D01*
X0200113Y0195838D02*
X0199434Y0195838D01*
X0199682Y0196437D02*
X0199865Y0196437D01*
X0193572Y0193444D02*
X0188475Y0193444D01*
X0189882Y0194043D02*
X0192165Y0194043D01*
X0191566Y0194641D02*
X0190481Y0194641D01*
X0185572Y0193444D02*
X0178975Y0193444D01*
X0180382Y0194043D02*
X0184165Y0194043D01*
X0183566Y0194641D02*
X0180981Y0194641D01*
X0181579Y0195240D02*
X0182968Y0195240D01*
X0182613Y0195838D02*
X0181934Y0195838D01*
X0182182Y0196437D02*
X0182365Y0196437D01*
X0176072Y0193444D02*
X0170975Y0193444D01*
X0172382Y0194043D02*
X0174665Y0194043D01*
X0174066Y0194641D02*
X0172981Y0194641D01*
X0168072Y0193444D02*
X0161475Y0193444D01*
X0162882Y0194043D02*
X0166665Y0194043D01*
X0166066Y0194641D02*
X0163481Y0194641D01*
X0164079Y0195240D02*
X0165468Y0195240D01*
X0165113Y0195838D02*
X0164434Y0195838D01*
X0164682Y0196437D02*
X0164865Y0196437D01*
X0166107Y0209006D02*
X0157941Y0209006D01*
X0158539Y0209604D02*
X0166706Y0209604D01*
X0167304Y0210203D02*
X0159138Y0210203D01*
X0159736Y0210801D02*
X0167903Y0210801D01*
X0168501Y0211400D02*
X0160335Y0211400D01*
X0160933Y0211998D02*
X0169100Y0211998D01*
X0169698Y0212597D02*
X0161532Y0212597D01*
X0162130Y0213195D02*
X0170297Y0213195D01*
X0170895Y0213794D02*
X0162729Y0213794D01*
X0163328Y0214392D02*
X0171494Y0214392D01*
X0172092Y0214991D02*
X0163926Y0214991D01*
X0164525Y0215589D02*
X0172691Y0215589D01*
X0173289Y0216188D02*
X0165123Y0216188D01*
X0165722Y0216786D02*
X0173888Y0216786D01*
X0174486Y0217385D02*
X0166320Y0217385D01*
X0166919Y0217983D02*
X0175085Y0217983D01*
X0175683Y0218582D02*
X0167517Y0218582D01*
X0168116Y0219180D02*
X0176282Y0219180D01*
X0176880Y0219779D02*
X0168714Y0219779D01*
X0169313Y0220377D02*
X0177479Y0220377D01*
X0178077Y0220976D02*
X0169911Y0220976D01*
X0170510Y0221574D02*
X0178676Y0221574D01*
X0179224Y0222173D02*
X0171108Y0222173D01*
X0171707Y0222771D02*
X0179224Y0222771D01*
X0179224Y0223370D02*
X0173795Y0223370D01*
X0175240Y0223968D02*
X0179224Y0223968D01*
X0179141Y0224567D02*
X0175906Y0224567D01*
X0176505Y0225165D02*
X0178542Y0225165D01*
X0178144Y0225764D02*
X0176904Y0225764D01*
X0177152Y0226362D02*
X0177896Y0226362D01*
X0177648Y0226961D02*
X0177399Y0226961D01*
X0177524Y0227559D02*
X0177524Y0227559D01*
X0177524Y0228158D02*
X0177524Y0228158D01*
X0177524Y0228756D02*
X0177524Y0228756D01*
X0177480Y0229355D02*
X0177567Y0229355D01*
X0177815Y0229953D02*
X0177232Y0229953D01*
X0176984Y0230552D02*
X0178063Y0230552D01*
X0178348Y0231150D02*
X0176699Y0231150D01*
X0176101Y0231749D02*
X0178946Y0231749D01*
X0179545Y0232347D02*
X0175502Y0232347D01*
X0174264Y0232946D02*
X0180783Y0232946D01*
X0184264Y0232946D02*
X0190783Y0232946D01*
X0189545Y0232347D02*
X0185502Y0232347D01*
X0186101Y0231749D02*
X0188946Y0231749D01*
X0188348Y0231150D02*
X0186699Y0231150D01*
X0186984Y0230552D02*
X0188063Y0230552D01*
X0187815Y0229953D02*
X0187232Y0229953D01*
X0187480Y0229355D02*
X0187567Y0229355D01*
X0187524Y0228756D02*
X0187524Y0228756D01*
X0187524Y0228158D02*
X0187524Y0228158D01*
X0187524Y0227559D02*
X0187524Y0227559D01*
X0187399Y0226961D02*
X0187648Y0226961D01*
X0187896Y0226362D02*
X0187152Y0226362D01*
X0186904Y0225764D02*
X0188144Y0225764D01*
X0188542Y0225165D02*
X0186505Y0225165D01*
X0185906Y0224567D02*
X0189141Y0224567D01*
X0189224Y0223968D02*
X0185824Y0223968D01*
X0185824Y0223370D02*
X0189224Y0223370D01*
X0189224Y0222771D02*
X0185824Y0222771D01*
X0185824Y0222173D02*
X0189224Y0222173D01*
X0189224Y0221574D02*
X0185824Y0221574D01*
X0185824Y0220976D02*
X0189224Y0220976D01*
X0189224Y0220377D02*
X0185824Y0220377D01*
X0185691Y0219779D02*
X0189224Y0219779D01*
X0189224Y0219180D02*
X0185443Y0219180D01*
X0185017Y0218582D02*
X0189224Y0218582D01*
X0189224Y0217983D02*
X0184419Y0217983D01*
X0183820Y0217385D02*
X0189224Y0217385D01*
X0189224Y0216786D02*
X0183222Y0216786D01*
X0182623Y0216188D02*
X0189224Y0216188D01*
X0189224Y0215589D02*
X0182025Y0215589D01*
X0181426Y0214991D02*
X0189224Y0214991D01*
X0188994Y0214392D02*
X0180828Y0214392D01*
X0180229Y0213794D02*
X0188395Y0213794D01*
X0187797Y0213195D02*
X0179630Y0213195D01*
X0179032Y0212597D02*
X0187198Y0212597D01*
X0186600Y0211998D02*
X0178433Y0211998D01*
X0177835Y0211400D02*
X0186001Y0211400D01*
X0185403Y0210801D02*
X0177236Y0210801D01*
X0176638Y0210203D02*
X0184804Y0210203D01*
X0184206Y0209604D02*
X0176039Y0209604D01*
X0175441Y0209006D02*
X0183607Y0209006D01*
X0167524Y0228158D02*
X0167524Y0228158D01*
X0167524Y0228756D02*
X0167524Y0228756D01*
X0167480Y0229355D02*
X0167567Y0229355D01*
X0167815Y0229953D02*
X0167232Y0229953D01*
X0166984Y0230552D02*
X0168063Y0230552D01*
X0168348Y0231150D02*
X0166699Y0231150D01*
X0166101Y0231749D02*
X0168946Y0231749D01*
X0169545Y0232347D02*
X0165502Y0232347D01*
X0164264Y0232946D02*
X0170783Y0232946D01*
X0160783Y0232946D02*
X0154264Y0232946D01*
X0155502Y0232347D02*
X0159545Y0232347D01*
X0158946Y0231749D02*
X0156101Y0231749D01*
X0156699Y0231150D02*
X0158348Y0231150D01*
X0158063Y0230552D02*
X0156984Y0230552D01*
X0157232Y0229953D02*
X0157815Y0229953D01*
X0157567Y0229355D02*
X0157480Y0229355D01*
X0157524Y0228756D02*
X0157524Y0228756D01*
X0157524Y0228158D02*
X0157524Y0228158D01*
X0150783Y0232946D02*
X0144264Y0232946D01*
X0145502Y0232347D02*
X0149545Y0232347D01*
X0148946Y0231749D02*
X0146101Y0231749D01*
X0146699Y0231150D02*
X0148348Y0231150D01*
X0148063Y0230552D02*
X0146984Y0230552D01*
X0147232Y0229953D02*
X0147815Y0229953D01*
X0147567Y0229355D02*
X0147480Y0229355D01*
X0147524Y0228756D02*
X0147524Y0228756D01*
X0147524Y0228158D02*
X0147524Y0228158D01*
X0101252Y0223370D02*
X0028719Y0223370D01*
X0029318Y0223968D02*
X0099807Y0223968D01*
X0099141Y0224567D02*
X0029916Y0224567D01*
X0030515Y0225165D02*
X0098542Y0225165D01*
X0098144Y0225764D02*
X0031113Y0225764D01*
X0031712Y0226362D02*
X0097896Y0226362D01*
X0097648Y0226961D02*
X0032310Y0226961D01*
X0032909Y0227559D02*
X0097524Y0227559D01*
X0097524Y0228158D02*
X0033508Y0228158D01*
X0034106Y0228756D02*
X0097524Y0228756D01*
X0097567Y0229355D02*
X0034705Y0229355D01*
X0035303Y0229953D02*
X0097815Y0229953D01*
X0098063Y0230552D02*
X0035902Y0230552D01*
X0036500Y0231150D02*
X0098348Y0231150D01*
X0098946Y0231749D02*
X0037099Y0231749D01*
X0037697Y0232347D02*
X0099545Y0232347D01*
X0088462Y0203020D02*
X0083585Y0203020D01*
X0084928Y0202422D02*
X0087119Y0202422D01*
X0086521Y0201823D02*
X0085526Y0201823D01*
D14*
X0082024Y0198255D02*
X0090024Y0198255D01*
X0090614Y0198255D01*
X0110114Y0217755D01*
X0132024Y0217755D01*
X0142524Y0228255D01*
X0152524Y0228255D02*
X0136424Y0212155D01*
X0122014Y0212155D01*
X0108114Y0198255D01*
X0099524Y0198255D01*
X0107524Y0198255D02*
X0108114Y0198255D01*
X0117024Y0198255D02*
X0125024Y0198255D01*
X0125614Y0198255D01*
X0132914Y0205555D01*
X0139824Y0205555D01*
X0162524Y0228255D01*
X0172524Y0228255D02*
X0142524Y0198255D01*
X0134524Y0198255D01*
X0152024Y0198255D02*
X0160024Y0198255D01*
X0182524Y0220755D01*
X0182524Y0228255D01*
X0192524Y0228255D02*
X0192524Y0216255D01*
X0192524Y0213255D01*
X0177524Y0198255D01*
X0169524Y0198255D01*
X0187024Y0198255D02*
X0195024Y0198255D01*
X0195024Y0203255D01*
X0205524Y0213755D01*
X0205524Y0226255D01*
X0207524Y0228255D01*
X0217524Y0228255D02*
X0217524Y0218255D01*
X0212524Y0213255D01*
X0212524Y0198255D01*
X0204524Y0198255D01*
X0222024Y0198255D02*
X0230024Y0198255D01*
X0230024Y0225755D01*
X0227524Y0228255D01*
X0237524Y0228255D02*
X0239524Y0226255D01*
X0239524Y0198255D01*
X0247524Y0198255D01*
X0257024Y0198255D02*
X0265024Y0198255D01*
X0257024Y0198255D02*
X0257024Y0218755D01*
X0247524Y0228255D01*
X0257524Y0228255D02*
X0274524Y0211255D01*
X0274524Y0198255D01*
X0282524Y0198255D01*
X0282524Y0168255D02*
X0282524Y0149740D01*
X0304607Y0127657D01*
X0284607Y0127657D02*
X0265024Y0147240D01*
X0265024Y0168255D01*
X0247524Y0168255D02*
X0247524Y0144740D01*
X0264607Y0127657D01*
X0244607Y0127657D02*
X0230024Y0142240D01*
X0230024Y0168255D01*
X0212524Y0168255D02*
X0212524Y0139740D01*
X0224607Y0127657D01*
X0204607Y0127657D02*
X0195024Y0137240D01*
X0195024Y0168255D01*
X0177524Y0168255D02*
X0177524Y0134740D01*
X0184607Y0127657D01*
X0164607Y0127657D02*
X0160024Y0132240D01*
X0160024Y0168255D01*
X0144607Y0166172D02*
X0144607Y0127657D01*
X0125024Y0128074D02*
X0124607Y0127657D01*
X0125024Y0128074D02*
X0125024Y0168255D01*
X0142524Y0168255D02*
X0144607Y0166172D01*
X0107524Y0168255D02*
X0107524Y0130574D01*
X0104607Y0127657D01*
X0090024Y0133074D02*
X0084607Y0127657D01*
X0090024Y0133074D02*
X0090024Y0168255D01*
X0064607Y0127657D02*
X0110508Y0081755D01*
X0212024Y0081755D01*
X0229524Y0081755D02*
X0229524Y0074346D01*
X0223133Y0067955D01*
X0087324Y0067955D01*
X0047024Y0108255D01*
X0044607Y0110672D01*
X0044607Y0127657D01*
X0045524Y0109755D02*
X0047024Y0108255D01*
X0110107Y0045657D02*
X0117705Y0053255D01*
X0172524Y0053255D01*
X0177524Y0048255D01*
X0177524Y0038255D01*
X0212024Y0051755D02*
X0220024Y0051755D01*
X0220024Y0045755D01*
X0227524Y0038255D01*
X0237524Y0038255D02*
X0237524Y0051755D01*
X0229524Y0051755D01*
X0247524Y0049255D02*
X0247524Y0038255D01*
X0257524Y0038255D02*
X0257524Y0047255D01*
X0293524Y0083255D01*
X0307524Y0083255D01*
X0307524Y0091755D02*
X0290024Y0091755D01*
X0247524Y0049255D01*
X0267524Y0045255D02*
X0267524Y0038255D01*
X0277524Y0038255D02*
X0281024Y0034755D01*
X0298524Y0034755D01*
X0307524Y0043755D01*
X0307524Y0064755D01*
X0307524Y0074255D02*
X0296524Y0074255D01*
X0267524Y0045255D01*
X0337524Y0064755D02*
X0364024Y0064755D01*
X0367524Y0068255D01*
X0373524Y0074255D02*
X0379524Y0080255D01*
X0379524Y0088755D01*
X0367524Y0100755D01*
X0352524Y0090255D02*
X0345524Y0083255D01*
X0337524Y0083255D01*
X0352524Y0090255D02*
X0352524Y0127755D01*
X0360524Y0135755D01*
X0367524Y0135755D01*
X0397524Y0125755D02*
X0403024Y0125755D01*
X0406524Y0129255D01*
X0419024Y0129255D01*
X0422524Y0125755D01*
X0429941Y0118338D01*
X0447622Y0118338D01*
X0460524Y0108255D02*
X0425024Y0108255D01*
X0412524Y0120755D01*
X0412524Y0138255D02*
X0412607Y0138338D01*
X0412607Y0153172D01*
X0407524Y0158255D01*
X0397524Y0158255D01*
X0412524Y0168255D02*
X0419607Y0168255D01*
X0420107Y0168755D01*
X0420107Y0158172D01*
X0422524Y0155755D01*
X0451024Y0155755D01*
X0460524Y0146255D01*
X0460524Y0108255D01*
X0460524Y0094255D01*
X0454524Y0088255D01*
X0422524Y0088255D01*
X0412524Y0090755D02*
X0412524Y0094255D01*
X0416607Y0098338D01*
X0447622Y0098338D01*
X0412524Y0090755D02*
X0397524Y0090755D01*
X0373524Y0074255D02*
X0337524Y0074255D01*
X0337524Y0091755D02*
X0337524Y0148755D01*
X0357024Y0168255D01*
X0367524Y0168255D01*
X0420107Y0168755D02*
X0420107Y0210657D01*
X0412607Y0138338D02*
X0447622Y0138338D01*
X0447622Y0078338D02*
X0427539Y0058255D01*
X0422524Y0058255D01*
X0397524Y0058255D01*
M02*
